<svg width="312" height="160" viewBox="0 0 312 160" fill="none" xmlns="http://www.w3.org/2000/svg">
    <g filter="url(#filter0_d_176_253)">
        <rect x="10" y="4" width="292" height="140" rx="12" fill="#FDFFFB"/>
        <path d="M26.72 33.628C26.72 32.62 26.798 31.762 26.954 31.054C27.122 30.334 27.338 29.734 27.602 29.254C27.866 28.762 28.16 28.372 28.484 28.084C28.82 27.784 29.156 27.562 29.492 27.418C29.84 27.262 30.17 27.16 30.482 27.112C30.806 27.064 31.088 27.04 31.328 27.04C31.568 27.04 31.844 27.064 32.156 27.112C32.48 27.16 32.81 27.262 33.146 27.418C33.494 27.562 33.83 27.784 34.154 28.084C34.49 28.372 34.79 28.762 35.054 29.254C35.318 29.734 35.528 30.334 35.684 31.054C35.852 31.762 35.936 32.62 35.936 33.628C35.936 34.636 35.852 35.5 35.684 36.22C35.528 36.928 35.318 37.528 35.054 38.02C34.79 38.5 34.49 38.89 34.154 39.19C33.83 39.478 33.494 39.7 33.146 39.856C32.81 40 32.48 40.096 32.156 40.144C31.844 40.192 31.568 40.216 31.328 40.216C31.088 40.216 30.806 40.192 30.482 40.144C30.17 40.096 29.84 40 29.492 39.856C29.156 39.7 28.82 39.478 28.484 39.19C28.16 38.89 27.866 38.5 27.602 38.02C27.338 37.528 27.122 36.928 26.954 36.22C26.798 35.5 26.72 34.636 26.72 33.628ZM28.88 33.628C28.88 34.024 28.904 34.486 28.952 35.014C29.012 35.53 29.126 36.022 29.294 36.49C29.462 36.958 29.708 37.354 30.032 37.678C30.356 38.002 30.788 38.164 31.328 38.164C31.868 38.164 32.3 38.002 32.624 37.678C32.948 37.354 33.194 36.958 33.362 36.49C33.53 36.022 33.638 35.53 33.686 35.014C33.746 34.486 33.776 34.024 33.776 33.628C33.776 33.232 33.746 32.776 33.686 32.26C33.638 31.732 33.53 31.234 33.362 30.766C33.194 30.298 32.948 29.902 32.624 29.578C32.3 29.254 31.868 29.092 31.328 29.092C30.788 29.092 30.356 29.254 30.032 29.578C29.708 29.902 29.462 30.298 29.294 30.766C29.126 31.234 29.012 31.732 28.952 32.26C28.904 32.776 28.88 33.232 28.88 33.628ZM41.6563 29.74L39.2623 31.954L38.0023 30.46L41.8543 27.256H43.8163V40H41.6563V29.74ZM48.8887 38.74C48.8887 38.356 49.0267 38.026 49.3027 37.75C49.5907 37.474 49.9327 37.336 50.3287 37.336C50.7127 37.336 51.0487 37.468 51.3367 37.732C51.6247 37.996 51.7687 38.32 51.7687 38.704C51.7687 39.088 51.6247 39.418 51.3367 39.694C51.0607 39.97 50.7247 40.108 50.3287 40.108C50.1367 40.108 49.9507 40.072 49.7707 40C49.6027 39.928 49.4527 39.832 49.3207 39.712C49.1887 39.592 49.0807 39.448 48.9967 39.28C48.9247 39.112 48.8887 38.932 48.8887 38.74ZM66.345 29.992C66.105 29.644 65.781 29.392 65.373 29.236C64.977 29.068 64.557 28.984 64.113 28.984C63.849 28.984 63.591 29.014 63.339 29.074C63.099 29.134 62.877 29.23 62.673 29.362C62.481 29.494 62.325 29.668 62.205 29.884C62.085 30.088 62.025 30.334 62.025 30.622C62.025 31.054 62.175 31.384 62.475 31.612C62.775 31.84 63.147 32.038 63.591 32.206C64.035 32.374 64.521 32.536 65.049 32.692C65.577 32.848 66.063 33.064 66.507 33.34C66.951 33.616 67.323 33.982 67.623 34.438C67.923 34.894 68.073 35.5 68.073 36.256C68.073 36.94 67.947 37.54 67.695 38.056C67.443 38.56 67.101 38.98 66.669 39.316C66.249 39.652 65.757 39.904 65.193 40.072C64.629 40.24 64.035 40.324 63.411 40.324C62.619 40.324 61.857 40.192 61.125 39.928C60.393 39.664 59.763 39.22 59.235 38.596L60.945 36.94C61.221 37.36 61.581 37.69 62.025 37.93C62.481 38.158 62.961 38.272 63.465 38.272C63.729 38.272 63.993 38.236 64.257 38.164C64.521 38.092 64.761 37.984 64.977 37.84C65.193 37.696 65.367 37.516 65.499 37.3C65.631 37.072 65.697 36.814 65.697 36.526C65.697 36.058 65.547 35.698 65.247 35.446C64.947 35.194 64.575 34.984 64.131 34.816C63.687 34.636 63.201 34.468 62.673 34.312C62.145 34.156 61.659 33.946 61.215 33.682C60.771 33.406 60.399 33.046 60.099 32.602C59.799 32.146 59.649 31.54 59.649 30.784C59.649 30.124 59.781 29.554 60.045 29.074C60.321 28.594 60.675 28.198 61.107 27.886C61.551 27.562 62.055 27.322 62.619 27.166C63.183 27.01 63.759 26.932 64.347 26.932C65.019 26.932 65.667 27.034 66.291 27.238C66.927 27.442 67.497 27.778 68.001 28.246L66.345 29.992ZM69.409 33.196V31.36H71.191V28.858H73.351V31.36H75.727V33.196H73.351V36.976C73.351 37.408 73.429 37.75 73.585 38.002C73.753 38.254 74.077 38.38 74.557 38.38C74.749 38.38 74.959 38.362 75.187 38.326C75.415 38.278 75.595 38.206 75.727 38.11V39.928C75.499 40.036 75.217 40.108 74.881 40.144C74.557 40.192 74.269 40.216 74.017 40.216C73.441 40.216 72.967 40.15 72.595 40.018C72.235 39.898 71.947 39.712 71.731 39.46C71.527 39.196 71.383 38.872 71.299 38.488C71.227 38.104 71.191 37.66 71.191 37.156V33.196H69.409ZM82.9931 38.812H82.9391C82.6271 39.304 82.2311 39.664 81.7511 39.892C81.2711 40.108 80.7431 40.216 80.1671 40.216C79.7711 40.216 79.3811 40.162 78.9971 40.054C78.6251 39.946 78.2891 39.784 77.9891 39.568C77.7011 39.352 77.4671 39.082 77.2871 38.758C77.1071 38.434 77.0171 38.056 77.0171 37.624C77.0171 37.156 77.1011 36.76 77.2691 36.436C77.4371 36.1 77.6591 35.824 77.9351 35.608C78.2231 35.38 78.5531 35.2 78.9251 35.068C79.2971 34.936 79.6811 34.84 80.0771 34.78C80.4851 34.708 80.8931 34.666 81.3011 34.654C81.7091 34.63 82.0931 34.618 82.4531 34.618H82.9931V34.384C82.9931 33.844 82.8071 33.442 82.4351 33.178C82.0631 32.902 81.5891 32.764 81.0131 32.764C80.5571 32.764 80.1311 32.848 79.7351 33.016C79.3391 33.172 78.9971 33.388 78.7091 33.664L77.5751 32.53C78.0551 32.038 78.6131 31.684 79.2491 31.468C79.8971 31.252 80.5631 31.144 81.2471 31.144C81.8591 31.144 82.3751 31.216 82.7951 31.36C83.2151 31.492 83.5631 31.666 83.8391 31.882C84.1151 32.098 84.3251 32.35 84.4691 32.638C84.6251 32.914 84.7331 33.196 84.7931 33.484C84.8651 33.772 84.9071 34.054 84.9191 34.33C84.9311 34.594 84.9371 34.828 84.9371 35.032V40H82.9931V38.812ZM82.8671 36.13H82.4171C82.1171 36.13 81.7811 36.142 81.4091 36.166C81.0371 36.19 80.6831 36.25 80.3471 36.346C80.0231 36.43 79.7471 36.562 79.5191 36.742C79.2911 36.91 79.1771 37.15 79.1771 37.462C79.1771 37.666 79.2191 37.84 79.3031 37.984C79.3991 38.116 79.5191 38.23 79.6631 38.326C79.8071 38.422 79.9691 38.494 80.1491 38.542C80.3291 38.578 80.5091 38.596 80.6891 38.596C81.4331 38.596 81.9791 38.422 82.3271 38.074C82.6871 37.714 82.8671 37.228 82.8671 36.616V36.13ZM87.441 31.36H89.601V32.728H89.637C89.877 32.224 90.219 31.834 90.663 31.558C91.107 31.282 91.617 31.144 92.193 31.144C92.325 31.144 92.451 31.156 92.571 31.18C92.703 31.204 92.835 31.234 92.967 31.27V33.358C92.787 33.31 92.607 33.274 92.427 33.25C92.259 33.214 92.091 33.196 91.923 33.196C91.419 33.196 91.011 33.292 90.699 33.484C90.399 33.664 90.165 33.874 89.997 34.114C89.841 34.354 89.733 34.594 89.673 34.834C89.625 35.074 89.601 35.254 89.601 35.374V40H87.441V31.36ZM93.6091 33.196V31.36H95.3911V28.858H97.5511V31.36H99.9271V33.196H97.5511V36.976C97.5511 37.408 97.6291 37.75 97.7851 38.002C97.9531 38.254 98.2771 38.38 98.7571 38.38C98.9491 38.38 99.1591 38.362 99.3871 38.326C99.6151 38.278 99.7951 38.206 99.9271 38.11V39.928C99.6991 40.036 99.4171 40.108 99.0811 40.144C98.7571 40.192 98.4691 40.216 98.2171 40.216C97.6411 40.216 97.1671 40.15 96.7951 40.018C96.4351 39.898 96.1471 39.712 95.9311 39.46C95.7271 39.196 95.5831 38.872 95.4991 38.488C95.4271 38.104 95.3911 37.66 95.3911 37.156V33.196H93.6091Z" fill="#17AD37"/>
        <path d="M26.72 33.628C26.72 32.62 26.798 31.762 26.954 31.054C27.122 30.334 27.338 29.734 27.602 29.254C27.866 28.762 28.16 28.372 28.484 28.084C28.82 27.784 29.156 27.562 29.492 27.418C29.84 27.262 30.17 27.16 30.482 27.112C30.806 27.064 31.088 27.04 31.328 27.04C31.568 27.04 31.844 27.064 32.156 27.112C32.48 27.16 32.81 27.262 33.146 27.418C33.494 27.562 33.83 27.784 34.154 28.084C34.49 28.372 34.79 28.762 35.054 29.254C35.318 29.734 35.528 30.334 35.684 31.054C35.852 31.762 35.936 32.62 35.936 33.628C35.936 34.636 35.852 35.5 35.684 36.22C35.528 36.928 35.318 37.528 35.054 38.02C34.79 38.5 34.49 38.89 34.154 39.19C33.83 39.478 33.494 39.7 33.146 39.856C32.81 40 32.48 40.096 32.156 40.144C31.844 40.192 31.568 40.216 31.328 40.216C31.088 40.216 30.806 40.192 30.482 40.144C30.17 40.096 29.84 40 29.492 39.856C29.156 39.7 28.82 39.478 28.484 39.19C28.16 38.89 27.866 38.5 27.602 38.02C27.338 37.528 27.122 36.928 26.954 36.22C26.798 35.5 26.72 34.636 26.72 33.628ZM28.88 33.628C28.88 34.024 28.904 34.486 28.952 35.014C29.012 35.53 29.126 36.022 29.294 36.49C29.462 36.958 29.708 37.354 30.032 37.678C30.356 38.002 30.788 38.164 31.328 38.164C31.868 38.164 32.3 38.002 32.624 37.678C32.948 37.354 33.194 36.958 33.362 36.49C33.53 36.022 33.638 35.53 33.686 35.014C33.746 34.486 33.776 34.024 33.776 33.628C33.776 33.232 33.746 32.776 33.686 32.26C33.638 31.732 33.53 31.234 33.362 30.766C33.194 30.298 32.948 29.902 32.624 29.578C32.3 29.254 31.868 29.092 31.328 29.092C30.788 29.092 30.356 29.254 30.032 29.578C29.708 29.902 29.462 30.298 29.294 30.766C29.126 31.234 29.012 31.732 28.952 32.26C28.904 32.776 28.88 33.232 28.88 33.628ZM41.6563 29.74L39.2623 31.954L38.0023 30.46L41.8543 27.256H43.8163V40H41.6563V29.74ZM48.8887 38.74C48.8887 38.356 49.0267 38.026 49.3027 37.75C49.5907 37.474 49.9327 37.336 50.3287 37.336C50.7127 37.336 51.0487 37.468 51.3367 37.732C51.6247 37.996 51.7687 38.32 51.7687 38.704C51.7687 39.088 51.6247 39.418 51.3367 39.694C51.0607 39.97 50.7247 40.108 50.3287 40.108C50.1367 40.108 49.9507 40.072 49.7707 40C49.6027 39.928 49.4527 39.832 49.3207 39.712C49.1887 39.592 49.0807 39.448 48.9967 39.28C48.9247 39.112 48.8887 38.932 48.8887 38.74ZM66.345 29.992C66.105 29.644 65.781 29.392 65.373 29.236C64.977 29.068 64.557 28.984 64.113 28.984C63.849 28.984 63.591 29.014 63.339 29.074C63.099 29.134 62.877 29.23 62.673 29.362C62.481 29.494 62.325 29.668 62.205 29.884C62.085 30.088 62.025 30.334 62.025 30.622C62.025 31.054 62.175 31.384 62.475 31.612C62.775 31.84 63.147 32.038 63.591 32.206C64.035 32.374 64.521 32.536 65.049 32.692C65.577 32.848 66.063 33.064 66.507 33.34C66.951 33.616 67.323 33.982 67.623 34.438C67.923 34.894 68.073 35.5 68.073 36.256C68.073 36.94 67.947 37.54 67.695 38.056C67.443 38.56 67.101 38.98 66.669 39.316C66.249 39.652 65.757 39.904 65.193 40.072C64.629 40.24 64.035 40.324 63.411 40.324C62.619 40.324 61.857 40.192 61.125 39.928C60.393 39.664 59.763 39.22 59.235 38.596L60.945 36.94C61.221 37.36 61.581 37.69 62.025 37.93C62.481 38.158 62.961 38.272 63.465 38.272C63.729 38.272 63.993 38.236 64.257 38.164C64.521 38.092 64.761 37.984 64.977 37.84C65.193 37.696 65.367 37.516 65.499 37.3C65.631 37.072 65.697 36.814 65.697 36.526C65.697 36.058 65.547 35.698 65.247 35.446C64.947 35.194 64.575 34.984 64.131 34.816C63.687 34.636 63.201 34.468 62.673 34.312C62.145 34.156 61.659 33.946 61.215 33.682C60.771 33.406 60.399 33.046 60.099 32.602C59.799 32.146 59.649 31.54 59.649 30.784C59.649 30.124 59.781 29.554 60.045 29.074C60.321 28.594 60.675 28.198 61.107 27.886C61.551 27.562 62.055 27.322 62.619 27.166C63.183 27.01 63.759 26.932 64.347 26.932C65.019 26.932 65.667 27.034 66.291 27.238C66.927 27.442 67.497 27.778 68.001 28.246L66.345 29.992ZM69.409 33.196V31.36H71.191V28.858H73.351V31.36H75.727V33.196H73.351V36.976C73.351 37.408 73.429 37.75 73.585 38.002C73.753 38.254 74.077 38.38 74.557 38.38C74.749 38.38 74.959 38.362 75.187 38.326C75.415 38.278 75.595 38.206 75.727 38.11V39.928C75.499 40.036 75.217 40.108 74.881 40.144C74.557 40.192 74.269 40.216 74.017 40.216C73.441 40.216 72.967 40.15 72.595 40.018C72.235 39.898 71.947 39.712 71.731 39.46C71.527 39.196 71.383 38.872 71.299 38.488C71.227 38.104 71.191 37.66 71.191 37.156V33.196H69.409ZM82.9931 38.812H82.9391C82.6271 39.304 82.2311 39.664 81.7511 39.892C81.2711 40.108 80.7431 40.216 80.1671 40.216C79.7711 40.216 79.3811 40.162 78.9971 40.054C78.6251 39.946 78.2891 39.784 77.9891 39.568C77.7011 39.352 77.4671 39.082 77.2871 38.758C77.1071 38.434 77.0171 38.056 77.0171 37.624C77.0171 37.156 77.1011 36.76 77.2691 36.436C77.4371 36.1 77.6591 35.824 77.9351 35.608C78.2231 35.38 78.5531 35.2 78.9251 35.068C79.2971 34.936 79.6811 34.84 80.0771 34.78C80.4851 34.708 80.8931 34.666 81.3011 34.654C81.7091 34.63 82.0931 34.618 82.4531 34.618H82.9931V34.384C82.9931 33.844 82.8071 33.442 82.4351 33.178C82.0631 32.902 81.5891 32.764 81.0131 32.764C80.5571 32.764 80.1311 32.848 79.7351 33.016C79.3391 33.172 78.9971 33.388 78.7091 33.664L77.5751 32.53C78.0551 32.038 78.6131 31.684 79.2491 31.468C79.8971 31.252 80.5631 31.144 81.2471 31.144C81.8591 31.144 82.3751 31.216 82.7951 31.36C83.2151 31.492 83.5631 31.666 83.8391 31.882C84.1151 32.098 84.3251 32.35 84.4691 32.638C84.6251 32.914 84.7331 33.196 84.7931 33.484C84.8651 33.772 84.9071 34.054 84.9191 34.33C84.9311 34.594 84.9371 34.828 84.9371 35.032V40H82.9931V38.812ZM82.8671 36.13H82.4171C82.1171 36.13 81.7811 36.142 81.4091 36.166C81.0371 36.19 80.6831 36.25 80.3471 36.346C80.0231 36.43 79.7471 36.562 79.5191 36.742C79.2911 36.91 79.1771 37.15 79.1771 37.462C79.1771 37.666 79.2191 37.84 79.3031 37.984C79.3991 38.116 79.5191 38.23 79.6631 38.326C79.8071 38.422 79.9691 38.494 80.1491 38.542C80.3291 38.578 80.5091 38.596 80.6891 38.596C81.4331 38.596 81.9791 38.422 82.3271 38.074C82.6871 37.714 82.8671 37.228 82.8671 36.616V36.13ZM87.441 31.36H89.601V32.728H89.637C89.877 32.224 90.219 31.834 90.663 31.558C91.107 31.282 91.617 31.144 92.193 31.144C92.325 31.144 92.451 31.156 92.571 31.18C92.703 31.204 92.835 31.234 92.967 31.27V33.358C92.787 33.31 92.607 33.274 92.427 33.25C92.259 33.214 92.091 33.196 91.923 33.196C91.419 33.196 91.011 33.292 90.699 33.484C90.399 33.664 90.165 33.874 89.997 34.114C89.841 34.354 89.733 34.594 89.673 34.834C89.625 35.074 89.601 35.254 89.601 35.374V40H87.441V31.36ZM93.6091 33.196V31.36H95.3911V28.858H97.5511V31.36H99.9271V33.196H97.5511V36.976C97.5511 37.408 97.6291 37.75 97.7851 38.002C97.9531 38.254 98.2771 38.38 98.7571 38.38C98.9491 38.38 99.1591 38.362 99.3871 38.326C99.6151 38.278 99.7951 38.206 99.9271 38.11V39.928C99.6991 40.036 99.4171 40.108 99.0811 40.144C98.7571 40.192 98.4691 40.216 98.2171 40.216C97.6411 40.216 97.1671 40.15 96.7951 40.018C96.4351 39.898 96.1471 39.712 95.9311 39.46C95.7271 39.196 95.5831 38.872 95.4991 38.488C95.4271 38.104 95.3911 37.66 95.3911 37.156V33.196H93.6091Z" fill="black" fill-opacity="0.2"/>
        <path d="M26.72 33.628C26.72 32.62 26.798 31.762 26.954 31.054C27.122 30.334 27.338 29.734 27.602 29.254C27.866 28.762 28.16 28.372 28.484 28.084C28.82 27.784 29.156 27.562 29.492 27.418C29.84 27.262 30.17 27.16 30.482 27.112C30.806 27.064 31.088 27.04 31.328 27.04C31.568 27.04 31.844 27.064 32.156 27.112C32.48 27.16 32.81 27.262 33.146 27.418C33.494 27.562 33.83 27.784 34.154 28.084C34.49 28.372 34.79 28.762 35.054 29.254C35.318 29.734 35.528 30.334 35.684 31.054C35.852 31.762 35.936 32.62 35.936 33.628C35.936 34.636 35.852 35.5 35.684 36.22C35.528 36.928 35.318 37.528 35.054 38.02C34.79 38.5 34.49 38.89 34.154 39.19C33.83 39.478 33.494 39.7 33.146 39.856C32.81 40 32.48 40.096 32.156 40.144C31.844 40.192 31.568 40.216 31.328 40.216C31.088 40.216 30.806 40.192 30.482 40.144C30.17 40.096 29.84 40 29.492 39.856C29.156 39.7 28.82 39.478 28.484 39.19C28.16 38.89 27.866 38.5 27.602 38.02C27.338 37.528 27.122 36.928 26.954 36.22C26.798 35.5 26.72 34.636 26.72 33.628ZM28.88 33.628C28.88 34.024 28.904 34.486 28.952 35.014C29.012 35.53 29.126 36.022 29.294 36.49C29.462 36.958 29.708 37.354 30.032 37.678C30.356 38.002 30.788 38.164 31.328 38.164C31.868 38.164 32.3 38.002 32.624 37.678C32.948 37.354 33.194 36.958 33.362 36.49C33.53 36.022 33.638 35.53 33.686 35.014C33.746 34.486 33.776 34.024 33.776 33.628C33.776 33.232 33.746 32.776 33.686 32.26C33.638 31.732 33.53 31.234 33.362 30.766C33.194 30.298 32.948 29.902 32.624 29.578C32.3 29.254 31.868 29.092 31.328 29.092C30.788 29.092 30.356 29.254 30.032 29.578C29.708 29.902 29.462 30.298 29.294 30.766C29.126 31.234 29.012 31.732 28.952 32.26C28.904 32.776 28.88 33.232 28.88 33.628ZM41.6563 29.74L39.2623 31.954L38.0023 30.46L41.8543 27.256H43.8163V40H41.6563V29.74ZM48.8887 38.74C48.8887 38.356 49.0267 38.026 49.3027 37.75C49.5907 37.474 49.9327 37.336 50.3287 37.336C50.7127 37.336 51.0487 37.468 51.3367 37.732C51.6247 37.996 51.7687 38.32 51.7687 38.704C51.7687 39.088 51.6247 39.418 51.3367 39.694C51.0607 39.97 50.7247 40.108 50.3287 40.108C50.1367 40.108 49.9507 40.072 49.7707 40C49.6027 39.928 49.4527 39.832 49.3207 39.712C49.1887 39.592 49.0807 39.448 48.9967 39.28C48.9247 39.112 48.8887 38.932 48.8887 38.74ZM66.345 29.992C66.105 29.644 65.781 29.392 65.373 29.236C64.977 29.068 64.557 28.984 64.113 28.984C63.849 28.984 63.591 29.014 63.339 29.074C63.099 29.134 62.877 29.23 62.673 29.362C62.481 29.494 62.325 29.668 62.205 29.884C62.085 30.088 62.025 30.334 62.025 30.622C62.025 31.054 62.175 31.384 62.475 31.612C62.775 31.84 63.147 32.038 63.591 32.206C64.035 32.374 64.521 32.536 65.049 32.692C65.577 32.848 66.063 33.064 66.507 33.34C66.951 33.616 67.323 33.982 67.623 34.438C67.923 34.894 68.073 35.5 68.073 36.256C68.073 36.94 67.947 37.54 67.695 38.056C67.443 38.56 67.101 38.98 66.669 39.316C66.249 39.652 65.757 39.904 65.193 40.072C64.629 40.24 64.035 40.324 63.411 40.324C62.619 40.324 61.857 40.192 61.125 39.928C60.393 39.664 59.763 39.22 59.235 38.596L60.945 36.94C61.221 37.36 61.581 37.69 62.025 37.93C62.481 38.158 62.961 38.272 63.465 38.272C63.729 38.272 63.993 38.236 64.257 38.164C64.521 38.092 64.761 37.984 64.977 37.84C65.193 37.696 65.367 37.516 65.499 37.3C65.631 37.072 65.697 36.814 65.697 36.526C65.697 36.058 65.547 35.698 65.247 35.446C64.947 35.194 64.575 34.984 64.131 34.816C63.687 34.636 63.201 34.468 62.673 34.312C62.145 34.156 61.659 33.946 61.215 33.682C60.771 33.406 60.399 33.046 60.099 32.602C59.799 32.146 59.649 31.54 59.649 30.784C59.649 30.124 59.781 29.554 60.045 29.074C60.321 28.594 60.675 28.198 61.107 27.886C61.551 27.562 62.055 27.322 62.619 27.166C63.183 27.01 63.759 26.932 64.347 26.932C65.019 26.932 65.667 27.034 66.291 27.238C66.927 27.442 67.497 27.778 68.001 28.246L66.345 29.992ZM69.409 33.196V31.36H71.191V28.858H73.351V31.36H75.727V33.196H73.351V36.976C73.351 37.408 73.429 37.75 73.585 38.002C73.753 38.254 74.077 38.38 74.557 38.38C74.749 38.38 74.959 38.362 75.187 38.326C75.415 38.278 75.595 38.206 75.727 38.11V39.928C75.499 40.036 75.217 40.108 74.881 40.144C74.557 40.192 74.269 40.216 74.017 40.216C73.441 40.216 72.967 40.15 72.595 40.018C72.235 39.898 71.947 39.712 71.731 39.46C71.527 39.196 71.383 38.872 71.299 38.488C71.227 38.104 71.191 37.66 71.191 37.156V33.196H69.409ZM82.9931 38.812H82.9391C82.6271 39.304 82.2311 39.664 81.7511 39.892C81.2711 40.108 80.7431 40.216 80.1671 40.216C79.7711 40.216 79.3811 40.162 78.9971 40.054C78.6251 39.946 78.2891 39.784 77.9891 39.568C77.7011 39.352 77.4671 39.082 77.2871 38.758C77.1071 38.434 77.0171 38.056 77.0171 37.624C77.0171 37.156 77.1011 36.76 77.2691 36.436C77.4371 36.1 77.6591 35.824 77.9351 35.608C78.2231 35.38 78.5531 35.2 78.9251 35.068C79.2971 34.936 79.6811 34.84 80.0771 34.78C80.4851 34.708 80.8931 34.666 81.3011 34.654C81.7091 34.63 82.0931 34.618 82.4531 34.618H82.9931V34.384C82.9931 33.844 82.8071 33.442 82.4351 33.178C82.0631 32.902 81.5891 32.764 81.0131 32.764C80.5571 32.764 80.1311 32.848 79.7351 33.016C79.3391 33.172 78.9971 33.388 78.7091 33.664L77.5751 32.53C78.0551 32.038 78.6131 31.684 79.2491 31.468C79.8971 31.252 80.5631 31.144 81.2471 31.144C81.8591 31.144 82.3751 31.216 82.7951 31.36C83.2151 31.492 83.5631 31.666 83.8391 31.882C84.1151 32.098 84.3251 32.35 84.4691 32.638C84.6251 32.914 84.7331 33.196 84.7931 33.484C84.8651 33.772 84.9071 34.054 84.9191 34.33C84.9311 34.594 84.9371 34.828 84.9371 35.032V40H82.9931V38.812ZM82.8671 36.13H82.4171C82.1171 36.13 81.7811 36.142 81.4091 36.166C81.0371 36.19 80.6831 36.25 80.3471 36.346C80.0231 36.43 79.7471 36.562 79.5191 36.742C79.2911 36.91 79.1771 37.15 79.1771 37.462C79.1771 37.666 79.2191 37.84 79.3031 37.984C79.3991 38.116 79.5191 38.23 79.6631 38.326C79.8071 38.422 79.9691 38.494 80.1491 38.542C80.3291 38.578 80.5091 38.596 80.6891 38.596C81.4331 38.596 81.9791 38.422 82.3271 38.074C82.6871 37.714 82.8671 37.228 82.8671 36.616V36.13ZM87.441 31.36H89.601V32.728H89.637C89.877 32.224 90.219 31.834 90.663 31.558C91.107 31.282 91.617 31.144 92.193 31.144C92.325 31.144 92.451 31.156 92.571 31.18C92.703 31.204 92.835 31.234 92.967 31.27V33.358C92.787 33.31 92.607 33.274 92.427 33.25C92.259 33.214 92.091 33.196 91.923 33.196C91.419 33.196 91.011 33.292 90.699 33.484C90.399 33.664 90.165 33.874 89.997 34.114C89.841 34.354 89.733 34.594 89.673 34.834C89.625 35.074 89.601 35.254 89.601 35.374V40H87.441V31.36ZM93.6091 33.196V31.36H95.3911V28.858H97.5511V31.36H99.9271V33.196H97.5511V36.976C97.5511 37.408 97.6291 37.75 97.7851 38.002C97.9531 38.254 98.2771 38.38 98.7571 38.38C98.9491 38.38 99.1591 38.362 99.3871 38.326C99.6151 38.278 99.7951 38.206 99.9271 38.11V39.928C99.6991 40.036 99.4171 40.108 99.0811 40.144C98.7571 40.192 98.4691 40.216 98.2171 40.216C97.6411 40.216 97.1671 40.15 96.7951 40.018C96.4351 39.898 96.1471 39.712 95.9311 39.46C95.7271 39.196 95.5831 38.872 95.4991 38.488C95.4271 38.104 95.3911 37.66 95.3911 37.156V33.196H93.6091Z" fill="black" fill-opacity="0.2"/>
        <path d="M26.72 33.628C26.72 32.62 26.798 31.762 26.954 31.054C27.122 30.334 27.338 29.734 27.602 29.254C27.866 28.762 28.16 28.372 28.484 28.084C28.82 27.784 29.156 27.562 29.492 27.418C29.84 27.262 30.17 27.16 30.482 27.112C30.806 27.064 31.088 27.04 31.328 27.04C31.568 27.04 31.844 27.064 32.156 27.112C32.48 27.16 32.81 27.262 33.146 27.418C33.494 27.562 33.83 27.784 34.154 28.084C34.49 28.372 34.79 28.762 35.054 29.254C35.318 29.734 35.528 30.334 35.684 31.054C35.852 31.762 35.936 32.62 35.936 33.628C35.936 34.636 35.852 35.5 35.684 36.22C35.528 36.928 35.318 37.528 35.054 38.02C34.79 38.5 34.49 38.89 34.154 39.19C33.83 39.478 33.494 39.7 33.146 39.856C32.81 40 32.48 40.096 32.156 40.144C31.844 40.192 31.568 40.216 31.328 40.216C31.088 40.216 30.806 40.192 30.482 40.144C30.17 40.096 29.84 40 29.492 39.856C29.156 39.7 28.82 39.478 28.484 39.19C28.16 38.89 27.866 38.5 27.602 38.02C27.338 37.528 27.122 36.928 26.954 36.22C26.798 35.5 26.72 34.636 26.72 33.628ZM28.88 33.628C28.88 34.024 28.904 34.486 28.952 35.014C29.012 35.53 29.126 36.022 29.294 36.49C29.462 36.958 29.708 37.354 30.032 37.678C30.356 38.002 30.788 38.164 31.328 38.164C31.868 38.164 32.3 38.002 32.624 37.678C32.948 37.354 33.194 36.958 33.362 36.49C33.53 36.022 33.638 35.53 33.686 35.014C33.746 34.486 33.776 34.024 33.776 33.628C33.776 33.232 33.746 32.776 33.686 32.26C33.638 31.732 33.53 31.234 33.362 30.766C33.194 30.298 32.948 29.902 32.624 29.578C32.3 29.254 31.868 29.092 31.328 29.092C30.788 29.092 30.356 29.254 30.032 29.578C29.708 29.902 29.462 30.298 29.294 30.766C29.126 31.234 29.012 31.732 28.952 32.26C28.904 32.776 28.88 33.232 28.88 33.628ZM41.6563 29.74L39.2623 31.954L38.0023 30.46L41.8543 27.256H43.8163V40H41.6563V29.74ZM48.8887 38.74C48.8887 38.356 49.0267 38.026 49.3027 37.75C49.5907 37.474 49.9327 37.336 50.3287 37.336C50.7127 37.336 51.0487 37.468 51.3367 37.732C51.6247 37.996 51.7687 38.32 51.7687 38.704C51.7687 39.088 51.6247 39.418 51.3367 39.694C51.0607 39.97 50.7247 40.108 50.3287 40.108C50.1367 40.108 49.9507 40.072 49.7707 40C49.6027 39.928 49.4527 39.832 49.3207 39.712C49.1887 39.592 49.0807 39.448 48.9967 39.28C48.9247 39.112 48.8887 38.932 48.8887 38.74ZM66.345 29.992C66.105 29.644 65.781 29.392 65.373 29.236C64.977 29.068 64.557 28.984 64.113 28.984C63.849 28.984 63.591 29.014 63.339 29.074C63.099 29.134 62.877 29.23 62.673 29.362C62.481 29.494 62.325 29.668 62.205 29.884C62.085 30.088 62.025 30.334 62.025 30.622C62.025 31.054 62.175 31.384 62.475 31.612C62.775 31.84 63.147 32.038 63.591 32.206C64.035 32.374 64.521 32.536 65.049 32.692C65.577 32.848 66.063 33.064 66.507 33.34C66.951 33.616 67.323 33.982 67.623 34.438C67.923 34.894 68.073 35.5 68.073 36.256C68.073 36.94 67.947 37.54 67.695 38.056C67.443 38.56 67.101 38.98 66.669 39.316C66.249 39.652 65.757 39.904 65.193 40.072C64.629 40.24 64.035 40.324 63.411 40.324C62.619 40.324 61.857 40.192 61.125 39.928C60.393 39.664 59.763 39.22 59.235 38.596L60.945 36.94C61.221 37.36 61.581 37.69 62.025 37.93C62.481 38.158 62.961 38.272 63.465 38.272C63.729 38.272 63.993 38.236 64.257 38.164C64.521 38.092 64.761 37.984 64.977 37.84C65.193 37.696 65.367 37.516 65.499 37.3C65.631 37.072 65.697 36.814 65.697 36.526C65.697 36.058 65.547 35.698 65.247 35.446C64.947 35.194 64.575 34.984 64.131 34.816C63.687 34.636 63.201 34.468 62.673 34.312C62.145 34.156 61.659 33.946 61.215 33.682C60.771 33.406 60.399 33.046 60.099 32.602C59.799 32.146 59.649 31.54 59.649 30.784C59.649 30.124 59.781 29.554 60.045 29.074C60.321 28.594 60.675 28.198 61.107 27.886C61.551 27.562 62.055 27.322 62.619 27.166C63.183 27.01 63.759 26.932 64.347 26.932C65.019 26.932 65.667 27.034 66.291 27.238C66.927 27.442 67.497 27.778 68.001 28.246L66.345 29.992ZM69.409 33.196V31.36H71.191V28.858H73.351V31.36H75.727V33.196H73.351V36.976C73.351 37.408 73.429 37.75 73.585 38.002C73.753 38.254 74.077 38.38 74.557 38.38C74.749 38.38 74.959 38.362 75.187 38.326C75.415 38.278 75.595 38.206 75.727 38.11V39.928C75.499 40.036 75.217 40.108 74.881 40.144C74.557 40.192 74.269 40.216 74.017 40.216C73.441 40.216 72.967 40.15 72.595 40.018C72.235 39.898 71.947 39.712 71.731 39.46C71.527 39.196 71.383 38.872 71.299 38.488C71.227 38.104 71.191 37.66 71.191 37.156V33.196H69.409ZM82.9931 38.812H82.9391C82.6271 39.304 82.2311 39.664 81.7511 39.892C81.2711 40.108 80.7431 40.216 80.1671 40.216C79.7711 40.216 79.3811 40.162 78.9971 40.054C78.6251 39.946 78.2891 39.784 77.9891 39.568C77.7011 39.352 77.4671 39.082 77.2871 38.758C77.1071 38.434 77.0171 38.056 77.0171 37.624C77.0171 37.156 77.1011 36.76 77.2691 36.436C77.4371 36.1 77.6591 35.824 77.9351 35.608C78.2231 35.38 78.5531 35.2 78.9251 35.068C79.2971 34.936 79.6811 34.84 80.0771 34.78C80.4851 34.708 80.8931 34.666 81.3011 34.654C81.7091 34.63 82.0931 34.618 82.4531 34.618H82.9931V34.384C82.9931 33.844 82.8071 33.442 82.4351 33.178C82.0631 32.902 81.5891 32.764 81.0131 32.764C80.5571 32.764 80.1311 32.848 79.7351 33.016C79.3391 33.172 78.9971 33.388 78.7091 33.664L77.5751 32.53C78.0551 32.038 78.6131 31.684 79.2491 31.468C79.8971 31.252 80.5631 31.144 81.2471 31.144C81.8591 31.144 82.3751 31.216 82.7951 31.36C83.2151 31.492 83.5631 31.666 83.8391 31.882C84.1151 32.098 84.3251 32.35 84.4691 32.638C84.6251 32.914 84.7331 33.196 84.7931 33.484C84.8651 33.772 84.9071 34.054 84.9191 34.33C84.9311 34.594 84.9371 34.828 84.9371 35.032V40H82.9931V38.812ZM82.8671 36.13H82.4171C82.1171 36.13 81.7811 36.142 81.4091 36.166C81.0371 36.19 80.6831 36.25 80.3471 36.346C80.0231 36.43 79.7471 36.562 79.5191 36.742C79.2911 36.91 79.1771 37.15 79.1771 37.462C79.1771 37.666 79.2191 37.84 79.3031 37.984C79.3991 38.116 79.5191 38.23 79.6631 38.326C79.8071 38.422 79.9691 38.494 80.1491 38.542C80.3291 38.578 80.5091 38.596 80.6891 38.596C81.4331 38.596 81.9791 38.422 82.3271 38.074C82.6871 37.714 82.8671 37.228 82.8671 36.616V36.13ZM87.441 31.36H89.601V32.728H89.637C89.877 32.224 90.219 31.834 90.663 31.558C91.107 31.282 91.617 31.144 92.193 31.144C92.325 31.144 92.451 31.156 92.571 31.18C92.703 31.204 92.835 31.234 92.967 31.27V33.358C92.787 33.31 92.607 33.274 92.427 33.25C92.259 33.214 92.091 33.196 91.923 33.196C91.419 33.196 91.011 33.292 90.699 33.484C90.399 33.664 90.165 33.874 89.997 34.114C89.841 34.354 89.733 34.594 89.673 34.834C89.625 35.074 89.601 35.254 89.601 35.374V40H87.441V31.36ZM93.6091 33.196V31.36H95.3911V28.858H97.5511V31.36H99.9271V33.196H97.5511V36.976C97.5511 37.408 97.6291 37.75 97.7851 38.002C97.9531 38.254 98.2771 38.38 98.7571 38.38C98.9491 38.38 99.1591 38.362 99.3871 38.326C99.6151 38.278 99.7951 38.206 99.9271 38.11V39.928C99.6991 40.036 99.4171 40.108 99.0811 40.144C98.7571 40.192 98.4691 40.216 98.2171 40.216C97.6411 40.216 97.1671 40.15 96.7951 40.018C96.4351 39.898 96.1471 39.712 95.9311 39.46C95.7271 39.196 95.5831 38.872 95.4991 38.488C95.4271 38.104 95.3911 37.66 95.3911 37.156V33.196H93.6091Z" fill="black" fill-opacity="0.2"/>
        <path d="M26.72 33.628C26.72 32.62 26.798 31.762 26.954 31.054C27.122 30.334 27.338 29.734 27.602 29.254C27.866 28.762 28.16 28.372 28.484 28.084C28.82 27.784 29.156 27.562 29.492 27.418C29.84 27.262 30.17 27.16 30.482 27.112C30.806 27.064 31.088 27.04 31.328 27.04C31.568 27.04 31.844 27.064 32.156 27.112C32.48 27.16 32.81 27.262 33.146 27.418C33.494 27.562 33.83 27.784 34.154 28.084C34.49 28.372 34.79 28.762 35.054 29.254C35.318 29.734 35.528 30.334 35.684 31.054C35.852 31.762 35.936 32.62 35.936 33.628C35.936 34.636 35.852 35.5 35.684 36.22C35.528 36.928 35.318 37.528 35.054 38.02C34.79 38.5 34.49 38.89 34.154 39.19C33.83 39.478 33.494 39.7 33.146 39.856C32.81 40 32.48 40.096 32.156 40.144C31.844 40.192 31.568 40.216 31.328 40.216C31.088 40.216 30.806 40.192 30.482 40.144C30.17 40.096 29.84 40 29.492 39.856C29.156 39.7 28.82 39.478 28.484 39.19C28.16 38.89 27.866 38.5 27.602 38.02C27.338 37.528 27.122 36.928 26.954 36.22C26.798 35.5 26.72 34.636 26.72 33.628ZM28.88 33.628C28.88 34.024 28.904 34.486 28.952 35.014C29.012 35.53 29.126 36.022 29.294 36.49C29.462 36.958 29.708 37.354 30.032 37.678C30.356 38.002 30.788 38.164 31.328 38.164C31.868 38.164 32.3 38.002 32.624 37.678C32.948 37.354 33.194 36.958 33.362 36.49C33.53 36.022 33.638 35.53 33.686 35.014C33.746 34.486 33.776 34.024 33.776 33.628C33.776 33.232 33.746 32.776 33.686 32.26C33.638 31.732 33.53 31.234 33.362 30.766C33.194 30.298 32.948 29.902 32.624 29.578C32.3 29.254 31.868 29.092 31.328 29.092C30.788 29.092 30.356 29.254 30.032 29.578C29.708 29.902 29.462 30.298 29.294 30.766C29.126 31.234 29.012 31.732 28.952 32.26C28.904 32.776 28.88 33.232 28.88 33.628ZM41.6563 29.74L39.2623 31.954L38.0023 30.46L41.8543 27.256H43.8163V40H41.6563V29.74ZM48.8887 38.74C48.8887 38.356 49.0267 38.026 49.3027 37.75C49.5907 37.474 49.9327 37.336 50.3287 37.336C50.7127 37.336 51.0487 37.468 51.3367 37.732C51.6247 37.996 51.7687 38.32 51.7687 38.704C51.7687 39.088 51.6247 39.418 51.3367 39.694C51.0607 39.97 50.7247 40.108 50.3287 40.108C50.1367 40.108 49.9507 40.072 49.7707 40C49.6027 39.928 49.4527 39.832 49.3207 39.712C49.1887 39.592 49.0807 39.448 48.9967 39.28C48.9247 39.112 48.8887 38.932 48.8887 38.74ZM66.345 29.992C66.105 29.644 65.781 29.392 65.373 29.236C64.977 29.068 64.557 28.984 64.113 28.984C63.849 28.984 63.591 29.014 63.339 29.074C63.099 29.134 62.877 29.23 62.673 29.362C62.481 29.494 62.325 29.668 62.205 29.884C62.085 30.088 62.025 30.334 62.025 30.622C62.025 31.054 62.175 31.384 62.475 31.612C62.775 31.84 63.147 32.038 63.591 32.206C64.035 32.374 64.521 32.536 65.049 32.692C65.577 32.848 66.063 33.064 66.507 33.34C66.951 33.616 67.323 33.982 67.623 34.438C67.923 34.894 68.073 35.5 68.073 36.256C68.073 36.94 67.947 37.54 67.695 38.056C67.443 38.56 67.101 38.98 66.669 39.316C66.249 39.652 65.757 39.904 65.193 40.072C64.629 40.24 64.035 40.324 63.411 40.324C62.619 40.324 61.857 40.192 61.125 39.928C60.393 39.664 59.763 39.22 59.235 38.596L60.945 36.94C61.221 37.36 61.581 37.69 62.025 37.93C62.481 38.158 62.961 38.272 63.465 38.272C63.729 38.272 63.993 38.236 64.257 38.164C64.521 38.092 64.761 37.984 64.977 37.84C65.193 37.696 65.367 37.516 65.499 37.3C65.631 37.072 65.697 36.814 65.697 36.526C65.697 36.058 65.547 35.698 65.247 35.446C64.947 35.194 64.575 34.984 64.131 34.816C63.687 34.636 63.201 34.468 62.673 34.312C62.145 34.156 61.659 33.946 61.215 33.682C60.771 33.406 60.399 33.046 60.099 32.602C59.799 32.146 59.649 31.54 59.649 30.784C59.649 30.124 59.781 29.554 60.045 29.074C60.321 28.594 60.675 28.198 61.107 27.886C61.551 27.562 62.055 27.322 62.619 27.166C63.183 27.01 63.759 26.932 64.347 26.932C65.019 26.932 65.667 27.034 66.291 27.238C66.927 27.442 67.497 27.778 68.001 28.246L66.345 29.992ZM69.409 33.196V31.36H71.191V28.858H73.351V31.36H75.727V33.196H73.351V36.976C73.351 37.408 73.429 37.75 73.585 38.002C73.753 38.254 74.077 38.38 74.557 38.38C74.749 38.38 74.959 38.362 75.187 38.326C75.415 38.278 75.595 38.206 75.727 38.11V39.928C75.499 40.036 75.217 40.108 74.881 40.144C74.557 40.192 74.269 40.216 74.017 40.216C73.441 40.216 72.967 40.15 72.595 40.018C72.235 39.898 71.947 39.712 71.731 39.46C71.527 39.196 71.383 38.872 71.299 38.488C71.227 38.104 71.191 37.66 71.191 37.156V33.196H69.409ZM82.9931 38.812H82.9391C82.6271 39.304 82.2311 39.664 81.7511 39.892C81.2711 40.108 80.7431 40.216 80.1671 40.216C79.7711 40.216 79.3811 40.162 78.9971 40.054C78.6251 39.946 78.2891 39.784 77.9891 39.568C77.7011 39.352 77.4671 39.082 77.2871 38.758C77.1071 38.434 77.0171 38.056 77.0171 37.624C77.0171 37.156 77.1011 36.76 77.2691 36.436C77.4371 36.1 77.6591 35.824 77.9351 35.608C78.2231 35.38 78.5531 35.2 78.9251 35.068C79.2971 34.936 79.6811 34.84 80.0771 34.78C80.4851 34.708 80.8931 34.666 81.3011 34.654C81.7091 34.63 82.0931 34.618 82.4531 34.618H82.9931V34.384C82.9931 33.844 82.8071 33.442 82.4351 33.178C82.0631 32.902 81.5891 32.764 81.0131 32.764C80.5571 32.764 80.1311 32.848 79.7351 33.016C79.3391 33.172 78.9971 33.388 78.7091 33.664L77.5751 32.53C78.0551 32.038 78.6131 31.684 79.2491 31.468C79.8971 31.252 80.5631 31.144 81.2471 31.144C81.8591 31.144 82.3751 31.216 82.7951 31.36C83.2151 31.492 83.5631 31.666 83.8391 31.882C84.1151 32.098 84.3251 32.35 84.4691 32.638C84.6251 32.914 84.7331 33.196 84.7931 33.484C84.8651 33.772 84.9071 34.054 84.9191 34.33C84.9311 34.594 84.9371 34.828 84.9371 35.032V40H82.9931V38.812ZM82.8671 36.13H82.4171C82.1171 36.13 81.7811 36.142 81.4091 36.166C81.0371 36.19 80.6831 36.25 80.3471 36.346C80.0231 36.43 79.7471 36.562 79.5191 36.742C79.2911 36.91 79.1771 37.15 79.1771 37.462C79.1771 37.666 79.2191 37.84 79.3031 37.984C79.3991 38.116 79.5191 38.23 79.6631 38.326C79.8071 38.422 79.9691 38.494 80.1491 38.542C80.3291 38.578 80.5091 38.596 80.6891 38.596C81.4331 38.596 81.9791 38.422 82.3271 38.074C82.6871 37.714 82.8671 37.228 82.8671 36.616V36.13ZM87.441 31.36H89.601V32.728H89.637C89.877 32.224 90.219 31.834 90.663 31.558C91.107 31.282 91.617 31.144 92.193 31.144C92.325 31.144 92.451 31.156 92.571 31.18C92.703 31.204 92.835 31.234 92.967 31.27V33.358C92.787 33.31 92.607 33.274 92.427 33.25C92.259 33.214 92.091 33.196 91.923 33.196C91.419 33.196 91.011 33.292 90.699 33.484C90.399 33.664 90.165 33.874 89.997 34.114C89.841 34.354 89.733 34.594 89.673 34.834C89.625 35.074 89.601 35.254 89.601 35.374V40H87.441V31.36ZM93.6091 33.196V31.36H95.3911V28.858H97.5511V31.36H99.9271V33.196H97.5511V36.976C97.5511 37.408 97.6291 37.75 97.7851 38.002C97.9531 38.254 98.2771 38.38 98.7571 38.38C98.9491 38.38 99.1591 38.362 99.3871 38.326C99.6151 38.278 99.7951 38.206 99.9271 38.11V39.928C99.6991 40.036 99.4171 40.108 99.0811 40.144C98.7571 40.192 98.4691 40.216 98.2171 40.216C97.6411 40.216 97.1671 40.15 96.7951 40.018C96.4351 39.898 96.1471 39.712 95.9311 39.46C95.7271 39.196 95.5831 38.872 95.4991 38.488C95.4271 38.104 95.3911 37.66 95.3911 37.156V33.196H93.6091Z" fill="black" fill-opacity="0.2"/>
        <rect x="27.5" y="56" width="40" height="40" rx="20" fill="#EDF9E8"/>
        <mask id="mask0_176_253" style="mask-type:alpha" maskUnits="userSpaceOnUse" x="35" y="64" width="25" height="24">
            <rect x="35.5" y="64" width="24" height="24" fill="#D9D9D9"/>
        </mask>
        <g mask="url(#mask0_176_253)">
            <path d="M51.1923 76.3845L47.4271 72.777C46.9872 72.3538 46.6202 71.8805 46.3261 71.357C46.0317 70.8333 45.8846 70.2631 45.8846 69.6462C45.8846 68.9111 46.1419 68.2862 46.6566 67.7717C47.1711 67.2572 47.7958 67 48.5308 67C49.077 67 49.5738 67.1477 50.0213 67.4432C50.4686 67.7387 50.859 68.0974 51.1923 68.5193C51.5256 68.0974 51.9161 67.7387 52.3636 67.4432C52.8109 67.1477 53.3076 67 53.8538 67C54.589 67 55.2138 67.2572 55.7283 67.7717C56.2428 68.2862 56.5001 68.9111 56.5001 69.6462C56.5001 70.2631 56.3539 70.8333 56.0616 71.357C55.7692 71.8805 55.4032 72.3538 54.9636 72.777L51.1923 76.3845ZM51.1923 75.0078L54.1866 72.1405C54.5417 71.7982 54.8494 71.419 55.1096 71.003C55.3699 70.5868 55.5001 70.1346 55.5001 69.6462C55.5001 69.1897 55.3398 68.8012 55.0193 68.4807C54.6988 68.1602 54.3103 68 53.8538 68C53.4538 68 53.0952 68.1196 52.7781 68.3587C52.4607 68.5977 52.1757 68.8794 51.9231 69.2038L51.1923 70.1193L50.4616 69.2038C50.2091 68.8794 49.9241 68.5977 49.6068 68.3587C49.2895 68.1196 48.9308 68 48.5308 68C48.0745 68 47.6861 68.1602 47.3656 68.4807C47.0449 68.8012 46.8846 69.1897 46.8846 69.6462C46.8846 70.1346 47.0147 70.5868 47.2751 71.003C47.5354 71.419 47.8431 71.7982 48.1981 72.1405L51.1923 75.0078ZM41.9038 82.6538L49.4693 84.8615L55.4578 83.0115C55.4385 82.7077 55.3477 82.4888 55.1856 82.3548C55.0232 82.2208 54.8396 82.1538 54.6346 82.1538H49.8901C49.4672 82.1538 49.0841 82.1371 48.7406 82.1038C48.3969 82.0704 48.0449 81.991 47.6846 81.8655L45.4943 81.148L45.8328 80.1595L47.8578 80.8923C48.1796 81.0141 48.545 81.0872 48.9538 81.1115C49.3628 81.1358 49.9231 81.1499 50.6346 81.1538C50.6346 80.8423 50.5772 80.5903 50.4626 80.398C50.3479 80.2057 50.1835 80.0717 49.9693 79.9962L44.2156 77.8845C44.1771 77.8718 44.1417 77.8623 44.1096 77.8558C44.0776 77.8494 44.0423 77.8463 44.0038 77.8463H41.9038V82.6538ZM37.9038 85V76.8463H43.9813C44.0746 76.8463 44.1706 76.8567 44.2693 76.8777C44.368 76.8989 44.4596 76.9237 44.5443 76.952L50.3231 79.0693C50.6807 79.2051 50.9887 79.4493 51.2471 79.802C51.5054 80.1545 51.6346 80.6051 51.6346 81.1538H54.6346C55.2372 81.1538 55.6988 81.3423 56.0193 81.7193C56.3398 82.0961 56.5001 82.5743 56.5001 83.1538V83.7693L49.5193 85.923L41.9038 83.7038V85H37.9038ZM38.9038 84H40.9038V77.8463H38.9038V84Z" fill="#7E7E7E"/>
        </g>
        <path d="M34.176 102.132C33.8773 101.731 33.5087 101.432 33.07 101.236C32.6313 101.031 32.174 100.928 31.698 100.928C31.1473 100.928 30.6387 101.04 30.172 101.264C29.7147 101.488 29.318 101.791 28.982 102.174C28.646 102.547 28.3847 102.986 28.198 103.49C28.0113 103.985 27.918 104.503 27.918 105.044C27.918 105.623 28.0113 106.164 28.198 106.668C28.3847 107.163 28.6413 107.597 28.968 107.97C29.304 108.334 29.7007 108.623 30.158 108.838C30.6247 109.053 31.138 109.16 31.698 109.16C32.3047 109.16 32.846 109.043 33.322 108.81C33.798 108.567 34.2133 108.222 34.568 107.774L35.45 108.516C35.002 109.113 34.4607 109.552 33.826 109.832C33.2007 110.112 32.4913 110.252 31.698 110.252C30.9887 110.252 30.326 110.121 29.71 109.86C29.094 109.599 28.5573 109.239 28.1 108.782C27.652 108.315 27.2973 107.765 27.036 107.13C26.784 106.495 26.658 105.8 26.658 105.044C26.658 104.316 26.7793 103.635 27.022 103C27.274 102.365 27.624 101.815 28.072 101.348C28.52 100.881 29.052 100.513 29.668 100.242C30.284 99.9713 30.9607 99.836 31.698 99.836C32.37 99.836 33.014 99.9573 33.63 100.2C34.2553 100.443 34.778 100.839 35.198 101.39L34.176 102.132ZM37.0334 105.002C37.0334 104.703 37.0241 104.423 37.0054 104.162C36.9868 103.901 36.9774 103.663 36.9774 103.448H38.0134C38.0134 103.625 38.0181 103.803 38.0274 103.98C38.0368 104.157 38.0414 104.339 38.0414 104.526H38.0694C38.1441 104.367 38.2468 104.213 38.3774 104.064C38.5174 103.915 38.6808 103.784 38.8674 103.672C39.0541 103.551 39.2641 103.457 39.4974 103.392C39.7308 103.317 39.9828 103.28 40.2534 103.28C40.3281 103.28 40.4028 103.285 40.4774 103.294C40.5521 103.303 40.6268 103.322 40.7014 103.35L40.6314 104.456C40.4448 104.4 40.2488 104.372 40.0434 104.372C39.3714 104.372 38.8814 104.591 38.5734 105.03C38.2748 105.459 38.1254 106.052 38.1254 106.808V110H37.0334V105.002ZM47.7012 108.81C47.3092 109.314 46.8799 109.669 46.4132 109.874C45.9465 110.07 45.4052 110.168 44.7892 110.168C44.2759 110.168 43.8139 110.079 43.4032 109.902C42.9925 109.715 42.6425 109.468 42.3532 109.16C42.0732 108.852 41.8539 108.488 41.6952 108.068C41.5459 107.648 41.4712 107.2 41.4712 106.724C41.4712 106.22 41.5552 105.758 41.7232 105.338C41.8912 104.909 42.1245 104.545 42.4232 104.246C42.7219 103.938 43.0765 103.7 43.4872 103.532C43.8979 103.364 44.3459 103.28 44.8312 103.28C45.2885 103.28 45.7085 103.359 46.0912 103.518C46.4739 103.667 46.8005 103.891 47.0712 104.19C47.3512 104.479 47.5659 104.839 47.7152 105.268C47.8645 105.688 47.9392 106.169 47.9392 106.71V107.06H42.6472C42.6659 107.34 42.7312 107.611 42.8432 107.872C42.9645 108.124 43.1185 108.348 43.3052 108.544C43.4919 108.731 43.7112 108.88 43.9632 108.992C44.2152 109.104 44.4905 109.16 44.7892 109.16C45.2652 109.16 45.6665 109.076 45.9932 108.908C46.3199 108.74 46.6139 108.493 46.8752 108.166L47.7012 108.81ZM46.7632 106.136C46.7445 105.576 46.5625 105.128 46.2172 104.792C45.8719 104.456 45.3959 104.288 44.7892 104.288C44.1825 104.288 43.6925 104.456 43.3192 104.792C42.9459 105.128 42.7219 105.576 42.6472 106.136H46.7632ZM49.6845 104.288C50.0205 103.943 50.4172 103.691 50.8745 103.532C51.3412 103.364 51.8125 103.28 52.2885 103.28C53.2592 103.28 53.9592 103.509 54.3885 103.966C54.8178 104.423 55.0325 105.119 55.0325 106.052V108.866C55.0325 109.053 55.0418 109.249 55.0605 109.454C55.0792 109.65 55.1025 109.832 55.1305 110H54.0805C54.0432 109.851 54.0198 109.687 54.0105 109.51C54.0105 109.323 54.0105 109.16 54.0105 109.02H53.9825C53.7678 109.356 53.4785 109.631 53.1145 109.846C52.7598 110.061 52.3305 110.168 51.8265 110.168C51.4905 110.168 51.1732 110.126 50.8745 110.042C50.5852 109.958 50.3285 109.837 50.1045 109.678C49.8898 109.51 49.7172 109.305 49.5865 109.062C49.4558 108.819 49.3905 108.539 49.3905 108.222C49.3905 107.681 49.5305 107.256 49.8105 106.948C50.0905 106.64 50.4358 106.411 50.8465 106.262C51.2665 106.113 51.7145 106.019 52.1905 105.982C52.6758 105.945 53.1192 105.926 53.5205 105.926H53.9405V105.73C53.9405 105.254 53.7958 104.895 53.5065 104.652C53.2265 104.409 52.8298 104.288 52.3165 104.288C51.9618 104.288 51.6118 104.349 51.2665 104.47C50.9305 104.582 50.6318 104.759 50.3705 105.002L49.6845 104.288ZM52.8485 106.85C52.1485 106.85 51.5932 106.948 51.1825 107.144C50.7718 107.34 50.5665 107.662 50.5665 108.11C50.5665 108.521 50.7018 108.815 50.9725 108.992C51.2525 109.16 51.5978 109.244 52.0085 109.244C52.3258 109.244 52.6012 109.193 52.8345 109.09C53.0772 108.978 53.2778 108.833 53.4365 108.656C53.5952 108.479 53.7165 108.273 53.8005 108.04C53.8845 107.797 53.9312 107.541 53.9405 107.27V106.85H52.8485ZM60.7523 104.372H58.8203V107.648C58.8203 107.863 58.8249 108.063 58.8343 108.25C58.8436 108.427 58.8809 108.586 58.9463 108.726C59.0116 108.857 59.1096 108.964 59.2403 109.048C59.3709 109.123 59.5576 109.16 59.8003 109.16C59.9589 109.16 60.1223 109.141 60.2903 109.104C60.4583 109.067 60.6169 109.011 60.7663 108.936L60.8083 109.93C60.6216 110.014 60.4116 110.075 60.1783 110.112C59.9543 110.149 59.7396 110.168 59.5343 110.168C59.1423 110.168 58.8296 110.117 58.5963 110.014C58.3629 109.911 58.1809 109.767 58.0503 109.58C57.9196 109.393 57.8309 109.165 57.7843 108.894C57.7469 108.614 57.7283 108.306 57.7283 107.97V104.372H56.3003V103.448H57.7283V101.586H58.8203V103.448H60.7523V104.372ZM68.0821 108.81C67.6901 109.314 67.2608 109.669 66.7941 109.874C66.3275 110.07 65.7861 110.168 65.1701 110.168C64.6568 110.168 64.1948 110.079 63.7841 109.902C63.3735 109.715 63.0235 109.468 62.7341 109.16C62.4541 108.852 62.2348 108.488 62.0761 108.068C61.9268 107.648 61.8521 107.2 61.8521 106.724C61.8521 106.22 61.9361 105.758 62.1041 105.338C62.2721 104.909 62.5055 104.545 62.8041 104.246C63.1028 103.938 63.4575 103.7 63.8681 103.532C64.2788 103.364 64.7268 103.28 65.2121 103.28C65.6695 103.28 66.0895 103.359 66.4721 103.518C66.8548 103.667 67.1815 103.891 67.4521 104.19C67.7321 104.479 67.9468 104.839 68.0961 105.268C68.2455 105.688 68.3201 106.169 68.3201 106.71V107.06H63.0281C63.0468 107.34 63.1121 107.611 63.2241 107.872C63.3455 108.124 63.4995 108.348 63.6861 108.544C63.8728 108.731 64.0921 108.88 64.3441 108.992C64.5961 109.104 64.8715 109.16 65.1701 109.16C65.6461 109.16 66.0475 109.076 66.3741 108.908C66.7008 108.74 66.9948 108.493 67.2561 108.166L68.0821 108.81ZM67.1441 106.136C67.1255 105.576 66.9435 105.128 66.5981 104.792C66.2528 104.456 65.7768 104.288 65.1701 104.288C64.5635 104.288 64.0735 104.456 63.7001 104.792C63.3268 105.128 63.1028 105.576 63.0281 106.136H67.1441Z" fill="#7E7E7E"/>
        <path d="M110.354 86.3536C110.549 86.1583 110.549 85.8417 110.354 85.6464L107.172 82.4645C106.976 82.2692 106.66 82.2692 106.464 82.4645C106.269 82.6597 106.269 82.9763 106.464 83.1716L109.293 86L106.464 88.8284C106.269 89.0237 106.269 89.3403 106.464 89.5355C106.66 89.7308 106.976 89.7308 107.172 89.5355L110.354 86.3536ZM86 86.5H110V85.5H86V86.5Z" fill="#7E7E7E"/>
        <rect x="130" y="56" width="40" height="40" rx="20" fill="#EDF9E8"/>
        <mask id="mask1_176_253" style="mask-type:alpha" maskUnits="userSpaceOnUse" x="138" y="64" width="24" height="24">
            <rect x="138" y="64" width="24" height="24" fill="#D9D9D9"/>
        </mask>
        <g mask="url(#mask1_176_253)">
            <path d="M147.385 72.3845V71.3845H155.616V72.3845H147.385ZM147.385 75.1538V74.1538H155.616V75.1538H147.385ZM149.846 85H144C143.436 85 142.962 84.8077 142.577 84.423C142.192 84.0385 142 83.5642 142 83V80.2308H145V67H158V74.8905C157.821 74.8955 157.65 74.9143 157.488 74.947C157.325 74.9798 157.163 75.0263 157 75.0865V68H146V80.2308H151.346L150.346 81.2308H143V83C143 83.2833 143.096 83.5208 143.288 83.7125C143.479 83.9042 143.717 84 144 84H149.846V85ZM152.231 85V82.7905L157.563 77.4827C157.662 77.3839 157.765 77.3173 157.871 77.2828C157.978 77.2481 158.084 77.2308 158.191 77.2308C158.301 77.2308 158.412 77.2522 158.525 77.2952C158.638 77.3381 158.737 77.4025 158.823 77.4885L159.748 78.4327C159.83 78.5314 159.893 78.634 159.935 78.7405C159.978 78.8468 160 78.9532 160 79.0595C160 79.166 159.979 79.2734 159.938 79.3818C159.897 79.4901 159.834 79.5936 159.748 79.6923L154.441 85H152.231ZM153.116 84.1155H154.066L157.533 80.6423L157.063 80.1673L156.608 79.6788L153.116 83.1655V84.1155ZM157.063 80.1673L156.608 79.6788L157.533 80.6423L157.063 80.1673Z" fill="#7E7E7E"/>
        </g>
        <path d="M128.232 100.088H130.766C131.242 100.088 131.713 100.116 132.18 100.172C132.656 100.228 133.081 100.349 133.454 100.536C133.827 100.723 134.131 100.998 134.364 101.362C134.597 101.717 134.714 102.202 134.714 102.818C134.714 103.546 134.495 104.134 134.056 104.582C133.617 105.03 133.011 105.315 132.236 105.436L135.05 110H133.608L130.92 105.548H129.408V110H128.232V100.088ZM129.408 104.456H130.458C130.785 104.456 131.121 104.447 131.466 104.428C131.821 104.409 132.143 104.349 132.432 104.246C132.731 104.143 132.973 103.985 133.16 103.77C133.356 103.546 133.454 103.229 133.454 102.818C133.454 102.463 133.384 102.179 133.244 101.964C133.104 101.749 132.917 101.586 132.684 101.474C132.46 101.353 132.203 101.273 131.914 101.236C131.634 101.199 131.349 101.18 131.06 101.18H129.408V104.456ZM142.587 108.81C142.195 109.314 141.765 109.669 141.299 109.874C140.832 110.07 140.291 110.168 139.675 110.168C139.161 110.168 138.699 110.079 138.289 109.902C137.878 109.715 137.528 109.468 137.239 109.16C136.959 108.852 136.739 108.488 136.581 108.068C136.431 107.648 136.357 107.2 136.357 106.724C136.357 106.22 136.441 105.758 136.609 105.338C136.777 104.909 137.01 104.545 137.309 104.246C137.607 103.938 137.962 103.7 138.373 103.532C138.783 103.364 139.231 103.28 139.717 103.28C140.174 103.28 140.594 103.359 140.977 103.518C141.359 103.667 141.686 103.891 141.957 104.19C142.237 104.479 142.451 104.839 142.601 105.268C142.75 105.688 142.825 106.169 142.825 106.71V107.06H137.533C137.551 107.34 137.617 107.611 137.729 107.872C137.85 108.124 138.004 108.348 138.191 108.544C138.377 108.731 138.597 108.88 138.849 108.992C139.101 109.104 139.376 109.16 139.675 109.16C140.151 109.16 140.552 109.076 140.879 108.908C141.205 108.74 141.499 108.493 141.761 108.166L142.587 108.81ZM141.649 106.136C141.63 105.576 141.448 105.128 141.103 104.792C140.757 104.456 140.281 104.288 139.675 104.288C139.068 104.288 138.578 104.456 138.205 104.792C137.831 105.128 137.607 105.576 137.533 106.136H141.649ZM147.636 110H146.432L143.758 103.448H145.032L147.076 108.586H147.104L149.05 103.448H150.226L147.636 110ZM151.646 103.448H152.738V110H151.646V103.448ZM151.394 100.886C151.394 100.671 151.468 100.485 151.618 100.326C151.776 100.167 151.968 100.088 152.192 100.088C152.416 100.088 152.602 100.167 152.752 100.326C152.91 100.485 152.99 100.671 152.99 100.886C152.99 101.119 152.915 101.311 152.766 101.46C152.616 101.609 152.425 101.684 152.192 101.684C151.958 101.684 151.767 101.609 151.618 101.46C151.468 101.311 151.394 101.119 151.394 100.886ZM160.903 108.81C160.511 109.314 160.082 109.669 159.615 109.874C159.148 110.07 158.607 110.168 157.991 110.168C157.478 110.168 157.016 110.079 156.605 109.902C156.194 109.715 155.844 109.468 155.555 109.16C155.275 108.852 155.056 108.488 154.897 108.068C154.748 107.648 154.673 107.2 154.673 106.724C154.673 106.22 154.757 105.758 154.925 105.338C155.093 104.909 155.326 104.545 155.625 104.246C155.924 103.938 156.278 103.7 156.689 103.532C157.1 103.364 157.548 103.28 158.033 103.28C158.49 103.28 158.91 103.359 159.293 103.518C159.676 103.667 160.002 103.891 160.273 104.19C160.553 104.479 160.768 104.839 160.917 105.268C161.066 105.688 161.141 106.169 161.141 106.71V107.06H155.849C155.868 107.34 155.933 107.611 156.045 107.872C156.166 108.124 156.32 108.348 156.507 108.544C156.694 108.731 156.913 108.88 157.165 108.992C157.417 109.104 157.692 109.16 157.991 109.16C158.467 109.16 158.868 109.076 159.195 108.908C159.522 108.74 159.816 108.493 160.077 108.166L160.903 108.81ZM159.965 106.136C159.946 105.576 159.764 105.128 159.419 104.792C159.074 104.456 158.598 104.288 157.991 104.288C157.384 104.288 156.894 104.456 156.521 104.792C156.148 105.128 155.924 105.576 155.849 106.136H159.965ZM169.998 110H168.92L167.058 104.96H167.03L165.378 110H164.258L162.13 103.448H163.334L164.832 108.488H164.86L166.554 103.448H167.702L169.424 108.488H169.452L170.936 103.448H172.112L169.998 110Z" fill="#7E7E7E"/>
        <path d="M214.354 86.3536C214.549 86.1583 214.549 85.8417 214.354 85.6464L211.172 82.4645C210.976 82.2692 210.66 82.2692 210.464 82.4645C210.269 82.6597 210.269 82.9763 210.464 83.1716L213.293 86L210.464 88.8284C210.269 89.0237 210.269 89.3403 210.464 89.5355C210.66 89.7308 210.976 89.7308 211.172 89.5355L214.354 86.3536ZM190 86.5H214V85.5H190V86.5Z" fill="#7E7E7E"/>
        <rect x="234" y="56" width="40" height="40" rx="20" fill="#EDF9E8"/>
        <mask id="mask2_176_253" style="mask-type:alpha" maskUnits="userSpaceOnUse" x="242" y="64" width="24" height="24">
            <rect x="242" y="64" width="24" height="24" fill="#D9D9D9"/>
        </mask>
        <g mask="url(#mask2_176_253)">
            <path d="M252.5 84.873C251.413 84.6757 250.41 84.3107 249.491 83.778C248.573 83.2452 247.78 82.5874 247.112 81.8048C246.445 81.0221 245.926 80.1359 245.556 79.1463C245.185 78.1564 245 77.1077 245 76C245 74.5603 245.311 73.2213 245.932 71.9828C246.553 70.7443 247.485 69.6603 248.727 68.7308H245.75V67.7308H250.5V72.4808H249.5V69.4095C248.327 70.2198 247.45 71.1978 246.87 72.3433C246.29 73.4888 246 74.7077 246 76C246 77.909 246.597 79.5965 247.791 81.0625C248.986 82.5285 250.555 83.457 252.5 83.848V84.873ZM252.575 79.9078L249.042 76.3693L249.75 75.6615L252.575 78.4865L258.25 72.8115L258.958 73.525L252.575 79.9078ZM257.5 84.2885V79.5385H258.5V82.6095C259.66 81.7827 260.534 80.7974 261.12 79.6538C261.707 78.5103 262 77.2923 262 76C262 74.091 261.403 72.4035 260.209 70.9375C259.014 69.4715 257.445 68.543 255.5 68.152V67.127C257.687 67.518 259.484 68.5366 260.891 70.1828C262.297 71.8289 263 73.768 263 76C263 77.4397 262.689 78.782 262.068 80.027C261.447 81.2718 260.515 82.359 259.273 83.2885H262.25V84.2885H257.5Z" fill="#7E7E7E"/>
        </g>
        <path d="M232.232 100.088H235.172C235.629 100.088 236.063 100.135 236.474 100.228C236.894 100.312 237.263 100.461 237.58 100.676C237.907 100.881 238.163 101.161 238.35 101.516C238.546 101.861 238.644 102.291 238.644 102.804C238.644 103.345 238.541 103.793 238.336 104.148C238.131 104.503 237.865 104.783 237.538 104.988C237.221 105.193 236.871 105.338 236.488 105.422C236.105 105.506 235.741 105.548 235.396 105.548H233.408V110H232.232V100.088ZM233.408 104.456H235.396C235.984 104.456 236.46 104.325 236.824 104.064C237.197 103.793 237.384 103.378 237.384 102.818C237.384 102.258 237.197 101.847 236.824 101.586C236.46 101.315 235.984 101.18 235.396 101.18H233.408V104.456ZM246.187 108.446C246.187 108.745 246.196 109.025 246.215 109.286C246.233 109.547 246.243 109.785 246.243 110H245.207C245.207 109.823 245.202 109.645 245.193 109.468C245.183 109.291 245.179 109.109 245.179 108.922H245.151C245.076 109.081 244.969 109.235 244.829 109.384C244.698 109.533 244.539 109.669 244.353 109.79C244.166 109.902 243.956 109.991 243.723 110.056C243.489 110.131 243.237 110.168 242.967 110.168C242.537 110.168 242.164 110.103 241.847 109.972C241.539 109.841 241.282 109.659 241.077 109.426C240.871 109.193 240.717 108.913 240.615 108.586C240.521 108.25 240.475 107.886 240.475 107.494V103.448H241.567V107.382C241.567 107.933 241.688 108.367 241.931 108.684C242.173 109.001 242.551 109.16 243.065 109.16C243.419 109.16 243.723 109.099 243.975 108.978C244.236 108.857 244.446 108.684 244.605 108.46C244.773 108.236 244.894 107.97 244.969 107.662C245.053 107.354 245.095 107.013 245.095 106.64V103.448H246.187V108.446ZM248.338 99.416H249.43V104.4H249.458C249.757 104.045 250.102 103.77 250.494 103.574C250.895 103.378 251.334 103.28 251.81 103.28C252.323 103.28 252.79 103.369 253.21 103.546C253.639 103.714 254.003 103.952 254.302 104.26C254.601 104.568 254.834 104.932 255.002 105.352C255.17 105.772 255.254 106.229 255.254 106.724C255.254 107.219 255.17 107.676 255.002 108.096C254.834 108.516 254.601 108.88 254.302 109.188C254.013 109.496 253.667 109.739 253.266 109.916C252.865 110.084 252.435 110.168 251.978 110.168C251.39 110.168 250.872 110.042 250.424 109.79C249.985 109.529 249.663 109.211 249.458 108.838H249.43V110H248.338V99.416ZM249.43 106.724C249.43 107.069 249.481 107.391 249.584 107.69C249.696 107.979 249.855 108.236 250.06 108.46C250.265 108.675 250.508 108.847 250.788 108.978C251.077 109.099 251.399 109.16 251.754 109.16C252.109 109.16 252.426 109.099 252.706 108.978C252.995 108.847 253.243 108.675 253.448 108.46C253.653 108.236 253.807 107.979 253.91 107.69C254.022 107.391 254.078 107.069 254.078 106.724C254.078 106.379 254.022 106.061 253.91 105.772C253.807 105.473 253.653 105.217 253.448 105.002C253.243 104.778 252.995 104.605 252.706 104.484C252.426 104.353 252.109 104.288 251.754 104.288C251.399 104.288 251.077 104.353 250.788 104.484C250.508 104.605 250.265 104.778 250.06 105.002C249.855 105.217 249.696 105.473 249.584 105.772C249.481 106.061 249.43 106.379 249.43 106.724ZM257.191 99.416H258.283V110H257.191V99.416ZM260.708 103.448H261.8V110H260.708V103.448ZM260.456 100.886C260.456 100.671 260.53 100.485 260.68 100.326C260.838 100.167 261.03 100.088 261.254 100.088C261.478 100.088 261.664 100.167 261.814 100.326C261.972 100.485 262.052 100.671 262.052 100.886C262.052 101.119 261.977 101.311 261.828 101.46C261.678 101.609 261.487 101.684 261.254 101.684C261.02 101.684 260.829 101.609 260.68 101.46C260.53 101.311 260.456 101.119 260.456 100.886ZM264.253 108.278C264.468 108.549 264.701 108.763 264.953 108.922C265.214 109.081 265.541 109.16 265.933 109.16C266.101 109.16 266.269 109.141 266.437 109.104C266.614 109.067 266.773 109.006 266.913 108.922C267.053 108.838 267.165 108.735 267.249 108.614C267.333 108.483 267.375 108.329 267.375 108.152C267.375 107.975 267.333 107.83 267.249 107.718C267.174 107.606 267.072 107.513 266.941 107.438C266.81 107.354 266.661 107.289 266.493 107.242C266.325 107.195 266.152 107.153 265.975 107.116C265.667 107.051 265.373 106.976 265.093 106.892C264.813 106.808 264.566 106.701 264.351 106.57C264.146 106.43 263.978 106.253 263.847 106.038C263.726 105.823 263.665 105.548 263.665 105.212C263.665 104.895 263.735 104.615 263.875 104.372C264.015 104.129 264.202 103.929 264.435 103.77C264.668 103.611 264.93 103.49 265.219 103.406C265.508 103.322 265.807 103.28 266.115 103.28C266.582 103.28 267.011 103.373 267.403 103.56C267.804 103.747 268.117 104.05 268.341 104.47L267.431 105.072C267.291 104.839 267.104 104.652 266.871 104.512C266.647 104.363 266.372 104.288 266.045 104.288C265.896 104.288 265.742 104.307 265.583 104.344C265.434 104.381 265.298 104.437 265.177 104.512C265.056 104.587 264.953 104.685 264.869 104.806C264.794 104.918 264.757 105.049 264.757 105.198C264.757 105.338 264.799 105.459 264.883 105.562C264.976 105.655 265.098 105.739 265.247 105.814C265.406 105.889 265.583 105.954 265.779 106.01C265.984 106.066 266.194 106.113 266.409 106.15C266.698 106.206 266.974 106.281 267.235 106.374C267.496 106.458 267.725 106.575 267.921 106.724C268.117 106.873 268.271 107.06 268.383 107.284C268.495 107.508 268.551 107.783 268.551 108.11C268.551 108.483 268.476 108.801 268.327 109.062C268.178 109.323 267.977 109.538 267.725 109.706C267.482 109.865 267.202 109.981 266.885 110.056C266.577 110.131 266.26 110.168 265.933 110.168C265.373 110.168 264.888 110.084 264.477 109.916C264.076 109.739 263.712 109.417 263.385 108.95L264.253 108.278ZM270.214 99.416H271.306V104.358H271.334C271.409 104.227 271.511 104.101 271.642 103.98C271.773 103.849 271.927 103.733 272.104 103.63C272.291 103.527 272.496 103.443 272.72 103.378C272.944 103.313 273.182 103.28 273.434 103.28C273.863 103.28 274.232 103.345 274.54 103.476C274.857 103.607 275.119 103.789 275.324 104.022C275.529 104.255 275.679 104.54 275.772 104.876C275.875 105.203 275.926 105.562 275.926 105.954V110H274.834V106.066C274.834 105.515 274.713 105.081 274.47 104.764C274.227 104.447 273.849 104.288 273.336 104.288C272.981 104.288 272.673 104.349 272.412 104.47C272.16 104.591 271.95 104.764 271.782 104.988C271.623 105.212 271.502 105.478 271.418 105.786C271.343 106.094 271.306 106.435 271.306 106.808V110H270.214V99.416Z" fill="#7E7E7E"/>
    </g>
    <defs>
        <filter id="filter0_d_176_253" x="0" y="0" width="312" height="160" filterUnits="userSpaceOnUse" color-interpolation-filters="sRGB">
            <feFlood flood-opacity="0" result="BackgroundImageFix"/>
            <feColorMatrix in="SourceAlpha" type="matrix" values="0 0 0 0 0 0 0 0 0 0 0 0 0 0 0 0 0 0 127 0" result="hardAlpha"/>
            <feOffset dy="6"/>
            <feGaussianBlur stdDeviation="5"/>
            <feComposite in2="hardAlpha" operator="out"/>
            <feColorMatrix type="matrix" values="0 0 0 0 0 0 0 0 0 0 0 0 0 0 0 0 0 0 0.05 0"/>
            <feBlend mode="normal" in2="BackgroundImageFix" result="effect1_dropShadow_176_253"/>
            <feBlend mode="normal" in="SourceGraphic" in2="effect1_dropShadow_176_253" result="shape"/>
        </filter>
    </defs>
</svg>
