<svg width="302" height="156" viewBox="0 0 302 156" fill="none" xmlns="http://www.w3.org/2000/svg">
    <g filter="url(#filter0_d_12_3)">
        <path d="M290 0H22C15.3726 0 10 5.37258 10 12V128C10 134.627 15.3726 140 22 140H290C296.627 140 302 134.627 302 128V12C302 5.37258 296.627 0 290 0Z" fill="#FDFFFB"/>
        <path d="M26.72 29.628C26.72 28.62 26.798 27.762 26.954 27.054C27.122 26.334 27.338 25.734 27.602 25.254C27.866 24.762 28.16 24.372 28.484 24.084C28.82 23.784 29.156 23.562 29.492 23.418C29.84 23.262 30.17 23.16 30.482 23.112C30.806 23.064 31.088 23.04 31.328 23.04C31.568 23.04 31.844 23.064 32.156 23.112C32.48 23.16 32.81 23.262 33.146 23.418C33.494 23.562 33.83 23.784 34.154 24.084C34.49 24.372 34.79 24.762 35.054 25.254C35.318 25.734 35.528 26.334 35.684 27.054C35.852 27.762 35.936 28.62 35.936 29.628C35.936 30.636 35.852 31.5 35.684 32.22C35.528 32.928 35.318 33.528 35.054 34.02C34.79 34.5 34.49 34.89 34.154 35.19C33.83 35.478 33.494 35.7 33.146 35.856C32.81 36 32.48 36.096 32.156 36.144C31.844 36.192 31.568 36.216 31.328 36.216C31.088 36.216 30.806 36.192 30.482 36.144C30.17 36.096 29.84 36 29.492 35.856C29.156 35.7 28.82 35.478 28.484 35.19C28.16 34.89 27.866 34.5 27.602 34.02C27.338 33.528 27.122 32.928 26.954 32.22C26.798 31.5 26.72 30.636 26.72 29.628ZM28.88 29.628C28.88 30.024 28.904 30.486 28.952 31.014C29.012 31.53 29.126 32.022 29.294 32.49C29.462 32.958 29.708 33.354 30.032 33.678C30.356 34.002 30.788 34.164 31.328 34.164C31.868 34.164 32.3 34.002 32.624 33.678C32.948 33.354 33.194 32.958 33.362 32.49C33.53 32.022 33.638 31.53 33.686 31.014C33.746 30.486 33.776 30.024 33.776 29.628C33.776 29.232 33.746 28.776 33.686 28.26C33.638 27.732 33.53 27.234 33.362 26.766C33.194 26.298 32.948 25.902 32.624 25.578C32.3 25.254 31.868 25.092 31.328 25.092C30.788 25.092 30.356 25.254 30.032 25.578C29.708 25.902 29.462 26.298 29.294 26.766C29.126 27.234 29.012 27.732 28.952 28.26C28.904 28.776 28.88 29.232 28.88 29.628ZM40.8283 28.386H41.3863C41.6983 28.386 41.9983 28.368 42.2863 28.332C42.5863 28.296 42.8503 28.218 43.0783 28.098C43.3183 27.978 43.5103 27.804 43.6543 27.576C43.7983 27.348 43.8703 27.042 43.8703 26.658C43.8703 26.166 43.7023 25.764 43.3663 25.452C43.0303 25.14 42.5923 24.984 42.0523 24.984C41.6203 24.984 41.2303 25.11 40.8823 25.362C40.5463 25.602 40.3003 25.944 40.1443 26.388L37.8583 25.776C38.0023 25.308 38.2063 24.9 38.4703 24.552C38.7343 24.204 39.0463 23.922 39.4063 23.706C39.7663 23.478 40.1623 23.31 40.5943 23.202C41.0263 23.094 41.4763 23.04 41.9443 23.04C42.4963 23.04 43.0183 23.112 43.5103 23.256C44.0023 23.4 44.4343 23.616 44.8063 23.904C45.1783 24.18 45.4723 24.534 45.6883 24.966C45.9163 25.386 46.0303 25.878 46.0303 26.442C46.0303 27.126 45.8383 27.738 45.4543 28.278C45.0703 28.806 44.5363 29.154 43.8523 29.322V29.358C44.6683 29.478 45.2863 29.826 45.7063 30.402C46.1263 30.978 46.3363 31.662 46.3363 32.454C46.3363 33.066 46.2163 33.606 45.9763 34.074C45.7483 34.542 45.4363 34.938 45.0403 35.262C44.6443 35.574 44.1823 35.814 43.6543 35.982C43.1383 36.138 42.5983 36.216 42.0343 36.216C41.5063 36.216 41.0083 36.156 40.5403 36.036C40.0723 35.928 39.6463 35.754 39.2623 35.514C38.8903 35.274 38.5663 34.968 38.2903 34.596C38.0143 34.212 37.8043 33.756 37.6603 33.228L39.9643 32.616C40.0963 33.144 40.3303 33.552 40.6663 33.84C41.0023 34.128 41.4583 34.272 42.0343 34.272C42.3223 34.272 42.5923 34.224 42.8443 34.128C43.1083 34.032 43.3363 33.9 43.5283 33.732C43.7323 33.552 43.8883 33.342 43.9963 33.102C44.1163 32.85 44.1763 32.574 44.1763 32.274C44.1763 31.866 44.0863 31.536 43.9063 31.284C43.7383 31.02 43.5163 30.822 43.2403 30.69C42.9763 30.546 42.6763 30.45 42.3403 30.402C42.0043 30.354 41.6743 30.33 41.3503 30.33H40.8283V28.386ZM48.8887 34.74C48.8887 34.356 49.0267 34.026 49.3027 33.75C49.5907 33.474 49.9327 33.336 50.3287 33.336C50.7127 33.336 51.0487 33.468 51.3367 33.732C51.6247 33.996 51.7687 34.32 51.7687 34.704C51.7687 35.088 51.6247 35.418 51.3367 35.694C51.0607 35.97 50.7247 36.108 50.3287 36.108C50.1367 36.108 49.9507 36.072 49.7707 36C49.6027 35.928 49.4527 35.832 49.3207 35.712C49.1887 35.592 49.0807 35.448 48.9967 35.28C48.9247 35.112 48.8887 34.932 48.8887 34.74ZM60.045 23.256H62.313V36H60.045V23.256ZM65.0008 27.36H67.0528V28.71H67.0888C67.2808 28.302 67.5868 27.942 68.0068 27.63C68.4388 27.306 69.0148 27.144 69.7348 27.144C71.0908 27.144 71.9908 27.678 72.4348 28.746C72.7468 28.194 73.1368 27.792 73.6048 27.54C74.0728 27.276 74.6308 27.144 75.2788 27.144C75.8548 27.144 76.3408 27.24 76.7368 27.432C77.1328 27.624 77.4508 27.888 77.6908 28.224C77.9428 28.56 78.1228 28.956 78.2308 29.412C78.3388 29.856 78.3928 30.336 78.3928 30.852V36H76.2328V31.104C76.2328 30.84 76.2088 30.588 76.1608 30.348C76.1128 30.096 76.0288 29.88 75.9088 29.7C75.7888 29.508 75.6268 29.358 75.4228 29.25C75.2188 29.142 74.9548 29.088 74.6308 29.088C74.2948 29.088 74.0068 29.154 73.7668 29.286C73.5388 29.406 73.3468 29.574 73.1908 29.79C73.0468 29.994 72.9388 30.234 72.8668 30.51C72.8068 30.774 72.7768 31.044 72.7768 31.32V36H70.6168V30.852C70.6168 30.312 70.5028 29.886 70.2748 29.574C70.0468 29.25 69.6688 29.088 69.1408 29.088C68.7808 29.088 68.4748 29.148 68.2228 29.268C67.9828 29.388 67.7788 29.55 67.6108 29.754C67.4548 29.958 67.3408 30.192 67.2688 30.456C67.1968 30.72 67.1608 30.996 67.1608 31.284V36H65.0008V27.36ZM80.9329 27.36H82.9849V28.656H83.0209C83.3329 28.128 83.7529 27.744 84.2809 27.504C84.8089 27.264 85.3789 27.144 85.9909 27.144C86.6509 27.144 87.2449 27.264 87.7729 27.504C88.3009 27.732 88.7509 28.05 89.1229 28.458C89.4949 28.866 89.7769 29.346 89.9689 29.898C90.1609 30.45 90.2569 31.044 90.2569 31.68C90.2569 32.316 90.1549 32.91 89.9509 33.462C89.7469 34.014 89.4589 34.494 89.0869 34.902C88.7269 35.31 88.2889 35.634 87.7729 35.874C87.2569 36.102 86.6929 36.216 86.0809 36.216C85.6729 36.216 85.3129 36.174 85.0009 36.09C84.6889 36.006 84.4129 35.898 84.1729 35.766C83.9329 35.634 83.7289 35.496 83.5609 35.352C83.3929 35.196 83.2549 35.046 83.1469 34.902H83.0929V40.104H80.9329V27.36ZM88.0969 31.68C88.0969 31.344 88.0369 31.02 87.9169 30.708C87.8089 30.396 87.6409 30.12 87.4129 29.88C87.1969 29.64 86.9329 29.448 86.6209 29.304C86.3089 29.16 85.9549 29.088 85.5589 29.088C85.1629 29.088 84.8089 29.16 84.4969 29.304C84.1849 29.448 83.9149 29.64 83.6869 29.88C83.4709 30.12 83.3029 30.396 83.1829 30.708C83.0749 31.02 83.0209 31.344 83.0209 31.68C83.0209 32.016 83.0749 32.34 83.1829 32.652C83.3029 32.964 83.4709 33.24 83.6869 33.48C83.9149 33.72 84.1849 33.912 84.4969 34.056C84.8089 34.2 85.1629 34.272 85.5589 34.272C85.9549 34.272 86.3089 34.2 86.6209 34.056C86.9329 33.912 87.1969 33.72 87.4129 33.48C87.6409 33.24 87.8089 32.964 87.9169 32.652C88.0369 32.34 88.0969 32.016 88.0969 31.68ZM97.8508 34.812H97.7968C97.4848 35.304 97.0888 35.664 96.6088 35.892C96.1288 36.108 95.6008 36.216 95.0248 36.216C94.6288 36.216 94.2388 36.162 93.8548 36.054C93.4828 35.946 93.1468 35.784 92.8468 35.568C92.5588 35.352 92.3248 35.082 92.1448 34.758C91.9648 34.434 91.8748 34.056 91.8748 33.624C91.8748 33.156 91.9588 32.76 92.1268 32.436C92.2948 32.1 92.5168 31.824 92.7928 31.608C93.0808 31.38 93.4108 31.2 93.7828 31.068C94.1548 30.936 94.5388 30.84 94.9348 30.78C95.3428 30.708 95.7508 30.666 96.1588 30.654C96.5668 30.63 96.9508 30.618 97.3108 30.618H97.8508V30.384C97.8508 29.844 97.6648 29.442 97.2928 29.178C96.9208 28.902 96.4468 28.764 95.8708 28.764C95.4148 28.764 94.9888 28.848 94.5928 29.016C94.1968 29.172 93.8548 29.388 93.5668 29.664L92.4328 28.53C92.9128 28.038 93.4708 27.684 94.1068 27.468C94.7548 27.252 95.4208 27.144 96.1048 27.144C96.7168 27.144 97.2328 27.216 97.6528 27.36C98.0728 27.492 98.4208 27.666 98.6968 27.882C98.9728 28.098 99.1828 28.35 99.3268 28.638C99.4828 28.914 99.5908 29.196 99.6508 29.484C99.7228 29.772 99.7648 30.054 99.7768 30.33C99.7888 30.594 99.7948 30.828 99.7948 31.032V36H97.8508V34.812ZM97.7248 32.13H97.2748C96.9748 32.13 96.6388 32.142 96.2668 32.166C95.8948 32.19 95.5408 32.25 95.2048 32.346C94.8808 32.43 94.6048 32.562 94.3768 32.742C94.1488 32.91 94.0348 33.15 94.0348 33.462C94.0348 33.666 94.0768 33.84 94.1608 33.984C94.2568 34.116 94.3768 34.23 94.5208 34.326C94.6648 34.422 94.8268 34.494 95.0068 34.542C95.1868 34.578 95.3668 34.596 95.5468 34.596C96.2908 34.596 96.8368 34.422 97.1848 34.074C97.5448 33.714 97.7248 33.228 97.7248 32.616V32.13ZM108.203 29.952C107.951 29.688 107.687 29.478 107.411 29.322C107.135 29.166 106.853 29.088 106.565 29.088C106.169 29.088 105.815 29.16 105.503 29.304C105.191 29.448 104.921 29.64 104.693 29.88C104.477 30.12 104.309 30.396 104.189 30.708C104.081 31.02 104.027 31.344 104.027 31.68C104.027 32.016 104.081 32.34 104.189 32.652C104.309 32.964 104.477 33.24 104.693 33.48C104.921 33.72 105.191 33.912 105.503 34.056C105.815 34.2 106.169 34.272 106.565 34.272C106.901 34.272 107.213 34.206 107.501 34.074C107.789 33.93 108.035 33.726 108.239 33.462L109.679 35.01C109.463 35.226 109.211 35.412 108.923 35.568C108.647 35.724 108.365 35.85 108.077 35.946C107.789 36.042 107.513 36.108 107.249 36.144C106.985 36.192 106.757 36.216 106.565 36.216C105.917 36.216 105.305 36.108 104.729 35.892C104.153 35.676 103.655 35.37 103.235 34.974C102.815 34.578 102.479 34.104 102.227 33.552C101.987 32.988 101.867 32.364 101.867 31.68C101.867 30.996 101.987 30.378 102.227 29.826C102.479 29.262 102.815 28.782 103.235 28.386C103.655 27.99 104.153 27.684 104.729 27.468C105.305 27.252 105.917 27.144 106.565 27.144C107.117 27.144 107.669 27.252 108.221 27.468C108.785 27.672 109.277 28.002 109.697 28.458L108.203 29.952ZM110.154 29.196V27.36H111.936V24.858H114.096V27.36H116.472V29.196H114.096V32.976C114.096 33.408 114.174 33.75 114.33 34.002C114.498 34.254 114.822 34.38 115.302 34.38C115.494 34.38 115.704 34.362 115.932 34.326C116.16 34.278 116.34 34.206 116.472 34.11V35.928C116.244 36.036 115.962 36.108 115.626 36.144C115.302 36.192 115.014 36.216 114.762 36.216C114.186 36.216 113.712 36.15 113.34 36.018C112.98 35.898 112.692 35.712 112.476 35.46C112.272 35.196 112.128 34.872 112.044 34.488C111.972 34.104 111.936 33.66 111.936 33.156V29.196H110.154Z" fill="#17AD37"/>
        <path d="M26.72 29.628C26.72 28.62 26.798 27.762 26.954 27.054C27.122 26.334 27.338 25.734 27.602 25.254C27.866 24.762 28.16 24.372 28.484 24.084C28.82 23.784 29.156 23.562 29.492 23.418C29.84 23.262 30.17 23.16 30.482 23.112C30.806 23.064 31.088 23.04 31.328 23.04C31.568 23.04 31.844 23.064 32.156 23.112C32.48 23.16 32.81 23.262 33.146 23.418C33.494 23.562 33.83 23.784 34.154 24.084C34.49 24.372 34.79 24.762 35.054 25.254C35.318 25.734 35.528 26.334 35.684 27.054C35.852 27.762 35.936 28.62 35.936 29.628C35.936 30.636 35.852 31.5 35.684 32.22C35.528 32.928 35.318 33.528 35.054 34.02C34.79 34.5 34.49 34.89 34.154 35.19C33.83 35.478 33.494 35.7 33.146 35.856C32.81 36 32.48 36.096 32.156 36.144C31.844 36.192 31.568 36.216 31.328 36.216C31.088 36.216 30.806 36.192 30.482 36.144C30.17 36.096 29.84 36 29.492 35.856C29.156 35.7 28.82 35.478 28.484 35.19C28.16 34.89 27.866 34.5 27.602 34.02C27.338 33.528 27.122 32.928 26.954 32.22C26.798 31.5 26.72 30.636 26.72 29.628ZM28.88 29.628C28.88 30.024 28.904 30.486 28.952 31.014C29.012 31.53 29.126 32.022 29.294 32.49C29.462 32.958 29.708 33.354 30.032 33.678C30.356 34.002 30.788 34.164 31.328 34.164C31.868 34.164 32.3 34.002 32.624 33.678C32.948 33.354 33.194 32.958 33.362 32.49C33.53 32.022 33.638 31.53 33.686 31.014C33.746 30.486 33.776 30.024 33.776 29.628C33.776 29.232 33.746 28.776 33.686 28.26C33.638 27.732 33.53 27.234 33.362 26.766C33.194 26.298 32.948 25.902 32.624 25.578C32.3 25.254 31.868 25.092 31.328 25.092C30.788 25.092 30.356 25.254 30.032 25.578C29.708 25.902 29.462 26.298 29.294 26.766C29.126 27.234 29.012 27.732 28.952 28.26C28.904 28.776 28.88 29.232 28.88 29.628ZM40.8283 28.386H41.3863C41.6983 28.386 41.9983 28.368 42.2863 28.332C42.5863 28.296 42.8503 28.218 43.0783 28.098C43.3183 27.978 43.5103 27.804 43.6543 27.576C43.7983 27.348 43.8703 27.042 43.8703 26.658C43.8703 26.166 43.7023 25.764 43.3663 25.452C43.0303 25.14 42.5923 24.984 42.0523 24.984C41.6203 24.984 41.2303 25.11 40.8823 25.362C40.5463 25.602 40.3003 25.944 40.1443 26.388L37.8583 25.776C38.0023 25.308 38.2063 24.9 38.4703 24.552C38.7343 24.204 39.0463 23.922 39.4063 23.706C39.7663 23.478 40.1623 23.31 40.5943 23.202C41.0263 23.094 41.4763 23.04 41.9443 23.04C42.4963 23.04 43.0183 23.112 43.5103 23.256C44.0023 23.4 44.4343 23.616 44.8063 23.904C45.1783 24.18 45.4723 24.534 45.6883 24.966C45.9163 25.386 46.0303 25.878 46.0303 26.442C46.0303 27.126 45.8383 27.738 45.4543 28.278C45.0703 28.806 44.5363 29.154 43.8523 29.322V29.358C44.6683 29.478 45.2863 29.826 45.7063 30.402C46.1263 30.978 46.3363 31.662 46.3363 32.454C46.3363 33.066 46.2163 33.606 45.9763 34.074C45.7483 34.542 45.4363 34.938 45.0403 35.262C44.6443 35.574 44.1823 35.814 43.6543 35.982C43.1383 36.138 42.5983 36.216 42.0343 36.216C41.5063 36.216 41.0083 36.156 40.5403 36.036C40.0723 35.928 39.6463 35.754 39.2623 35.514C38.8903 35.274 38.5663 34.968 38.2903 34.596C38.0143 34.212 37.8043 33.756 37.6603 33.228L39.9643 32.616C40.0963 33.144 40.3303 33.552 40.6663 33.84C41.0023 34.128 41.4583 34.272 42.0343 34.272C42.3223 34.272 42.5923 34.224 42.8443 34.128C43.1083 34.032 43.3363 33.9 43.5283 33.732C43.7323 33.552 43.8883 33.342 43.9963 33.102C44.1163 32.85 44.1763 32.574 44.1763 32.274C44.1763 31.866 44.0863 31.536 43.9063 31.284C43.7383 31.02 43.5163 30.822 43.2403 30.69C42.9763 30.546 42.6763 30.45 42.3403 30.402C42.0043 30.354 41.6743 30.33 41.3503 30.33H40.8283V28.386ZM48.8887 34.74C48.8887 34.356 49.0267 34.026 49.3027 33.75C49.5907 33.474 49.9327 33.336 50.3287 33.336C50.7127 33.336 51.0487 33.468 51.3367 33.732C51.6247 33.996 51.7687 34.32 51.7687 34.704C51.7687 35.088 51.6247 35.418 51.3367 35.694C51.0607 35.97 50.7247 36.108 50.3287 36.108C50.1367 36.108 49.9507 36.072 49.7707 36C49.6027 35.928 49.4527 35.832 49.3207 35.712C49.1887 35.592 49.0807 35.448 48.9967 35.28C48.9247 35.112 48.8887 34.932 48.8887 34.74ZM60.045 23.256H62.313V36H60.045V23.256ZM65.0008 27.36H67.0528V28.71H67.0888C67.2808 28.302 67.5868 27.942 68.0068 27.63C68.4388 27.306 69.0148 27.144 69.7348 27.144C71.0908 27.144 71.9908 27.678 72.4348 28.746C72.7468 28.194 73.1368 27.792 73.6048 27.54C74.0728 27.276 74.6308 27.144 75.2788 27.144C75.8548 27.144 76.3408 27.24 76.7368 27.432C77.1328 27.624 77.4508 27.888 77.6908 28.224C77.9428 28.56 78.1228 28.956 78.2308 29.412C78.3388 29.856 78.3928 30.336 78.3928 30.852V36H76.2328V31.104C76.2328 30.84 76.2088 30.588 76.1608 30.348C76.1128 30.096 76.0288 29.88 75.9088 29.7C75.7888 29.508 75.6268 29.358 75.4228 29.25C75.2188 29.142 74.9548 29.088 74.6308 29.088C74.2948 29.088 74.0068 29.154 73.7668 29.286C73.5388 29.406 73.3468 29.574 73.1908 29.79C73.0468 29.994 72.9388 30.234 72.8668 30.51C72.8068 30.774 72.7768 31.044 72.7768 31.32V36H70.6168V30.852C70.6168 30.312 70.5028 29.886 70.2748 29.574C70.0468 29.25 69.6688 29.088 69.1408 29.088C68.7808 29.088 68.4748 29.148 68.2228 29.268C67.9828 29.388 67.7788 29.55 67.6108 29.754C67.4548 29.958 67.3408 30.192 67.2688 30.456C67.1968 30.72 67.1608 30.996 67.1608 31.284V36H65.0008V27.36ZM80.9329 27.36H82.9849V28.656H83.0209C83.3329 28.128 83.7529 27.744 84.2809 27.504C84.8089 27.264 85.3789 27.144 85.9909 27.144C86.6509 27.144 87.2449 27.264 87.7729 27.504C88.3009 27.732 88.7509 28.05 89.1229 28.458C89.4949 28.866 89.7769 29.346 89.9689 29.898C90.1609 30.45 90.2569 31.044 90.2569 31.68C90.2569 32.316 90.1549 32.91 89.9509 33.462C89.7469 34.014 89.4589 34.494 89.0869 34.902C88.7269 35.31 88.2889 35.634 87.7729 35.874C87.2569 36.102 86.6929 36.216 86.0809 36.216C85.6729 36.216 85.3129 36.174 85.0009 36.09C84.6889 36.006 84.4129 35.898 84.1729 35.766C83.9329 35.634 83.7289 35.496 83.5609 35.352C83.3929 35.196 83.2549 35.046 83.1469 34.902H83.0929V40.104H80.9329V27.36ZM88.0969 31.68C88.0969 31.344 88.0369 31.02 87.9169 30.708C87.8089 30.396 87.6409 30.12 87.4129 29.88C87.1969 29.64 86.9329 29.448 86.6209 29.304C86.3089 29.16 85.9549 29.088 85.5589 29.088C85.1629 29.088 84.8089 29.16 84.4969 29.304C84.1849 29.448 83.9149 29.64 83.6869 29.88C83.4709 30.12 83.3029 30.396 83.1829 30.708C83.0749 31.02 83.0209 31.344 83.0209 31.68C83.0209 32.016 83.0749 32.34 83.1829 32.652C83.3029 32.964 83.4709 33.24 83.6869 33.48C83.9149 33.72 84.1849 33.912 84.4969 34.056C84.8089 34.2 85.1629 34.272 85.5589 34.272C85.9549 34.272 86.3089 34.2 86.6209 34.056C86.9329 33.912 87.1969 33.72 87.4129 33.48C87.6409 33.24 87.8089 32.964 87.9169 32.652C88.0369 32.34 88.0969 32.016 88.0969 31.68ZM97.8508 34.812H97.7968C97.4848 35.304 97.0888 35.664 96.6088 35.892C96.1288 36.108 95.6008 36.216 95.0248 36.216C94.6288 36.216 94.2388 36.162 93.8548 36.054C93.4828 35.946 93.1468 35.784 92.8468 35.568C92.5588 35.352 92.3248 35.082 92.1448 34.758C91.9648 34.434 91.8748 34.056 91.8748 33.624C91.8748 33.156 91.9588 32.76 92.1268 32.436C92.2948 32.1 92.5168 31.824 92.7928 31.608C93.0808 31.38 93.4108 31.2 93.7828 31.068C94.1548 30.936 94.5388 30.84 94.9348 30.78C95.3428 30.708 95.7508 30.666 96.1588 30.654C96.5668 30.63 96.9508 30.618 97.3108 30.618H97.8508V30.384C97.8508 29.844 97.6648 29.442 97.2928 29.178C96.9208 28.902 96.4468 28.764 95.8708 28.764C95.4148 28.764 94.9888 28.848 94.5928 29.016C94.1968 29.172 93.8548 29.388 93.5668 29.664L92.4328 28.53C92.9128 28.038 93.4708 27.684 94.1068 27.468C94.7548 27.252 95.4208 27.144 96.1048 27.144C96.7168 27.144 97.2328 27.216 97.6528 27.36C98.0728 27.492 98.4208 27.666 98.6968 27.882C98.9728 28.098 99.1828 28.35 99.3268 28.638C99.4828 28.914 99.5908 29.196 99.6508 29.484C99.7228 29.772 99.7648 30.054 99.7768 30.33C99.7888 30.594 99.7948 30.828 99.7948 31.032V36H97.8508V34.812ZM97.7248 32.13H97.2748C96.9748 32.13 96.6388 32.142 96.2668 32.166C95.8948 32.19 95.5408 32.25 95.2048 32.346C94.8808 32.43 94.6048 32.562 94.3768 32.742C94.1488 32.91 94.0348 33.15 94.0348 33.462C94.0348 33.666 94.0768 33.84 94.1608 33.984C94.2568 34.116 94.3768 34.23 94.5208 34.326C94.6648 34.422 94.8268 34.494 95.0068 34.542C95.1868 34.578 95.3668 34.596 95.5468 34.596C96.2908 34.596 96.8368 34.422 97.1848 34.074C97.5448 33.714 97.7248 33.228 97.7248 32.616V32.13ZM108.203 29.952C107.951 29.688 107.687 29.478 107.411 29.322C107.135 29.166 106.853 29.088 106.565 29.088C106.169 29.088 105.815 29.16 105.503 29.304C105.191 29.448 104.921 29.64 104.693 29.88C104.477 30.12 104.309 30.396 104.189 30.708C104.081 31.02 104.027 31.344 104.027 31.68C104.027 32.016 104.081 32.34 104.189 32.652C104.309 32.964 104.477 33.24 104.693 33.48C104.921 33.72 105.191 33.912 105.503 34.056C105.815 34.2 106.169 34.272 106.565 34.272C106.901 34.272 107.213 34.206 107.501 34.074C107.789 33.93 108.035 33.726 108.239 33.462L109.679 35.01C109.463 35.226 109.211 35.412 108.923 35.568C108.647 35.724 108.365 35.85 108.077 35.946C107.789 36.042 107.513 36.108 107.249 36.144C106.985 36.192 106.757 36.216 106.565 36.216C105.917 36.216 105.305 36.108 104.729 35.892C104.153 35.676 103.655 35.37 103.235 34.974C102.815 34.578 102.479 34.104 102.227 33.552C101.987 32.988 101.867 32.364 101.867 31.68C101.867 30.996 101.987 30.378 102.227 29.826C102.479 29.262 102.815 28.782 103.235 28.386C103.655 27.99 104.153 27.684 104.729 27.468C105.305 27.252 105.917 27.144 106.565 27.144C107.117 27.144 107.669 27.252 108.221 27.468C108.785 27.672 109.277 28.002 109.697 28.458L108.203 29.952ZM110.154 29.196V27.36H111.936V24.858H114.096V27.36H116.472V29.196H114.096V32.976C114.096 33.408 114.174 33.75 114.33 34.002C114.498 34.254 114.822 34.38 115.302 34.38C115.494 34.38 115.704 34.362 115.932 34.326C116.16 34.278 116.34 34.206 116.472 34.11V35.928C116.244 36.036 115.962 36.108 115.626 36.144C115.302 36.192 115.014 36.216 114.762 36.216C114.186 36.216 113.712 36.15 113.34 36.018C112.98 35.898 112.692 35.712 112.476 35.46C112.272 35.196 112.128 34.872 112.044 34.488C111.972 34.104 111.936 33.66 111.936 33.156V29.196H110.154Z" fill="black" fill-opacity="0.2"/>
        <path d="M26.72 29.628C26.72 28.62 26.798 27.762 26.954 27.054C27.122 26.334 27.338 25.734 27.602 25.254C27.866 24.762 28.16 24.372 28.484 24.084C28.82 23.784 29.156 23.562 29.492 23.418C29.84 23.262 30.17 23.16 30.482 23.112C30.806 23.064 31.088 23.04 31.328 23.04C31.568 23.04 31.844 23.064 32.156 23.112C32.48 23.16 32.81 23.262 33.146 23.418C33.494 23.562 33.83 23.784 34.154 24.084C34.49 24.372 34.79 24.762 35.054 25.254C35.318 25.734 35.528 26.334 35.684 27.054C35.852 27.762 35.936 28.62 35.936 29.628C35.936 30.636 35.852 31.5 35.684 32.22C35.528 32.928 35.318 33.528 35.054 34.02C34.79 34.5 34.49 34.89 34.154 35.19C33.83 35.478 33.494 35.7 33.146 35.856C32.81 36 32.48 36.096 32.156 36.144C31.844 36.192 31.568 36.216 31.328 36.216C31.088 36.216 30.806 36.192 30.482 36.144C30.17 36.096 29.84 36 29.492 35.856C29.156 35.7 28.82 35.478 28.484 35.19C28.16 34.89 27.866 34.5 27.602 34.02C27.338 33.528 27.122 32.928 26.954 32.22C26.798 31.5 26.72 30.636 26.72 29.628ZM28.88 29.628C28.88 30.024 28.904 30.486 28.952 31.014C29.012 31.53 29.126 32.022 29.294 32.49C29.462 32.958 29.708 33.354 30.032 33.678C30.356 34.002 30.788 34.164 31.328 34.164C31.868 34.164 32.3 34.002 32.624 33.678C32.948 33.354 33.194 32.958 33.362 32.49C33.53 32.022 33.638 31.53 33.686 31.014C33.746 30.486 33.776 30.024 33.776 29.628C33.776 29.232 33.746 28.776 33.686 28.26C33.638 27.732 33.53 27.234 33.362 26.766C33.194 26.298 32.948 25.902 32.624 25.578C32.3 25.254 31.868 25.092 31.328 25.092C30.788 25.092 30.356 25.254 30.032 25.578C29.708 25.902 29.462 26.298 29.294 26.766C29.126 27.234 29.012 27.732 28.952 28.26C28.904 28.776 28.88 29.232 28.88 29.628ZM40.8283 28.386H41.3863C41.6983 28.386 41.9983 28.368 42.2863 28.332C42.5863 28.296 42.8503 28.218 43.0783 28.098C43.3183 27.978 43.5103 27.804 43.6543 27.576C43.7983 27.348 43.8703 27.042 43.8703 26.658C43.8703 26.166 43.7023 25.764 43.3663 25.452C43.0303 25.14 42.5923 24.984 42.0523 24.984C41.6203 24.984 41.2303 25.11 40.8823 25.362C40.5463 25.602 40.3003 25.944 40.1443 26.388L37.8583 25.776C38.0023 25.308 38.2063 24.9 38.4703 24.552C38.7343 24.204 39.0463 23.922 39.4063 23.706C39.7663 23.478 40.1623 23.31 40.5943 23.202C41.0263 23.094 41.4763 23.04 41.9443 23.04C42.4963 23.04 43.0183 23.112 43.5103 23.256C44.0023 23.4 44.4343 23.616 44.8063 23.904C45.1783 24.18 45.4723 24.534 45.6883 24.966C45.9163 25.386 46.0303 25.878 46.0303 26.442C46.0303 27.126 45.8383 27.738 45.4543 28.278C45.0703 28.806 44.5363 29.154 43.8523 29.322V29.358C44.6683 29.478 45.2863 29.826 45.7063 30.402C46.1263 30.978 46.3363 31.662 46.3363 32.454C46.3363 33.066 46.2163 33.606 45.9763 34.074C45.7483 34.542 45.4363 34.938 45.0403 35.262C44.6443 35.574 44.1823 35.814 43.6543 35.982C43.1383 36.138 42.5983 36.216 42.0343 36.216C41.5063 36.216 41.0083 36.156 40.5403 36.036C40.0723 35.928 39.6463 35.754 39.2623 35.514C38.8903 35.274 38.5663 34.968 38.2903 34.596C38.0143 34.212 37.8043 33.756 37.6603 33.228L39.9643 32.616C40.0963 33.144 40.3303 33.552 40.6663 33.84C41.0023 34.128 41.4583 34.272 42.0343 34.272C42.3223 34.272 42.5923 34.224 42.8443 34.128C43.1083 34.032 43.3363 33.9 43.5283 33.732C43.7323 33.552 43.8883 33.342 43.9963 33.102C44.1163 32.85 44.1763 32.574 44.1763 32.274C44.1763 31.866 44.0863 31.536 43.9063 31.284C43.7383 31.02 43.5163 30.822 43.2403 30.69C42.9763 30.546 42.6763 30.45 42.3403 30.402C42.0043 30.354 41.6743 30.33 41.3503 30.33H40.8283V28.386ZM48.8887 34.74C48.8887 34.356 49.0267 34.026 49.3027 33.75C49.5907 33.474 49.9327 33.336 50.3287 33.336C50.7127 33.336 51.0487 33.468 51.3367 33.732C51.6247 33.996 51.7687 34.32 51.7687 34.704C51.7687 35.088 51.6247 35.418 51.3367 35.694C51.0607 35.97 50.7247 36.108 50.3287 36.108C50.1367 36.108 49.9507 36.072 49.7707 36C49.6027 35.928 49.4527 35.832 49.3207 35.712C49.1887 35.592 49.0807 35.448 48.9967 35.28C48.9247 35.112 48.8887 34.932 48.8887 34.74ZM60.045 23.256H62.313V36H60.045V23.256ZM65.0008 27.36H67.0528V28.71H67.0888C67.2808 28.302 67.5868 27.942 68.0068 27.63C68.4388 27.306 69.0148 27.144 69.7348 27.144C71.0908 27.144 71.9908 27.678 72.4348 28.746C72.7468 28.194 73.1368 27.792 73.6048 27.54C74.0728 27.276 74.6308 27.144 75.2788 27.144C75.8548 27.144 76.3408 27.24 76.7368 27.432C77.1328 27.624 77.4508 27.888 77.6908 28.224C77.9428 28.56 78.1228 28.956 78.2308 29.412C78.3388 29.856 78.3928 30.336 78.3928 30.852V36H76.2328V31.104C76.2328 30.84 76.2088 30.588 76.1608 30.348C76.1128 30.096 76.0288 29.88 75.9088 29.7C75.7888 29.508 75.6268 29.358 75.4228 29.25C75.2188 29.142 74.9548 29.088 74.6308 29.088C74.2948 29.088 74.0068 29.154 73.7668 29.286C73.5388 29.406 73.3468 29.574 73.1908 29.79C73.0468 29.994 72.9388 30.234 72.8668 30.51C72.8068 30.774 72.7768 31.044 72.7768 31.32V36H70.6168V30.852C70.6168 30.312 70.5028 29.886 70.2748 29.574C70.0468 29.25 69.6688 29.088 69.1408 29.088C68.7808 29.088 68.4748 29.148 68.2228 29.268C67.9828 29.388 67.7788 29.55 67.6108 29.754C67.4548 29.958 67.3408 30.192 67.2688 30.456C67.1968 30.72 67.1608 30.996 67.1608 31.284V36H65.0008V27.36ZM80.9329 27.36H82.9849V28.656H83.0209C83.3329 28.128 83.7529 27.744 84.2809 27.504C84.8089 27.264 85.3789 27.144 85.9909 27.144C86.6509 27.144 87.2449 27.264 87.7729 27.504C88.3009 27.732 88.7509 28.05 89.1229 28.458C89.4949 28.866 89.7769 29.346 89.9689 29.898C90.1609 30.45 90.2569 31.044 90.2569 31.68C90.2569 32.316 90.1549 32.91 89.9509 33.462C89.7469 34.014 89.4589 34.494 89.0869 34.902C88.7269 35.31 88.2889 35.634 87.7729 35.874C87.2569 36.102 86.6929 36.216 86.0809 36.216C85.6729 36.216 85.3129 36.174 85.0009 36.09C84.6889 36.006 84.4129 35.898 84.1729 35.766C83.9329 35.634 83.7289 35.496 83.5609 35.352C83.3929 35.196 83.2549 35.046 83.1469 34.902H83.0929V40.104H80.9329V27.36ZM88.0969 31.68C88.0969 31.344 88.0369 31.02 87.9169 30.708C87.8089 30.396 87.6409 30.12 87.4129 29.88C87.1969 29.64 86.9329 29.448 86.6209 29.304C86.3089 29.16 85.9549 29.088 85.5589 29.088C85.1629 29.088 84.8089 29.16 84.4969 29.304C84.1849 29.448 83.9149 29.64 83.6869 29.88C83.4709 30.12 83.3029 30.396 83.1829 30.708C83.0749 31.02 83.0209 31.344 83.0209 31.68C83.0209 32.016 83.0749 32.34 83.1829 32.652C83.3029 32.964 83.4709 33.24 83.6869 33.48C83.9149 33.72 84.1849 33.912 84.4969 34.056C84.8089 34.2 85.1629 34.272 85.5589 34.272C85.9549 34.272 86.3089 34.2 86.6209 34.056C86.9329 33.912 87.1969 33.72 87.4129 33.48C87.6409 33.24 87.8089 32.964 87.9169 32.652C88.0369 32.34 88.0969 32.016 88.0969 31.68ZM97.8508 34.812H97.7968C97.4848 35.304 97.0888 35.664 96.6088 35.892C96.1288 36.108 95.6008 36.216 95.0248 36.216C94.6288 36.216 94.2388 36.162 93.8548 36.054C93.4828 35.946 93.1468 35.784 92.8468 35.568C92.5588 35.352 92.3248 35.082 92.1448 34.758C91.9648 34.434 91.8748 34.056 91.8748 33.624C91.8748 33.156 91.9588 32.76 92.1268 32.436C92.2948 32.1 92.5168 31.824 92.7928 31.608C93.0808 31.38 93.4108 31.2 93.7828 31.068C94.1548 30.936 94.5388 30.84 94.9348 30.78C95.3428 30.708 95.7508 30.666 96.1588 30.654C96.5668 30.63 96.9508 30.618 97.3108 30.618H97.8508V30.384C97.8508 29.844 97.6648 29.442 97.2928 29.178C96.9208 28.902 96.4468 28.764 95.8708 28.764C95.4148 28.764 94.9888 28.848 94.5928 29.016C94.1968 29.172 93.8548 29.388 93.5668 29.664L92.4328 28.53C92.9128 28.038 93.4708 27.684 94.1068 27.468C94.7548 27.252 95.4208 27.144 96.1048 27.144C96.7168 27.144 97.2328 27.216 97.6528 27.36C98.0728 27.492 98.4208 27.666 98.6968 27.882C98.9728 28.098 99.1828 28.35 99.3268 28.638C99.4828 28.914 99.5908 29.196 99.6508 29.484C99.7228 29.772 99.7648 30.054 99.7768 30.33C99.7888 30.594 99.7948 30.828 99.7948 31.032V36H97.8508V34.812ZM97.7248 32.13H97.2748C96.9748 32.13 96.6388 32.142 96.2668 32.166C95.8948 32.19 95.5408 32.25 95.2048 32.346C94.8808 32.43 94.6048 32.562 94.3768 32.742C94.1488 32.91 94.0348 33.15 94.0348 33.462C94.0348 33.666 94.0768 33.84 94.1608 33.984C94.2568 34.116 94.3768 34.23 94.5208 34.326C94.6648 34.422 94.8268 34.494 95.0068 34.542C95.1868 34.578 95.3668 34.596 95.5468 34.596C96.2908 34.596 96.8368 34.422 97.1848 34.074C97.5448 33.714 97.7248 33.228 97.7248 32.616V32.13ZM108.203 29.952C107.951 29.688 107.687 29.478 107.411 29.322C107.135 29.166 106.853 29.088 106.565 29.088C106.169 29.088 105.815 29.16 105.503 29.304C105.191 29.448 104.921 29.64 104.693 29.88C104.477 30.12 104.309 30.396 104.189 30.708C104.081 31.02 104.027 31.344 104.027 31.68C104.027 32.016 104.081 32.34 104.189 32.652C104.309 32.964 104.477 33.24 104.693 33.48C104.921 33.72 105.191 33.912 105.503 34.056C105.815 34.2 106.169 34.272 106.565 34.272C106.901 34.272 107.213 34.206 107.501 34.074C107.789 33.93 108.035 33.726 108.239 33.462L109.679 35.01C109.463 35.226 109.211 35.412 108.923 35.568C108.647 35.724 108.365 35.85 108.077 35.946C107.789 36.042 107.513 36.108 107.249 36.144C106.985 36.192 106.757 36.216 106.565 36.216C105.917 36.216 105.305 36.108 104.729 35.892C104.153 35.676 103.655 35.37 103.235 34.974C102.815 34.578 102.479 34.104 102.227 33.552C101.987 32.988 101.867 32.364 101.867 31.68C101.867 30.996 101.987 30.378 102.227 29.826C102.479 29.262 102.815 28.782 103.235 28.386C103.655 27.99 104.153 27.684 104.729 27.468C105.305 27.252 105.917 27.144 106.565 27.144C107.117 27.144 107.669 27.252 108.221 27.468C108.785 27.672 109.277 28.002 109.697 28.458L108.203 29.952ZM110.154 29.196V27.36H111.936V24.858H114.096V27.36H116.472V29.196H114.096V32.976C114.096 33.408 114.174 33.75 114.33 34.002C114.498 34.254 114.822 34.38 115.302 34.38C115.494 34.38 115.704 34.362 115.932 34.326C116.16 34.278 116.34 34.206 116.472 34.11V35.928C116.244 36.036 115.962 36.108 115.626 36.144C115.302 36.192 115.014 36.216 114.762 36.216C114.186 36.216 113.712 36.15 113.34 36.018C112.98 35.898 112.692 35.712 112.476 35.46C112.272 35.196 112.128 34.872 112.044 34.488C111.972 34.104 111.936 33.66 111.936 33.156V29.196H110.154Z" fill="black" fill-opacity="0.2"/>
        <path d="M26.72 29.628C26.72 28.62 26.798 27.762 26.954 27.054C27.122 26.334 27.338 25.734 27.602 25.254C27.866 24.762 28.16 24.372 28.484 24.084C28.82 23.784 29.156 23.562 29.492 23.418C29.84 23.262 30.17 23.16 30.482 23.112C30.806 23.064 31.088 23.04 31.328 23.04C31.568 23.04 31.844 23.064 32.156 23.112C32.48 23.16 32.81 23.262 33.146 23.418C33.494 23.562 33.83 23.784 34.154 24.084C34.49 24.372 34.79 24.762 35.054 25.254C35.318 25.734 35.528 26.334 35.684 27.054C35.852 27.762 35.936 28.62 35.936 29.628C35.936 30.636 35.852 31.5 35.684 32.22C35.528 32.928 35.318 33.528 35.054 34.02C34.79 34.5 34.49 34.89 34.154 35.19C33.83 35.478 33.494 35.7 33.146 35.856C32.81 36 32.48 36.096 32.156 36.144C31.844 36.192 31.568 36.216 31.328 36.216C31.088 36.216 30.806 36.192 30.482 36.144C30.17 36.096 29.84 36 29.492 35.856C29.156 35.7 28.82 35.478 28.484 35.19C28.16 34.89 27.866 34.5 27.602 34.02C27.338 33.528 27.122 32.928 26.954 32.22C26.798 31.5 26.72 30.636 26.72 29.628ZM28.88 29.628C28.88 30.024 28.904 30.486 28.952 31.014C29.012 31.53 29.126 32.022 29.294 32.49C29.462 32.958 29.708 33.354 30.032 33.678C30.356 34.002 30.788 34.164 31.328 34.164C31.868 34.164 32.3 34.002 32.624 33.678C32.948 33.354 33.194 32.958 33.362 32.49C33.53 32.022 33.638 31.53 33.686 31.014C33.746 30.486 33.776 30.024 33.776 29.628C33.776 29.232 33.746 28.776 33.686 28.26C33.638 27.732 33.53 27.234 33.362 26.766C33.194 26.298 32.948 25.902 32.624 25.578C32.3 25.254 31.868 25.092 31.328 25.092C30.788 25.092 30.356 25.254 30.032 25.578C29.708 25.902 29.462 26.298 29.294 26.766C29.126 27.234 29.012 27.732 28.952 28.26C28.904 28.776 28.88 29.232 28.88 29.628ZM40.8283 28.386H41.3863C41.6983 28.386 41.9983 28.368 42.2863 28.332C42.5863 28.296 42.8503 28.218 43.0783 28.098C43.3183 27.978 43.5103 27.804 43.6543 27.576C43.7983 27.348 43.8703 27.042 43.8703 26.658C43.8703 26.166 43.7023 25.764 43.3663 25.452C43.0303 25.14 42.5923 24.984 42.0523 24.984C41.6203 24.984 41.2303 25.11 40.8823 25.362C40.5463 25.602 40.3003 25.944 40.1443 26.388L37.8583 25.776C38.0023 25.308 38.2063 24.9 38.4703 24.552C38.7343 24.204 39.0463 23.922 39.4063 23.706C39.7663 23.478 40.1623 23.31 40.5943 23.202C41.0263 23.094 41.4763 23.04 41.9443 23.04C42.4963 23.04 43.0183 23.112 43.5103 23.256C44.0023 23.4 44.4343 23.616 44.8063 23.904C45.1783 24.18 45.4723 24.534 45.6883 24.966C45.9163 25.386 46.0303 25.878 46.0303 26.442C46.0303 27.126 45.8383 27.738 45.4543 28.278C45.0703 28.806 44.5363 29.154 43.8523 29.322V29.358C44.6683 29.478 45.2863 29.826 45.7063 30.402C46.1263 30.978 46.3363 31.662 46.3363 32.454C46.3363 33.066 46.2163 33.606 45.9763 34.074C45.7483 34.542 45.4363 34.938 45.0403 35.262C44.6443 35.574 44.1823 35.814 43.6543 35.982C43.1383 36.138 42.5983 36.216 42.0343 36.216C41.5063 36.216 41.0083 36.156 40.5403 36.036C40.0723 35.928 39.6463 35.754 39.2623 35.514C38.8903 35.274 38.5663 34.968 38.2903 34.596C38.0143 34.212 37.8043 33.756 37.6603 33.228L39.9643 32.616C40.0963 33.144 40.3303 33.552 40.6663 33.84C41.0023 34.128 41.4583 34.272 42.0343 34.272C42.3223 34.272 42.5923 34.224 42.8443 34.128C43.1083 34.032 43.3363 33.9 43.5283 33.732C43.7323 33.552 43.8883 33.342 43.9963 33.102C44.1163 32.85 44.1763 32.574 44.1763 32.274C44.1763 31.866 44.0863 31.536 43.9063 31.284C43.7383 31.02 43.5163 30.822 43.2403 30.69C42.9763 30.546 42.6763 30.45 42.3403 30.402C42.0043 30.354 41.6743 30.33 41.3503 30.33H40.8283V28.386ZM48.8887 34.74C48.8887 34.356 49.0267 34.026 49.3027 33.75C49.5907 33.474 49.9327 33.336 50.3287 33.336C50.7127 33.336 51.0487 33.468 51.3367 33.732C51.6247 33.996 51.7687 34.32 51.7687 34.704C51.7687 35.088 51.6247 35.418 51.3367 35.694C51.0607 35.97 50.7247 36.108 50.3287 36.108C50.1367 36.108 49.9507 36.072 49.7707 36C49.6027 35.928 49.4527 35.832 49.3207 35.712C49.1887 35.592 49.0807 35.448 48.9967 35.28C48.9247 35.112 48.8887 34.932 48.8887 34.74ZM60.045 23.256H62.313V36H60.045V23.256ZM65.0008 27.36H67.0528V28.71H67.0888C67.2808 28.302 67.5868 27.942 68.0068 27.63C68.4388 27.306 69.0148 27.144 69.7348 27.144C71.0908 27.144 71.9908 27.678 72.4348 28.746C72.7468 28.194 73.1368 27.792 73.6048 27.54C74.0728 27.276 74.6308 27.144 75.2788 27.144C75.8548 27.144 76.3408 27.24 76.7368 27.432C77.1328 27.624 77.4508 27.888 77.6908 28.224C77.9428 28.56 78.1228 28.956 78.2308 29.412C78.3388 29.856 78.3928 30.336 78.3928 30.852V36H76.2328V31.104C76.2328 30.84 76.2088 30.588 76.1608 30.348C76.1128 30.096 76.0288 29.88 75.9088 29.7C75.7888 29.508 75.6268 29.358 75.4228 29.25C75.2188 29.142 74.9548 29.088 74.6308 29.088C74.2948 29.088 74.0068 29.154 73.7668 29.286C73.5388 29.406 73.3468 29.574 73.1908 29.79C73.0468 29.994 72.9388 30.234 72.8668 30.51C72.8068 30.774 72.7768 31.044 72.7768 31.32V36H70.6168V30.852C70.6168 30.312 70.5028 29.886 70.2748 29.574C70.0468 29.25 69.6688 29.088 69.1408 29.088C68.7808 29.088 68.4748 29.148 68.2228 29.268C67.9828 29.388 67.7788 29.55 67.6108 29.754C67.4548 29.958 67.3408 30.192 67.2688 30.456C67.1968 30.72 67.1608 30.996 67.1608 31.284V36H65.0008V27.36ZM80.9329 27.36H82.9849V28.656H83.0209C83.3329 28.128 83.7529 27.744 84.2809 27.504C84.8089 27.264 85.3789 27.144 85.9909 27.144C86.6509 27.144 87.2449 27.264 87.7729 27.504C88.3009 27.732 88.7509 28.05 89.1229 28.458C89.4949 28.866 89.7769 29.346 89.9689 29.898C90.1609 30.45 90.2569 31.044 90.2569 31.68C90.2569 32.316 90.1549 32.91 89.9509 33.462C89.7469 34.014 89.4589 34.494 89.0869 34.902C88.7269 35.31 88.2889 35.634 87.7729 35.874C87.2569 36.102 86.6929 36.216 86.0809 36.216C85.6729 36.216 85.3129 36.174 85.0009 36.09C84.6889 36.006 84.4129 35.898 84.1729 35.766C83.9329 35.634 83.7289 35.496 83.5609 35.352C83.3929 35.196 83.2549 35.046 83.1469 34.902H83.0929V40.104H80.9329V27.36ZM88.0969 31.68C88.0969 31.344 88.0369 31.02 87.9169 30.708C87.8089 30.396 87.6409 30.12 87.4129 29.88C87.1969 29.64 86.9329 29.448 86.6209 29.304C86.3089 29.16 85.9549 29.088 85.5589 29.088C85.1629 29.088 84.8089 29.16 84.4969 29.304C84.1849 29.448 83.9149 29.64 83.6869 29.88C83.4709 30.12 83.3029 30.396 83.1829 30.708C83.0749 31.02 83.0209 31.344 83.0209 31.68C83.0209 32.016 83.0749 32.34 83.1829 32.652C83.3029 32.964 83.4709 33.24 83.6869 33.48C83.9149 33.72 84.1849 33.912 84.4969 34.056C84.8089 34.2 85.1629 34.272 85.5589 34.272C85.9549 34.272 86.3089 34.2 86.6209 34.056C86.9329 33.912 87.1969 33.72 87.4129 33.48C87.6409 33.24 87.8089 32.964 87.9169 32.652C88.0369 32.34 88.0969 32.016 88.0969 31.68ZM97.8508 34.812H97.7968C97.4848 35.304 97.0888 35.664 96.6088 35.892C96.1288 36.108 95.6008 36.216 95.0248 36.216C94.6288 36.216 94.2388 36.162 93.8548 36.054C93.4828 35.946 93.1468 35.784 92.8468 35.568C92.5588 35.352 92.3248 35.082 92.1448 34.758C91.9648 34.434 91.8748 34.056 91.8748 33.624C91.8748 33.156 91.9588 32.76 92.1268 32.436C92.2948 32.1 92.5168 31.824 92.7928 31.608C93.0808 31.38 93.4108 31.2 93.7828 31.068C94.1548 30.936 94.5388 30.84 94.9348 30.78C95.3428 30.708 95.7508 30.666 96.1588 30.654C96.5668 30.63 96.9508 30.618 97.3108 30.618H97.8508V30.384C97.8508 29.844 97.6648 29.442 97.2928 29.178C96.9208 28.902 96.4468 28.764 95.8708 28.764C95.4148 28.764 94.9888 28.848 94.5928 29.016C94.1968 29.172 93.8548 29.388 93.5668 29.664L92.4328 28.53C92.9128 28.038 93.4708 27.684 94.1068 27.468C94.7548 27.252 95.4208 27.144 96.1048 27.144C96.7168 27.144 97.2328 27.216 97.6528 27.36C98.0728 27.492 98.4208 27.666 98.6968 27.882C98.9728 28.098 99.1828 28.35 99.3268 28.638C99.4828 28.914 99.5908 29.196 99.6508 29.484C99.7228 29.772 99.7648 30.054 99.7768 30.33C99.7888 30.594 99.7948 30.828 99.7948 31.032V36H97.8508V34.812ZM97.7248 32.13H97.2748C96.9748 32.13 96.6388 32.142 96.2668 32.166C95.8948 32.19 95.5408 32.25 95.2048 32.346C94.8808 32.43 94.6048 32.562 94.3768 32.742C94.1488 32.91 94.0348 33.15 94.0348 33.462C94.0348 33.666 94.0768 33.84 94.1608 33.984C94.2568 34.116 94.3768 34.23 94.5208 34.326C94.6648 34.422 94.8268 34.494 95.0068 34.542C95.1868 34.578 95.3668 34.596 95.5468 34.596C96.2908 34.596 96.8368 34.422 97.1848 34.074C97.5448 33.714 97.7248 33.228 97.7248 32.616V32.13ZM108.203 29.952C107.951 29.688 107.687 29.478 107.411 29.322C107.135 29.166 106.853 29.088 106.565 29.088C106.169 29.088 105.815 29.16 105.503 29.304C105.191 29.448 104.921 29.64 104.693 29.88C104.477 30.12 104.309 30.396 104.189 30.708C104.081 31.02 104.027 31.344 104.027 31.68C104.027 32.016 104.081 32.34 104.189 32.652C104.309 32.964 104.477 33.24 104.693 33.48C104.921 33.72 105.191 33.912 105.503 34.056C105.815 34.2 106.169 34.272 106.565 34.272C106.901 34.272 107.213 34.206 107.501 34.074C107.789 33.93 108.035 33.726 108.239 33.462L109.679 35.01C109.463 35.226 109.211 35.412 108.923 35.568C108.647 35.724 108.365 35.85 108.077 35.946C107.789 36.042 107.513 36.108 107.249 36.144C106.985 36.192 106.757 36.216 106.565 36.216C105.917 36.216 105.305 36.108 104.729 35.892C104.153 35.676 103.655 35.37 103.235 34.974C102.815 34.578 102.479 34.104 102.227 33.552C101.987 32.988 101.867 32.364 101.867 31.68C101.867 30.996 101.987 30.378 102.227 29.826C102.479 29.262 102.815 28.782 103.235 28.386C103.655 27.99 104.153 27.684 104.729 27.468C105.305 27.252 105.917 27.144 106.565 27.144C107.117 27.144 107.669 27.252 108.221 27.468C108.785 27.672 109.277 28.002 109.697 28.458L108.203 29.952ZM110.154 29.196V27.36H111.936V24.858H114.096V27.36H116.472V29.196H114.096V32.976C114.096 33.408 114.174 33.75 114.33 34.002C114.498 34.254 114.822 34.38 115.302 34.38C115.494 34.38 115.704 34.362 115.932 34.326C116.16 34.278 116.34 34.206 116.472 34.11V35.928C116.244 36.036 115.962 36.108 115.626 36.144C115.302 36.192 115.014 36.216 114.762 36.216C114.186 36.216 113.712 36.15 113.34 36.018C112.98 35.898 112.692 35.712 112.476 35.46C112.272 35.196 112.128 34.872 112.044 34.488C111.972 34.104 111.936 33.66 111.936 33.156V29.196H110.154Z" fill="black" fill-opacity="0.2"/>
        <path d="M26.72 29.628C26.72 28.62 26.798 27.762 26.954 27.054C27.122 26.334 27.338 25.734 27.602 25.254C27.866 24.762 28.16 24.372 28.484 24.084C28.82 23.784 29.156 23.562 29.492 23.418C29.84 23.262 30.17 23.16 30.482 23.112C30.806 23.064 31.088 23.04 31.328 23.04C31.568 23.04 31.844 23.064 32.156 23.112C32.48 23.16 32.81 23.262 33.146 23.418C33.494 23.562 33.83 23.784 34.154 24.084C34.49 24.372 34.79 24.762 35.054 25.254C35.318 25.734 35.528 26.334 35.684 27.054C35.852 27.762 35.936 28.62 35.936 29.628C35.936 30.636 35.852 31.5 35.684 32.22C35.528 32.928 35.318 33.528 35.054 34.02C34.79 34.5 34.49 34.89 34.154 35.19C33.83 35.478 33.494 35.7 33.146 35.856C32.81 36 32.48 36.096 32.156 36.144C31.844 36.192 31.568 36.216 31.328 36.216C31.088 36.216 30.806 36.192 30.482 36.144C30.17 36.096 29.84 36 29.492 35.856C29.156 35.7 28.82 35.478 28.484 35.19C28.16 34.89 27.866 34.5 27.602 34.02C27.338 33.528 27.122 32.928 26.954 32.22C26.798 31.5 26.72 30.636 26.72 29.628ZM28.88 29.628C28.88 30.024 28.904 30.486 28.952 31.014C29.012 31.53 29.126 32.022 29.294 32.49C29.462 32.958 29.708 33.354 30.032 33.678C30.356 34.002 30.788 34.164 31.328 34.164C31.868 34.164 32.3 34.002 32.624 33.678C32.948 33.354 33.194 32.958 33.362 32.49C33.53 32.022 33.638 31.53 33.686 31.014C33.746 30.486 33.776 30.024 33.776 29.628C33.776 29.232 33.746 28.776 33.686 28.26C33.638 27.732 33.53 27.234 33.362 26.766C33.194 26.298 32.948 25.902 32.624 25.578C32.3 25.254 31.868 25.092 31.328 25.092C30.788 25.092 30.356 25.254 30.032 25.578C29.708 25.902 29.462 26.298 29.294 26.766C29.126 27.234 29.012 27.732 28.952 28.26C28.904 28.776 28.88 29.232 28.88 29.628ZM40.8283 28.386H41.3863C41.6983 28.386 41.9983 28.368 42.2863 28.332C42.5863 28.296 42.8503 28.218 43.0783 28.098C43.3183 27.978 43.5103 27.804 43.6543 27.576C43.7983 27.348 43.8703 27.042 43.8703 26.658C43.8703 26.166 43.7023 25.764 43.3663 25.452C43.0303 25.14 42.5923 24.984 42.0523 24.984C41.6203 24.984 41.2303 25.11 40.8823 25.362C40.5463 25.602 40.3003 25.944 40.1443 26.388L37.8583 25.776C38.0023 25.308 38.2063 24.9 38.4703 24.552C38.7343 24.204 39.0463 23.922 39.4063 23.706C39.7663 23.478 40.1623 23.31 40.5943 23.202C41.0263 23.094 41.4763 23.04 41.9443 23.04C42.4963 23.04 43.0183 23.112 43.5103 23.256C44.0023 23.4 44.4343 23.616 44.8063 23.904C45.1783 24.18 45.4723 24.534 45.6883 24.966C45.9163 25.386 46.0303 25.878 46.0303 26.442C46.0303 27.126 45.8383 27.738 45.4543 28.278C45.0703 28.806 44.5363 29.154 43.8523 29.322V29.358C44.6683 29.478 45.2863 29.826 45.7063 30.402C46.1263 30.978 46.3363 31.662 46.3363 32.454C46.3363 33.066 46.2163 33.606 45.9763 34.074C45.7483 34.542 45.4363 34.938 45.0403 35.262C44.6443 35.574 44.1823 35.814 43.6543 35.982C43.1383 36.138 42.5983 36.216 42.0343 36.216C41.5063 36.216 41.0083 36.156 40.5403 36.036C40.0723 35.928 39.6463 35.754 39.2623 35.514C38.8903 35.274 38.5663 34.968 38.2903 34.596C38.0143 34.212 37.8043 33.756 37.6603 33.228L39.9643 32.616C40.0963 33.144 40.3303 33.552 40.6663 33.84C41.0023 34.128 41.4583 34.272 42.0343 34.272C42.3223 34.272 42.5923 34.224 42.8443 34.128C43.1083 34.032 43.3363 33.9 43.5283 33.732C43.7323 33.552 43.8883 33.342 43.9963 33.102C44.1163 32.85 44.1763 32.574 44.1763 32.274C44.1763 31.866 44.0863 31.536 43.9063 31.284C43.7383 31.02 43.5163 30.822 43.2403 30.69C42.9763 30.546 42.6763 30.45 42.3403 30.402C42.0043 30.354 41.6743 30.33 41.3503 30.33H40.8283V28.386ZM48.8887 34.74C48.8887 34.356 49.0267 34.026 49.3027 33.75C49.5907 33.474 49.9327 33.336 50.3287 33.336C50.7127 33.336 51.0487 33.468 51.3367 33.732C51.6247 33.996 51.7687 34.32 51.7687 34.704C51.7687 35.088 51.6247 35.418 51.3367 35.694C51.0607 35.97 50.7247 36.108 50.3287 36.108C50.1367 36.108 49.9507 36.072 49.7707 36C49.6027 35.928 49.4527 35.832 49.3207 35.712C49.1887 35.592 49.0807 35.448 48.9967 35.28C48.9247 35.112 48.8887 34.932 48.8887 34.74ZM60.045 23.256H62.313V36H60.045V23.256ZM65.0008 27.36H67.0528V28.71H67.0888C67.2808 28.302 67.5868 27.942 68.0068 27.63C68.4388 27.306 69.0148 27.144 69.7348 27.144C71.0908 27.144 71.9908 27.678 72.4348 28.746C72.7468 28.194 73.1368 27.792 73.6048 27.54C74.0728 27.276 74.6308 27.144 75.2788 27.144C75.8548 27.144 76.3408 27.24 76.7368 27.432C77.1328 27.624 77.4508 27.888 77.6908 28.224C77.9428 28.56 78.1228 28.956 78.2308 29.412C78.3388 29.856 78.3928 30.336 78.3928 30.852V36H76.2328V31.104C76.2328 30.84 76.2088 30.588 76.1608 30.348C76.1128 30.096 76.0288 29.88 75.9088 29.7C75.7888 29.508 75.6268 29.358 75.4228 29.25C75.2188 29.142 74.9548 29.088 74.6308 29.088C74.2948 29.088 74.0068 29.154 73.7668 29.286C73.5388 29.406 73.3468 29.574 73.1908 29.79C73.0468 29.994 72.9388 30.234 72.8668 30.51C72.8068 30.774 72.7768 31.044 72.7768 31.32V36H70.6168V30.852C70.6168 30.312 70.5028 29.886 70.2748 29.574C70.0468 29.25 69.6688 29.088 69.1408 29.088C68.7808 29.088 68.4748 29.148 68.2228 29.268C67.9828 29.388 67.7788 29.55 67.6108 29.754C67.4548 29.958 67.3408 30.192 67.2688 30.456C67.1968 30.72 67.1608 30.996 67.1608 31.284V36H65.0008V27.36ZM80.9329 27.36H82.9849V28.656H83.0209C83.3329 28.128 83.7529 27.744 84.2809 27.504C84.8089 27.264 85.3789 27.144 85.9909 27.144C86.6509 27.144 87.2449 27.264 87.7729 27.504C88.3009 27.732 88.7509 28.05 89.1229 28.458C89.4949 28.866 89.7769 29.346 89.9689 29.898C90.1609 30.45 90.2569 31.044 90.2569 31.68C90.2569 32.316 90.1549 32.91 89.9509 33.462C89.7469 34.014 89.4589 34.494 89.0869 34.902C88.7269 35.31 88.2889 35.634 87.7729 35.874C87.2569 36.102 86.6929 36.216 86.0809 36.216C85.6729 36.216 85.3129 36.174 85.0009 36.09C84.6889 36.006 84.4129 35.898 84.1729 35.766C83.9329 35.634 83.7289 35.496 83.5609 35.352C83.3929 35.196 83.2549 35.046 83.1469 34.902H83.0929V40.104H80.9329V27.36ZM88.0969 31.68C88.0969 31.344 88.0369 31.02 87.9169 30.708C87.8089 30.396 87.6409 30.12 87.4129 29.88C87.1969 29.64 86.9329 29.448 86.6209 29.304C86.3089 29.16 85.9549 29.088 85.5589 29.088C85.1629 29.088 84.8089 29.16 84.4969 29.304C84.1849 29.448 83.9149 29.64 83.6869 29.88C83.4709 30.12 83.3029 30.396 83.1829 30.708C83.0749 31.02 83.0209 31.344 83.0209 31.68C83.0209 32.016 83.0749 32.34 83.1829 32.652C83.3029 32.964 83.4709 33.24 83.6869 33.48C83.9149 33.72 84.1849 33.912 84.4969 34.056C84.8089 34.2 85.1629 34.272 85.5589 34.272C85.9549 34.272 86.3089 34.2 86.6209 34.056C86.9329 33.912 87.1969 33.72 87.4129 33.48C87.6409 33.24 87.8089 32.964 87.9169 32.652C88.0369 32.34 88.0969 32.016 88.0969 31.68ZM97.8508 34.812H97.7968C97.4848 35.304 97.0888 35.664 96.6088 35.892C96.1288 36.108 95.6008 36.216 95.0248 36.216C94.6288 36.216 94.2388 36.162 93.8548 36.054C93.4828 35.946 93.1468 35.784 92.8468 35.568C92.5588 35.352 92.3248 35.082 92.1448 34.758C91.9648 34.434 91.8748 34.056 91.8748 33.624C91.8748 33.156 91.9588 32.76 92.1268 32.436C92.2948 32.1 92.5168 31.824 92.7928 31.608C93.0808 31.38 93.4108 31.2 93.7828 31.068C94.1548 30.936 94.5388 30.84 94.9348 30.78C95.3428 30.708 95.7508 30.666 96.1588 30.654C96.5668 30.63 96.9508 30.618 97.3108 30.618H97.8508V30.384C97.8508 29.844 97.6648 29.442 97.2928 29.178C96.9208 28.902 96.4468 28.764 95.8708 28.764C95.4148 28.764 94.9888 28.848 94.5928 29.016C94.1968 29.172 93.8548 29.388 93.5668 29.664L92.4328 28.53C92.9128 28.038 93.4708 27.684 94.1068 27.468C94.7548 27.252 95.4208 27.144 96.1048 27.144C96.7168 27.144 97.2328 27.216 97.6528 27.36C98.0728 27.492 98.4208 27.666 98.6968 27.882C98.9728 28.098 99.1828 28.35 99.3268 28.638C99.4828 28.914 99.5908 29.196 99.6508 29.484C99.7228 29.772 99.7648 30.054 99.7768 30.33C99.7888 30.594 99.7948 30.828 99.7948 31.032V36H97.8508V34.812ZM97.7248 32.13H97.2748C96.9748 32.13 96.6388 32.142 96.2668 32.166C95.8948 32.19 95.5408 32.25 95.2048 32.346C94.8808 32.43 94.6048 32.562 94.3768 32.742C94.1488 32.91 94.0348 33.15 94.0348 33.462C94.0348 33.666 94.0768 33.84 94.1608 33.984C94.2568 34.116 94.3768 34.23 94.5208 34.326C94.6648 34.422 94.8268 34.494 95.0068 34.542C95.1868 34.578 95.3668 34.596 95.5468 34.596C96.2908 34.596 96.8368 34.422 97.1848 34.074C97.5448 33.714 97.7248 33.228 97.7248 32.616V32.13ZM108.203 29.952C107.951 29.688 107.687 29.478 107.411 29.322C107.135 29.166 106.853 29.088 106.565 29.088C106.169 29.088 105.815 29.16 105.503 29.304C105.191 29.448 104.921 29.64 104.693 29.88C104.477 30.12 104.309 30.396 104.189 30.708C104.081 31.02 104.027 31.344 104.027 31.68C104.027 32.016 104.081 32.34 104.189 32.652C104.309 32.964 104.477 33.24 104.693 33.48C104.921 33.72 105.191 33.912 105.503 34.056C105.815 34.2 106.169 34.272 106.565 34.272C106.901 34.272 107.213 34.206 107.501 34.074C107.789 33.93 108.035 33.726 108.239 33.462L109.679 35.01C109.463 35.226 109.211 35.412 108.923 35.568C108.647 35.724 108.365 35.85 108.077 35.946C107.789 36.042 107.513 36.108 107.249 36.144C106.985 36.192 106.757 36.216 106.565 36.216C105.917 36.216 105.305 36.108 104.729 35.892C104.153 35.676 103.655 35.37 103.235 34.974C102.815 34.578 102.479 34.104 102.227 33.552C101.987 32.988 101.867 32.364 101.867 31.68C101.867 30.996 101.987 30.378 102.227 29.826C102.479 29.262 102.815 28.782 103.235 28.386C103.655 27.99 104.153 27.684 104.729 27.468C105.305 27.252 105.917 27.144 106.565 27.144C107.117 27.144 107.669 27.252 108.221 27.468C108.785 27.672 109.277 28.002 109.697 28.458L108.203 29.952ZM110.154 29.196V27.36H111.936V24.858H114.096V27.36H116.472V29.196H114.096V32.976C114.096 33.408 114.174 33.75 114.33 34.002C114.498 34.254 114.822 34.38 115.302 34.38C115.494 34.38 115.704 34.362 115.932 34.326C116.16 34.278 116.34 34.206 116.472 34.11V35.928C116.244 36.036 115.962 36.108 115.626 36.144C115.302 36.192 115.014 36.216 114.762 36.216C114.186 36.216 113.712 36.15 113.34 36.018C112.98 35.898 112.692 35.712 112.476 35.46C112.272 35.196 112.128 34.872 112.044 34.488C111.972 34.104 111.936 33.66 111.936 33.156V29.196H110.154Z" fill="black" fill-opacity="0.2"/>
        <path d="M272 52H32C28.6863 52 26 54.6863 26 58C26 61.3137 28.6863 64 32 64H272C275.314 64 278 61.3137 278 58C278 54.6863 275.314 52 272 52Z" fill="#EDF9E8"/>
        <path d="M236 79H32C28.6863 79 26 81.6863 26 85C26 88.3137 28.6863 91 32 91H236C239.314 91 242 88.3137 242 85C242 81.6863 239.314 79 236 79Z" fill="#EDF9E8"/>
        <path d="M191 106H32C28.6863 106 26 108.686 26 112C26 115.314 28.6863 118 32 118H191C194.314 118 197 115.314 197 112C197 108.686 194.314 106 191 106Z" fill="#EDF9E8"/>
        <path d="M273.268 121.888C271.942 121.646 270.633 122.534 270.793 123.863C270.899 124.742 271.151 125.603 271.542 126.411C272.29 127.953 273.511 129.221 275.028 130.031C276.546 130.841 278.283 131.151 279.988 130.918C281.693 130.685 283.279 129.92 284.517 128.734C285.756 127.547 286.583 126 286.879 124.315C287.175 122.63 286.925 120.894 286.166 119.358C285.406 117.822 284.176 116.564 282.652 115.765C281.854 115.347 280.996 115.066 280.116 114.929C278.785 114.722 277.844 115.99 278.04 117.315L278.097 117.699C278.262 118.812 279.38 119.529 280.381 120.054C280.991 120.373 281.483 120.876 281.787 121.491C282.091 122.105 282.191 122.8 282.072 123.474C281.954 124.147 281.623 124.766 281.128 125.241C280.632 125.716 279.998 126.022 279.316 126.115C278.634 126.208 277.939 126.084 277.332 125.76C276.725 125.436 276.237 124.929 275.938 124.312C275.446 123.298 274.765 122.162 273.652 121.958L273.268 121.888Z" fill="#ABEB4C"/>
        <path d="M277.954 116.763C277.723 118.093 278.621 119.396 279.947 119.224C280.824 119.11 281.682 118.851 282.485 118.452C284.018 117.689 285.273 116.456 286.068 114.929C286.863 113.401 287.159 111.66 286.911 109.954C286.663 108.248 285.886 106.666 284.69 105.436C283.495 104.206 281.943 103.392 280.258 103.11C278.573 102.828 276.843 103.093 275.315 103.867C273.788 104.641 272.543 105.884 271.759 107.418C271.349 108.221 271.076 109.082 270.947 109.964C270.751 111.3 272.025 112.231 273.346 112.023L273.729 111.963C274.839 111.788 275.545 110.662 276.06 109.654C276.374 109.041 276.872 108.544 277.483 108.234C278.094 107.924 278.786 107.818 279.46 107.931C280.134 108.044 280.755 108.37 281.233 108.862C281.711 109.354 282.022 109.986 282.121 110.669C282.22 111.351 282.102 112.048 281.784 112.659C281.466 113.269 280.964 113.763 280.351 114.068C279.343 114.569 278.214 115.261 278.021 116.377L277.954 116.763Z" fill="#47932B"/>
        <path d="M272.748 112.051C274.077 112.273 275.372 111.336 275.191 110.009C275.071 109.132 274.806 108.274 274.402 107.473C273.63 105.943 272.39 104.695 270.86 103.909C269.33 103.123 267.588 102.839 265.887 103.099C264.186 103.359 262.612 104.149 261.392 105.355C260.173 106.561 259.37 108.121 259.1 109.81C258.831 111.5 259.108 113.231 259.891 114.755C260.675 116.28 261.925 117.518 263.461 118.292C264.266 118.698 265.127 118.965 266.009 119.088C267.344 119.275 268.264 117.992 268.048 116.671L267.985 116.287C267.803 115.177 266.674 114.478 265.664 113.969C265.049 113.659 264.549 113.164 264.236 112.554C263.923 111.944 263.812 111.252 263.92 110.576C264.028 109.9 264.349 109.276 264.836 108.794C265.324 108.311 265.954 107.995 266.634 107.891C267.315 107.788 268.011 107.901 268.623 108.215C269.236 108.53 269.732 109.029 270.04 109.641C270.548 110.647 271.246 111.805 272.362 111.991L272.451 112.011L272.748 112.051Z" fill="#ABEB4C"/>
        <path d="M268.097 117.237C268.235 115.854 267.381 114.604 266.055 114.776C265.178 114.89 264.32 115.149 263.517 115.548C261.984 116.311 260.729 117.544 259.934 119.072C259.139 120.599 258.843 122.34 259.091 124.046C259.339 125.752 260.116 127.334 261.312 128.564C262.507 129.794 264.059 130.608 265.744 130.89C267.429 131.172 269.159 130.907 270.686 130.133C272.214 129.359 273.459 128.116 274.243 126.582C274.653 125.779 274.926 124.918 275.055 124.036C275.251 122.7 273.977 121.769 272.656 121.977L272.272 122.037C271.163 122.212 270.457 123.338 269.942 124.346C269.628 124.959 269.13 125.456 268.519 125.766C267.908 126.076 267.216 126.182 266.542 126.069C265.868 125.956 265.247 125.63 264.769 125.138C264.291 124.646 263.98 124.014 263.881 123.331C263.782 122.649 263.9 121.952 264.218 121.341C264.536 120.731 265.038 120.237 265.651 119.932C266.659 119.431 267.856 118.74 268.05 117.623L268.097 117.237Z" fill="#47932B"/>
        <path d="M273.268 121.888C271.942 121.646 270.633 122.534 270.793 123.863C270.899 124.742 271.151 125.603 271.542 126.411C272.29 127.953 273.511 129.221 275.028 130.031C276.546 130.841 278.283 131.151 279.988 130.918C281.693 130.685 283.279 129.92 284.517 128.734C285.756 127.547 286.583 126 286.879 124.315C287.175 122.63 286.925 120.894 286.166 119.358C285.406 117.822 284.254 119.673 282.73 118.875C281.932 118.456 284.819 119.495 283.939 119.358C282.608 119.15 283.743 118.729 283.939 120.054L282.072 119.358C282.237 120.471 279.38 119.529 280.381 120.054C280.991 120.373 281.483 120.876 281.787 121.491C282.091 122.105 282.191 122.8 282.072 123.474C281.954 124.147 281.623 124.766 281.128 125.241C280.632 125.716 279.998 126.022 279.316 126.115C278.634 126.208 277.939 126.084 277.332 125.76C276.725 125.436 276.237 124.929 275.938 124.312C275.446 123.298 274.765 122.162 273.652 121.958L273.268 121.888Z" fill="#ABEB4C"/>
        <path d="M219.5 97L221.611 104H229L222.667 108L224.778 115L219.5 111L214.222 115L216.333 108L210 104H217.389L219.5 97Z" fill="#EDF9E8" stroke="#47932B"/>
        <path d="M219.5 97L221.611 104H229L222.667 108L224.778 115L219.5 111L214.222 115L216.333 108L210 104H217.389L219.5 97Z" fill="#EDF9E8" stroke="#47932B"/>
        <path d="M277.5 14L279.611 21H287L280.667 25L282.778 32L277.5 28L272.222 32L274.333 25L268 21H275.389L277.5 14Z" fill="#EDF9E8" stroke="#47932B"/>
        <path d="M46.5 94L48.6111 101H56L49.6667 105L51.7778 112L46.5 108L41.2222 112L43.3333 105L37 101H44.3889L46.5 94Z" fill="#EDF9E8" stroke="#47932B"/>
        <path d="M263.5 64L265.611 71H273L266.667 75L268.778 82L263.5 78L258.222 82L260.333 75L254 71H261.389L263.5 64Z" fill="#EDF9E8" stroke="#47932B"/>
    </g>
    <defs>
        <filter id="filter0_d_12_3" x="0" y="-4" width="312" height="160" filterUnits="userSpaceOnUse" color-interpolation-filters="sRGB">
            <feFlood flood-opacity="0" result="BackgroundImageFix"/>
            <feColorMatrix in="SourceAlpha" type="matrix" values="0 0 0 0 0 0 0 0 0 0 0 0 0 0 0 0 0 0 127 0" result="hardAlpha"/>
            <feOffset dy="6"/>
            <feGaussianBlur stdDeviation="5"/>
            <feComposite in2="hardAlpha" operator="out"/>
            <feColorMatrix type="matrix" values="0 0 0 0 0 0 0 0 0 0 0 0 0 0 0 0 0 0 0.05 0"/>
            <feBlend mode="normal" in2="BackgroundImageFix" result="effect1_dropShadow_12_3"/>
            <feBlend mode="normal" in="SourceGraphic" in2="effect1_dropShadow_12_3" result="shape"/>
        </filter>
    </defs>
</svg>
