<svg width="312" height="160" viewBox="0 0 312 160" fill="none" xmlns="http://www.w3.org/2000/svg">
    <g filter="url(#filter0_d_176_287)">
        <rect x="10" y="4" width="292" height="140" rx="12" fill="#FDFFFB"/>
        <path d="M26.72 33.628C26.72 32.62 26.798 31.762 26.954 31.054C27.122 30.334 27.338 29.734 27.602 29.254C27.866 28.762 28.16 28.372 28.484 28.084C28.82 27.784 29.156 27.562 29.492 27.418C29.84 27.262 30.17 27.16 30.482 27.112C30.806 27.064 31.088 27.04 31.328 27.04C31.568 27.04 31.844 27.064 32.156 27.112C32.48 27.16 32.81 27.262 33.146 27.418C33.494 27.562 33.83 27.784 34.154 28.084C34.49 28.372 34.79 28.762 35.054 29.254C35.318 29.734 35.528 30.334 35.684 31.054C35.852 31.762 35.936 32.62 35.936 33.628C35.936 34.636 35.852 35.5 35.684 36.22C35.528 36.928 35.318 37.528 35.054 38.02C34.79 38.5 34.49 38.89 34.154 39.19C33.83 39.478 33.494 39.7 33.146 39.856C32.81 40 32.48 40.096 32.156 40.144C31.844 40.192 31.568 40.216 31.328 40.216C31.088 40.216 30.806 40.192 30.482 40.144C30.17 40.096 29.84 40 29.492 39.856C29.156 39.7 28.82 39.478 28.484 39.19C28.16 38.89 27.866 38.5 27.602 38.02C27.338 37.528 27.122 36.928 26.954 36.22C26.798 35.5 26.72 34.636 26.72 33.628ZM28.88 33.628C28.88 34.024 28.904 34.486 28.952 35.014C29.012 35.53 29.126 36.022 29.294 36.49C29.462 36.958 29.708 37.354 30.032 37.678C30.356 38.002 30.788 38.164 31.328 38.164C31.868 38.164 32.3 38.002 32.624 37.678C32.948 37.354 33.194 36.958 33.362 36.49C33.53 36.022 33.638 35.53 33.686 35.014C33.746 34.486 33.776 34.024 33.776 33.628C33.776 33.232 33.746 32.776 33.686 32.26C33.638 31.732 33.53 31.234 33.362 30.766C33.194 30.298 32.948 29.902 32.624 29.578C32.3 29.254 31.868 29.092 31.328 29.092C30.788 29.092 30.356 29.254 30.032 29.578C29.708 29.902 29.462 30.298 29.294 30.766C29.126 31.234 29.012 31.732 28.952 32.26C28.904 32.776 28.88 33.232 28.88 33.628ZM37.8943 37.714L42.8443 32.926C42.9883 32.782 43.1383 32.632 43.2943 32.476C43.4503 32.308 43.5883 32.134 43.7083 31.954C43.8403 31.774 43.9483 31.588 44.0323 31.396C44.1163 31.192 44.1583 30.982 44.1583 30.766C44.1583 30.502 44.1043 30.268 43.9963 30.064C43.9003 29.86 43.7683 29.686 43.6003 29.542C43.4323 29.398 43.2343 29.29 43.0063 29.218C42.7903 29.134 42.5563 29.092 42.3043 29.092C41.7643 29.092 41.3203 29.248 40.9723 29.56C40.6243 29.872 40.4143 30.292 40.3423 30.82L38.0743 30.64C38.1223 30.052 38.2603 29.536 38.4883 29.092C38.7283 28.636 39.0343 28.258 39.4063 27.958C39.7783 27.658 40.2103 27.43 40.7023 27.274C41.1943 27.118 41.7283 27.04 42.3043 27.04C42.8803 27.04 43.4143 27.118 43.9063 27.274C44.4103 27.418 44.8483 27.64 45.2203 27.94C45.5923 28.228 45.8863 28.6 46.1023 29.056C46.3183 29.512 46.4263 30.046 46.4263 30.658C46.4263 31.462 46.2403 32.158 45.8683 32.746C45.5083 33.322 45.0403 33.874 44.4643 34.402L40.5223 38.056H46.4263V40H37.8943V37.714ZM48.8887 38.74C48.8887 38.356 49.0267 38.026 49.3027 37.75C49.5907 37.474 49.9327 37.336 50.3287 37.336C50.7127 37.336 51.0487 37.468 51.3367 37.732C51.6247 37.996 51.7687 38.32 51.7687 38.704C51.7687 39.088 51.6247 39.418 51.3367 39.694C51.0607 39.97 50.7247 40.108 50.3287 40.108C50.1367 40.108 49.9507 40.072 49.7707 40C49.6027 39.928 49.4527 39.832 49.3207 39.712C49.1887 39.592 49.0807 39.448 48.9967 39.28C48.9247 39.112 48.8887 38.932 48.8887 38.74ZM66.345 29.992C66.105 29.644 65.781 29.392 65.373 29.236C64.977 29.068 64.557 28.984 64.113 28.984C63.849 28.984 63.591 29.014 63.339 29.074C63.099 29.134 62.877 29.23 62.673 29.362C62.481 29.494 62.325 29.668 62.205 29.884C62.085 30.088 62.025 30.334 62.025 30.622C62.025 31.054 62.175 31.384 62.475 31.612C62.775 31.84 63.147 32.038 63.591 32.206C64.035 32.374 64.521 32.536 65.049 32.692C65.577 32.848 66.063 33.064 66.507 33.34C66.951 33.616 67.323 33.982 67.623 34.438C67.923 34.894 68.073 35.5 68.073 36.256C68.073 36.94 67.947 37.54 67.695 38.056C67.443 38.56 67.101 38.98 66.669 39.316C66.249 39.652 65.757 39.904 65.193 40.072C64.629 40.24 64.035 40.324 63.411 40.324C62.619 40.324 61.857 40.192 61.125 39.928C60.393 39.664 59.763 39.22 59.235 38.596L60.945 36.94C61.221 37.36 61.581 37.69 62.025 37.93C62.481 38.158 62.961 38.272 63.465 38.272C63.729 38.272 63.993 38.236 64.257 38.164C64.521 38.092 64.761 37.984 64.977 37.84C65.193 37.696 65.367 37.516 65.499 37.3C65.631 37.072 65.697 36.814 65.697 36.526C65.697 36.058 65.547 35.698 65.247 35.446C64.947 35.194 64.575 34.984 64.131 34.816C63.687 34.636 63.201 34.468 62.673 34.312C62.145 34.156 61.659 33.946 61.215 33.682C60.771 33.406 60.399 33.046 60.099 32.602C59.799 32.146 59.649 31.54 59.649 30.784C59.649 30.124 59.781 29.554 60.045 29.074C60.321 28.594 60.675 28.198 61.107 27.886C61.551 27.562 62.055 27.322 62.619 27.166C63.183 27.01 63.759 26.932 64.347 26.932C65.019 26.932 65.667 27.034 66.291 27.238C66.927 27.442 67.497 27.778 68.001 28.246L66.345 29.992ZM72.577 32.566H72.613C72.781 32.206 73.075 31.882 73.495 31.594C73.927 31.294 74.479 31.144 75.151 31.144C75.727 31.144 76.213 31.24 76.609 31.432C77.017 31.624 77.347 31.876 77.599 32.188C77.851 32.5 78.031 32.86 78.139 33.268C78.247 33.676 78.301 34.102 78.301 34.546V40H76.141V35.626C76.141 35.386 76.129 35.122 76.105 34.834C76.081 34.534 76.015 34.258 75.907 34.006C75.811 33.742 75.655 33.526 75.439 33.358C75.223 33.178 74.929 33.088 74.557 33.088C74.197 33.088 73.891 33.148 73.639 33.268C73.399 33.388 73.195 33.55 73.027 33.754C72.871 33.958 72.757 34.192 72.685 34.456C72.613 34.72 72.577 34.996 72.577 35.284V40H70.417V26.392H72.577V32.566ZM86.3329 38.812H86.2789C85.9669 39.304 85.5709 39.664 85.0909 39.892C84.6109 40.108 84.0829 40.216 83.5069 40.216C83.1109 40.216 82.7209 40.162 82.3369 40.054C81.9649 39.946 81.6289 39.784 81.3289 39.568C81.0409 39.352 80.8069 39.082 80.6269 38.758C80.4469 38.434 80.3569 38.056 80.3569 37.624C80.3569 37.156 80.4409 36.76 80.6089 36.436C80.7769 36.1 80.9989 35.824 81.2749 35.608C81.5629 35.38 81.8929 35.2 82.2649 35.068C82.6369 34.936 83.0209 34.84 83.4169 34.78C83.8249 34.708 84.2329 34.666 84.6409 34.654C85.0489 34.63 85.4329 34.618 85.7929 34.618H86.3329V34.384C86.3329 33.844 86.1469 33.442 85.7749 33.178C85.4029 32.902 84.9289 32.764 84.3529 32.764C83.8969 32.764 83.4709 32.848 83.0749 33.016C82.6789 33.172 82.3369 33.388 82.0489 33.664L80.9149 32.53C81.3949 32.038 81.9529 31.684 82.5889 31.468C83.2369 31.252 83.9029 31.144 84.5869 31.144C85.1989 31.144 85.7149 31.216 86.1349 31.36C86.5549 31.492 86.9029 31.666 87.1789 31.882C87.4549 32.098 87.6649 32.35 87.8089 32.638C87.9649 32.914 88.0729 33.196 88.1329 33.484C88.2049 33.772 88.2469 34.054 88.2589 34.33C88.2709 34.594 88.2769 34.828 88.2769 35.032V40H86.3329V38.812ZM86.2069 36.13H85.7569C85.4569 36.13 85.1209 36.142 84.7489 36.166C84.3769 36.19 84.0229 36.25 83.6869 36.346C83.3629 36.43 83.0869 36.562 82.8589 36.742C82.6309 36.91 82.5169 37.15 82.5169 37.462C82.5169 37.666 82.5589 37.84 82.6429 37.984C82.7389 38.116 82.8589 38.23 83.0029 38.326C83.1469 38.422 83.3089 38.494 83.4889 38.542C83.6689 38.578 83.8489 38.596 84.0289 38.596C84.7729 38.596 85.3189 38.422 85.6669 38.074C86.0269 37.714 86.2069 37.228 86.2069 36.616V36.13ZM90.7809 31.36H92.9409V32.728H92.9769C93.2169 32.224 93.5589 31.834 94.0029 31.558C94.4469 31.282 94.9569 31.144 95.5329 31.144C95.6649 31.144 95.7909 31.156 95.9109 31.18C96.0429 31.204 96.1749 31.234 96.3069 31.27V33.358C96.1269 33.31 95.9469 33.274 95.7669 33.25C95.5989 33.214 95.4309 33.196 95.2629 33.196C94.7589 33.196 94.3509 33.292 94.0389 33.484C93.7389 33.664 93.5049 33.874 93.3369 34.114C93.1809 34.354 93.0729 34.594 93.0129 34.834C92.9649 35.074 92.9409 35.254 92.9409 35.374V40H90.7809V31.36ZM99.3686 36.436C99.4406 37.084 99.6926 37.588 100.125 37.948C100.557 38.308 101.079 38.488 101.691 38.488C102.231 38.488 102.681 38.38 103.041 38.164C103.413 37.936 103.737 37.654 104.013 37.318L105.561 38.488C105.057 39.112 104.493 39.556 103.869 39.82C103.245 40.084 102.591 40.216 101.907 40.216C101.259 40.216 100.647 40.108 100.071 39.892C99.4946 39.676 98.9966 39.37 98.5766 38.974C98.1566 38.578 97.8206 38.104 97.5686 37.552C97.3286 36.988 97.2086 36.364 97.2086 35.68C97.2086 34.996 97.3286 34.378 97.5686 33.826C97.8206 33.262 98.1566 32.782 98.5766 32.386C98.9966 31.99 99.4946 31.684 100.071 31.468C100.647 31.252 101.259 31.144 101.907 31.144C102.507 31.144 103.053 31.252 103.545 31.468C104.049 31.672 104.475 31.972 104.823 32.368C105.183 32.764 105.459 33.256 105.651 33.844C105.855 34.42 105.957 35.086 105.957 35.842V36.436H99.3686ZM103.797 34.816C103.785 34.18 103.587 33.682 103.203 33.322C102.819 32.95 102.285 32.764 101.601 32.764C100.953 32.764 100.437 32.95 100.053 33.322C99.6806 33.694 99.4526 34.192 99.3686 34.816H103.797Z" fill="#17AD37"/>
        <path d="M26.72 33.628C26.72 32.62 26.798 31.762 26.954 31.054C27.122 30.334 27.338 29.734 27.602 29.254C27.866 28.762 28.16 28.372 28.484 28.084C28.82 27.784 29.156 27.562 29.492 27.418C29.84 27.262 30.17 27.16 30.482 27.112C30.806 27.064 31.088 27.04 31.328 27.04C31.568 27.04 31.844 27.064 32.156 27.112C32.48 27.16 32.81 27.262 33.146 27.418C33.494 27.562 33.83 27.784 34.154 28.084C34.49 28.372 34.79 28.762 35.054 29.254C35.318 29.734 35.528 30.334 35.684 31.054C35.852 31.762 35.936 32.62 35.936 33.628C35.936 34.636 35.852 35.5 35.684 36.22C35.528 36.928 35.318 37.528 35.054 38.02C34.79 38.5 34.49 38.89 34.154 39.19C33.83 39.478 33.494 39.7 33.146 39.856C32.81 40 32.48 40.096 32.156 40.144C31.844 40.192 31.568 40.216 31.328 40.216C31.088 40.216 30.806 40.192 30.482 40.144C30.17 40.096 29.84 40 29.492 39.856C29.156 39.7 28.82 39.478 28.484 39.19C28.16 38.89 27.866 38.5 27.602 38.02C27.338 37.528 27.122 36.928 26.954 36.22C26.798 35.5 26.72 34.636 26.72 33.628ZM28.88 33.628C28.88 34.024 28.904 34.486 28.952 35.014C29.012 35.53 29.126 36.022 29.294 36.49C29.462 36.958 29.708 37.354 30.032 37.678C30.356 38.002 30.788 38.164 31.328 38.164C31.868 38.164 32.3 38.002 32.624 37.678C32.948 37.354 33.194 36.958 33.362 36.49C33.53 36.022 33.638 35.53 33.686 35.014C33.746 34.486 33.776 34.024 33.776 33.628C33.776 33.232 33.746 32.776 33.686 32.26C33.638 31.732 33.53 31.234 33.362 30.766C33.194 30.298 32.948 29.902 32.624 29.578C32.3 29.254 31.868 29.092 31.328 29.092C30.788 29.092 30.356 29.254 30.032 29.578C29.708 29.902 29.462 30.298 29.294 30.766C29.126 31.234 29.012 31.732 28.952 32.26C28.904 32.776 28.88 33.232 28.88 33.628ZM37.8943 37.714L42.8443 32.926C42.9883 32.782 43.1383 32.632 43.2943 32.476C43.4503 32.308 43.5883 32.134 43.7083 31.954C43.8403 31.774 43.9483 31.588 44.0323 31.396C44.1163 31.192 44.1583 30.982 44.1583 30.766C44.1583 30.502 44.1043 30.268 43.9963 30.064C43.9003 29.86 43.7683 29.686 43.6003 29.542C43.4323 29.398 43.2343 29.29 43.0063 29.218C42.7903 29.134 42.5563 29.092 42.3043 29.092C41.7643 29.092 41.3203 29.248 40.9723 29.56C40.6243 29.872 40.4143 30.292 40.3423 30.82L38.0743 30.64C38.1223 30.052 38.2603 29.536 38.4883 29.092C38.7283 28.636 39.0343 28.258 39.4063 27.958C39.7783 27.658 40.2103 27.43 40.7023 27.274C41.1943 27.118 41.7283 27.04 42.3043 27.04C42.8803 27.04 43.4143 27.118 43.9063 27.274C44.4103 27.418 44.8483 27.64 45.2203 27.94C45.5923 28.228 45.8863 28.6 46.1023 29.056C46.3183 29.512 46.4263 30.046 46.4263 30.658C46.4263 31.462 46.2403 32.158 45.8683 32.746C45.5083 33.322 45.0403 33.874 44.4643 34.402L40.5223 38.056H46.4263V40H37.8943V37.714ZM48.8887 38.74C48.8887 38.356 49.0267 38.026 49.3027 37.75C49.5907 37.474 49.9327 37.336 50.3287 37.336C50.7127 37.336 51.0487 37.468 51.3367 37.732C51.6247 37.996 51.7687 38.32 51.7687 38.704C51.7687 39.088 51.6247 39.418 51.3367 39.694C51.0607 39.97 50.7247 40.108 50.3287 40.108C50.1367 40.108 49.9507 40.072 49.7707 40C49.6027 39.928 49.4527 39.832 49.3207 39.712C49.1887 39.592 49.0807 39.448 48.9967 39.28C48.9247 39.112 48.8887 38.932 48.8887 38.74ZM66.345 29.992C66.105 29.644 65.781 29.392 65.373 29.236C64.977 29.068 64.557 28.984 64.113 28.984C63.849 28.984 63.591 29.014 63.339 29.074C63.099 29.134 62.877 29.23 62.673 29.362C62.481 29.494 62.325 29.668 62.205 29.884C62.085 30.088 62.025 30.334 62.025 30.622C62.025 31.054 62.175 31.384 62.475 31.612C62.775 31.84 63.147 32.038 63.591 32.206C64.035 32.374 64.521 32.536 65.049 32.692C65.577 32.848 66.063 33.064 66.507 33.34C66.951 33.616 67.323 33.982 67.623 34.438C67.923 34.894 68.073 35.5 68.073 36.256C68.073 36.94 67.947 37.54 67.695 38.056C67.443 38.56 67.101 38.98 66.669 39.316C66.249 39.652 65.757 39.904 65.193 40.072C64.629 40.24 64.035 40.324 63.411 40.324C62.619 40.324 61.857 40.192 61.125 39.928C60.393 39.664 59.763 39.22 59.235 38.596L60.945 36.94C61.221 37.36 61.581 37.69 62.025 37.93C62.481 38.158 62.961 38.272 63.465 38.272C63.729 38.272 63.993 38.236 64.257 38.164C64.521 38.092 64.761 37.984 64.977 37.84C65.193 37.696 65.367 37.516 65.499 37.3C65.631 37.072 65.697 36.814 65.697 36.526C65.697 36.058 65.547 35.698 65.247 35.446C64.947 35.194 64.575 34.984 64.131 34.816C63.687 34.636 63.201 34.468 62.673 34.312C62.145 34.156 61.659 33.946 61.215 33.682C60.771 33.406 60.399 33.046 60.099 32.602C59.799 32.146 59.649 31.54 59.649 30.784C59.649 30.124 59.781 29.554 60.045 29.074C60.321 28.594 60.675 28.198 61.107 27.886C61.551 27.562 62.055 27.322 62.619 27.166C63.183 27.01 63.759 26.932 64.347 26.932C65.019 26.932 65.667 27.034 66.291 27.238C66.927 27.442 67.497 27.778 68.001 28.246L66.345 29.992ZM72.577 32.566H72.613C72.781 32.206 73.075 31.882 73.495 31.594C73.927 31.294 74.479 31.144 75.151 31.144C75.727 31.144 76.213 31.24 76.609 31.432C77.017 31.624 77.347 31.876 77.599 32.188C77.851 32.5 78.031 32.86 78.139 33.268C78.247 33.676 78.301 34.102 78.301 34.546V40H76.141V35.626C76.141 35.386 76.129 35.122 76.105 34.834C76.081 34.534 76.015 34.258 75.907 34.006C75.811 33.742 75.655 33.526 75.439 33.358C75.223 33.178 74.929 33.088 74.557 33.088C74.197 33.088 73.891 33.148 73.639 33.268C73.399 33.388 73.195 33.55 73.027 33.754C72.871 33.958 72.757 34.192 72.685 34.456C72.613 34.72 72.577 34.996 72.577 35.284V40H70.417V26.392H72.577V32.566ZM86.3329 38.812H86.2789C85.9669 39.304 85.5709 39.664 85.0909 39.892C84.6109 40.108 84.0829 40.216 83.5069 40.216C83.1109 40.216 82.7209 40.162 82.3369 40.054C81.9649 39.946 81.6289 39.784 81.3289 39.568C81.0409 39.352 80.8069 39.082 80.6269 38.758C80.4469 38.434 80.3569 38.056 80.3569 37.624C80.3569 37.156 80.4409 36.76 80.6089 36.436C80.7769 36.1 80.9989 35.824 81.2749 35.608C81.5629 35.38 81.8929 35.2 82.2649 35.068C82.6369 34.936 83.0209 34.84 83.4169 34.78C83.8249 34.708 84.2329 34.666 84.6409 34.654C85.0489 34.63 85.4329 34.618 85.7929 34.618H86.3329V34.384C86.3329 33.844 86.1469 33.442 85.7749 33.178C85.4029 32.902 84.9289 32.764 84.3529 32.764C83.8969 32.764 83.4709 32.848 83.0749 33.016C82.6789 33.172 82.3369 33.388 82.0489 33.664L80.9149 32.53C81.3949 32.038 81.9529 31.684 82.5889 31.468C83.2369 31.252 83.9029 31.144 84.5869 31.144C85.1989 31.144 85.7149 31.216 86.1349 31.36C86.5549 31.492 86.9029 31.666 87.1789 31.882C87.4549 32.098 87.6649 32.35 87.8089 32.638C87.9649 32.914 88.0729 33.196 88.1329 33.484C88.2049 33.772 88.2469 34.054 88.2589 34.33C88.2709 34.594 88.2769 34.828 88.2769 35.032V40H86.3329V38.812ZM86.2069 36.13H85.7569C85.4569 36.13 85.1209 36.142 84.7489 36.166C84.3769 36.19 84.0229 36.25 83.6869 36.346C83.3629 36.43 83.0869 36.562 82.8589 36.742C82.6309 36.91 82.5169 37.15 82.5169 37.462C82.5169 37.666 82.5589 37.84 82.6429 37.984C82.7389 38.116 82.8589 38.23 83.0029 38.326C83.1469 38.422 83.3089 38.494 83.4889 38.542C83.6689 38.578 83.8489 38.596 84.0289 38.596C84.7729 38.596 85.3189 38.422 85.6669 38.074C86.0269 37.714 86.2069 37.228 86.2069 36.616V36.13ZM90.7809 31.36H92.9409V32.728H92.9769C93.2169 32.224 93.5589 31.834 94.0029 31.558C94.4469 31.282 94.9569 31.144 95.5329 31.144C95.6649 31.144 95.7909 31.156 95.9109 31.18C96.0429 31.204 96.1749 31.234 96.3069 31.27V33.358C96.1269 33.31 95.9469 33.274 95.7669 33.25C95.5989 33.214 95.4309 33.196 95.2629 33.196C94.7589 33.196 94.3509 33.292 94.0389 33.484C93.7389 33.664 93.5049 33.874 93.3369 34.114C93.1809 34.354 93.0729 34.594 93.0129 34.834C92.9649 35.074 92.9409 35.254 92.9409 35.374V40H90.7809V31.36ZM99.3686 36.436C99.4406 37.084 99.6926 37.588 100.125 37.948C100.557 38.308 101.079 38.488 101.691 38.488C102.231 38.488 102.681 38.38 103.041 38.164C103.413 37.936 103.737 37.654 104.013 37.318L105.561 38.488C105.057 39.112 104.493 39.556 103.869 39.82C103.245 40.084 102.591 40.216 101.907 40.216C101.259 40.216 100.647 40.108 100.071 39.892C99.4946 39.676 98.9966 39.37 98.5766 38.974C98.1566 38.578 97.8206 38.104 97.5686 37.552C97.3286 36.988 97.2086 36.364 97.2086 35.68C97.2086 34.996 97.3286 34.378 97.5686 33.826C97.8206 33.262 98.1566 32.782 98.5766 32.386C98.9966 31.99 99.4946 31.684 100.071 31.468C100.647 31.252 101.259 31.144 101.907 31.144C102.507 31.144 103.053 31.252 103.545 31.468C104.049 31.672 104.475 31.972 104.823 32.368C105.183 32.764 105.459 33.256 105.651 33.844C105.855 34.42 105.957 35.086 105.957 35.842V36.436H99.3686ZM103.797 34.816C103.785 34.18 103.587 33.682 103.203 33.322C102.819 32.95 102.285 32.764 101.601 32.764C100.953 32.764 100.437 32.95 100.053 33.322C99.6806 33.694 99.4526 34.192 99.3686 34.816H103.797Z" fill="black" fill-opacity="0.2"/>
        <path d="M26.72 33.628C26.72 32.62 26.798 31.762 26.954 31.054C27.122 30.334 27.338 29.734 27.602 29.254C27.866 28.762 28.16 28.372 28.484 28.084C28.82 27.784 29.156 27.562 29.492 27.418C29.84 27.262 30.17 27.16 30.482 27.112C30.806 27.064 31.088 27.04 31.328 27.04C31.568 27.04 31.844 27.064 32.156 27.112C32.48 27.16 32.81 27.262 33.146 27.418C33.494 27.562 33.83 27.784 34.154 28.084C34.49 28.372 34.79 28.762 35.054 29.254C35.318 29.734 35.528 30.334 35.684 31.054C35.852 31.762 35.936 32.62 35.936 33.628C35.936 34.636 35.852 35.5 35.684 36.22C35.528 36.928 35.318 37.528 35.054 38.02C34.79 38.5 34.49 38.89 34.154 39.19C33.83 39.478 33.494 39.7 33.146 39.856C32.81 40 32.48 40.096 32.156 40.144C31.844 40.192 31.568 40.216 31.328 40.216C31.088 40.216 30.806 40.192 30.482 40.144C30.17 40.096 29.84 40 29.492 39.856C29.156 39.7 28.82 39.478 28.484 39.19C28.16 38.89 27.866 38.5 27.602 38.02C27.338 37.528 27.122 36.928 26.954 36.22C26.798 35.5 26.72 34.636 26.72 33.628ZM28.88 33.628C28.88 34.024 28.904 34.486 28.952 35.014C29.012 35.53 29.126 36.022 29.294 36.49C29.462 36.958 29.708 37.354 30.032 37.678C30.356 38.002 30.788 38.164 31.328 38.164C31.868 38.164 32.3 38.002 32.624 37.678C32.948 37.354 33.194 36.958 33.362 36.49C33.53 36.022 33.638 35.53 33.686 35.014C33.746 34.486 33.776 34.024 33.776 33.628C33.776 33.232 33.746 32.776 33.686 32.26C33.638 31.732 33.53 31.234 33.362 30.766C33.194 30.298 32.948 29.902 32.624 29.578C32.3 29.254 31.868 29.092 31.328 29.092C30.788 29.092 30.356 29.254 30.032 29.578C29.708 29.902 29.462 30.298 29.294 30.766C29.126 31.234 29.012 31.732 28.952 32.26C28.904 32.776 28.88 33.232 28.88 33.628ZM37.8943 37.714L42.8443 32.926C42.9883 32.782 43.1383 32.632 43.2943 32.476C43.4503 32.308 43.5883 32.134 43.7083 31.954C43.8403 31.774 43.9483 31.588 44.0323 31.396C44.1163 31.192 44.1583 30.982 44.1583 30.766C44.1583 30.502 44.1043 30.268 43.9963 30.064C43.9003 29.86 43.7683 29.686 43.6003 29.542C43.4323 29.398 43.2343 29.29 43.0063 29.218C42.7903 29.134 42.5563 29.092 42.3043 29.092C41.7643 29.092 41.3203 29.248 40.9723 29.56C40.6243 29.872 40.4143 30.292 40.3423 30.82L38.0743 30.64C38.1223 30.052 38.2603 29.536 38.4883 29.092C38.7283 28.636 39.0343 28.258 39.4063 27.958C39.7783 27.658 40.2103 27.43 40.7023 27.274C41.1943 27.118 41.7283 27.04 42.3043 27.04C42.8803 27.04 43.4143 27.118 43.9063 27.274C44.4103 27.418 44.8483 27.64 45.2203 27.94C45.5923 28.228 45.8863 28.6 46.1023 29.056C46.3183 29.512 46.4263 30.046 46.4263 30.658C46.4263 31.462 46.2403 32.158 45.8683 32.746C45.5083 33.322 45.0403 33.874 44.4643 34.402L40.5223 38.056H46.4263V40H37.8943V37.714ZM48.8887 38.74C48.8887 38.356 49.0267 38.026 49.3027 37.75C49.5907 37.474 49.9327 37.336 50.3287 37.336C50.7127 37.336 51.0487 37.468 51.3367 37.732C51.6247 37.996 51.7687 38.32 51.7687 38.704C51.7687 39.088 51.6247 39.418 51.3367 39.694C51.0607 39.97 50.7247 40.108 50.3287 40.108C50.1367 40.108 49.9507 40.072 49.7707 40C49.6027 39.928 49.4527 39.832 49.3207 39.712C49.1887 39.592 49.0807 39.448 48.9967 39.28C48.9247 39.112 48.8887 38.932 48.8887 38.74ZM66.345 29.992C66.105 29.644 65.781 29.392 65.373 29.236C64.977 29.068 64.557 28.984 64.113 28.984C63.849 28.984 63.591 29.014 63.339 29.074C63.099 29.134 62.877 29.23 62.673 29.362C62.481 29.494 62.325 29.668 62.205 29.884C62.085 30.088 62.025 30.334 62.025 30.622C62.025 31.054 62.175 31.384 62.475 31.612C62.775 31.84 63.147 32.038 63.591 32.206C64.035 32.374 64.521 32.536 65.049 32.692C65.577 32.848 66.063 33.064 66.507 33.34C66.951 33.616 67.323 33.982 67.623 34.438C67.923 34.894 68.073 35.5 68.073 36.256C68.073 36.94 67.947 37.54 67.695 38.056C67.443 38.56 67.101 38.98 66.669 39.316C66.249 39.652 65.757 39.904 65.193 40.072C64.629 40.24 64.035 40.324 63.411 40.324C62.619 40.324 61.857 40.192 61.125 39.928C60.393 39.664 59.763 39.22 59.235 38.596L60.945 36.94C61.221 37.36 61.581 37.69 62.025 37.93C62.481 38.158 62.961 38.272 63.465 38.272C63.729 38.272 63.993 38.236 64.257 38.164C64.521 38.092 64.761 37.984 64.977 37.84C65.193 37.696 65.367 37.516 65.499 37.3C65.631 37.072 65.697 36.814 65.697 36.526C65.697 36.058 65.547 35.698 65.247 35.446C64.947 35.194 64.575 34.984 64.131 34.816C63.687 34.636 63.201 34.468 62.673 34.312C62.145 34.156 61.659 33.946 61.215 33.682C60.771 33.406 60.399 33.046 60.099 32.602C59.799 32.146 59.649 31.54 59.649 30.784C59.649 30.124 59.781 29.554 60.045 29.074C60.321 28.594 60.675 28.198 61.107 27.886C61.551 27.562 62.055 27.322 62.619 27.166C63.183 27.01 63.759 26.932 64.347 26.932C65.019 26.932 65.667 27.034 66.291 27.238C66.927 27.442 67.497 27.778 68.001 28.246L66.345 29.992ZM72.577 32.566H72.613C72.781 32.206 73.075 31.882 73.495 31.594C73.927 31.294 74.479 31.144 75.151 31.144C75.727 31.144 76.213 31.24 76.609 31.432C77.017 31.624 77.347 31.876 77.599 32.188C77.851 32.5 78.031 32.86 78.139 33.268C78.247 33.676 78.301 34.102 78.301 34.546V40H76.141V35.626C76.141 35.386 76.129 35.122 76.105 34.834C76.081 34.534 76.015 34.258 75.907 34.006C75.811 33.742 75.655 33.526 75.439 33.358C75.223 33.178 74.929 33.088 74.557 33.088C74.197 33.088 73.891 33.148 73.639 33.268C73.399 33.388 73.195 33.55 73.027 33.754C72.871 33.958 72.757 34.192 72.685 34.456C72.613 34.72 72.577 34.996 72.577 35.284V40H70.417V26.392H72.577V32.566ZM86.3329 38.812H86.2789C85.9669 39.304 85.5709 39.664 85.0909 39.892C84.6109 40.108 84.0829 40.216 83.5069 40.216C83.1109 40.216 82.7209 40.162 82.3369 40.054C81.9649 39.946 81.6289 39.784 81.3289 39.568C81.0409 39.352 80.8069 39.082 80.6269 38.758C80.4469 38.434 80.3569 38.056 80.3569 37.624C80.3569 37.156 80.4409 36.76 80.6089 36.436C80.7769 36.1 80.9989 35.824 81.2749 35.608C81.5629 35.38 81.8929 35.2 82.2649 35.068C82.6369 34.936 83.0209 34.84 83.4169 34.78C83.8249 34.708 84.2329 34.666 84.6409 34.654C85.0489 34.63 85.4329 34.618 85.7929 34.618H86.3329V34.384C86.3329 33.844 86.1469 33.442 85.7749 33.178C85.4029 32.902 84.9289 32.764 84.3529 32.764C83.8969 32.764 83.4709 32.848 83.0749 33.016C82.6789 33.172 82.3369 33.388 82.0489 33.664L80.9149 32.53C81.3949 32.038 81.9529 31.684 82.5889 31.468C83.2369 31.252 83.9029 31.144 84.5869 31.144C85.1989 31.144 85.7149 31.216 86.1349 31.36C86.5549 31.492 86.9029 31.666 87.1789 31.882C87.4549 32.098 87.6649 32.35 87.8089 32.638C87.9649 32.914 88.0729 33.196 88.1329 33.484C88.2049 33.772 88.2469 34.054 88.2589 34.33C88.2709 34.594 88.2769 34.828 88.2769 35.032V40H86.3329V38.812ZM86.2069 36.13H85.7569C85.4569 36.13 85.1209 36.142 84.7489 36.166C84.3769 36.19 84.0229 36.25 83.6869 36.346C83.3629 36.43 83.0869 36.562 82.8589 36.742C82.6309 36.91 82.5169 37.15 82.5169 37.462C82.5169 37.666 82.5589 37.84 82.6429 37.984C82.7389 38.116 82.8589 38.23 83.0029 38.326C83.1469 38.422 83.3089 38.494 83.4889 38.542C83.6689 38.578 83.8489 38.596 84.0289 38.596C84.7729 38.596 85.3189 38.422 85.6669 38.074C86.0269 37.714 86.2069 37.228 86.2069 36.616V36.13ZM90.7809 31.36H92.9409V32.728H92.9769C93.2169 32.224 93.5589 31.834 94.0029 31.558C94.4469 31.282 94.9569 31.144 95.5329 31.144C95.6649 31.144 95.7909 31.156 95.9109 31.18C96.0429 31.204 96.1749 31.234 96.3069 31.27V33.358C96.1269 33.31 95.9469 33.274 95.7669 33.25C95.5989 33.214 95.4309 33.196 95.2629 33.196C94.7589 33.196 94.3509 33.292 94.0389 33.484C93.7389 33.664 93.5049 33.874 93.3369 34.114C93.1809 34.354 93.0729 34.594 93.0129 34.834C92.9649 35.074 92.9409 35.254 92.9409 35.374V40H90.7809V31.36ZM99.3686 36.436C99.4406 37.084 99.6926 37.588 100.125 37.948C100.557 38.308 101.079 38.488 101.691 38.488C102.231 38.488 102.681 38.38 103.041 38.164C103.413 37.936 103.737 37.654 104.013 37.318L105.561 38.488C105.057 39.112 104.493 39.556 103.869 39.82C103.245 40.084 102.591 40.216 101.907 40.216C101.259 40.216 100.647 40.108 100.071 39.892C99.4946 39.676 98.9966 39.37 98.5766 38.974C98.1566 38.578 97.8206 38.104 97.5686 37.552C97.3286 36.988 97.2086 36.364 97.2086 35.68C97.2086 34.996 97.3286 34.378 97.5686 33.826C97.8206 33.262 98.1566 32.782 98.5766 32.386C98.9966 31.99 99.4946 31.684 100.071 31.468C100.647 31.252 101.259 31.144 101.907 31.144C102.507 31.144 103.053 31.252 103.545 31.468C104.049 31.672 104.475 31.972 104.823 32.368C105.183 32.764 105.459 33.256 105.651 33.844C105.855 34.42 105.957 35.086 105.957 35.842V36.436H99.3686ZM103.797 34.816C103.785 34.18 103.587 33.682 103.203 33.322C102.819 32.95 102.285 32.764 101.601 32.764C100.953 32.764 100.437 32.95 100.053 33.322C99.6806 33.694 99.4526 34.192 99.3686 34.816H103.797Z" fill="black" fill-opacity="0.2"/>
        <path d="M26.72 33.628C26.72 32.62 26.798 31.762 26.954 31.054C27.122 30.334 27.338 29.734 27.602 29.254C27.866 28.762 28.16 28.372 28.484 28.084C28.82 27.784 29.156 27.562 29.492 27.418C29.84 27.262 30.17 27.16 30.482 27.112C30.806 27.064 31.088 27.04 31.328 27.04C31.568 27.04 31.844 27.064 32.156 27.112C32.48 27.16 32.81 27.262 33.146 27.418C33.494 27.562 33.83 27.784 34.154 28.084C34.49 28.372 34.79 28.762 35.054 29.254C35.318 29.734 35.528 30.334 35.684 31.054C35.852 31.762 35.936 32.62 35.936 33.628C35.936 34.636 35.852 35.5 35.684 36.22C35.528 36.928 35.318 37.528 35.054 38.02C34.79 38.5 34.49 38.89 34.154 39.19C33.83 39.478 33.494 39.7 33.146 39.856C32.81 40 32.48 40.096 32.156 40.144C31.844 40.192 31.568 40.216 31.328 40.216C31.088 40.216 30.806 40.192 30.482 40.144C30.17 40.096 29.84 40 29.492 39.856C29.156 39.7 28.82 39.478 28.484 39.19C28.16 38.89 27.866 38.5 27.602 38.02C27.338 37.528 27.122 36.928 26.954 36.22C26.798 35.5 26.72 34.636 26.72 33.628ZM28.88 33.628C28.88 34.024 28.904 34.486 28.952 35.014C29.012 35.53 29.126 36.022 29.294 36.49C29.462 36.958 29.708 37.354 30.032 37.678C30.356 38.002 30.788 38.164 31.328 38.164C31.868 38.164 32.3 38.002 32.624 37.678C32.948 37.354 33.194 36.958 33.362 36.49C33.53 36.022 33.638 35.53 33.686 35.014C33.746 34.486 33.776 34.024 33.776 33.628C33.776 33.232 33.746 32.776 33.686 32.26C33.638 31.732 33.53 31.234 33.362 30.766C33.194 30.298 32.948 29.902 32.624 29.578C32.3 29.254 31.868 29.092 31.328 29.092C30.788 29.092 30.356 29.254 30.032 29.578C29.708 29.902 29.462 30.298 29.294 30.766C29.126 31.234 29.012 31.732 28.952 32.26C28.904 32.776 28.88 33.232 28.88 33.628ZM37.8943 37.714L42.8443 32.926C42.9883 32.782 43.1383 32.632 43.2943 32.476C43.4503 32.308 43.5883 32.134 43.7083 31.954C43.8403 31.774 43.9483 31.588 44.0323 31.396C44.1163 31.192 44.1583 30.982 44.1583 30.766C44.1583 30.502 44.1043 30.268 43.9963 30.064C43.9003 29.86 43.7683 29.686 43.6003 29.542C43.4323 29.398 43.2343 29.29 43.0063 29.218C42.7903 29.134 42.5563 29.092 42.3043 29.092C41.7643 29.092 41.3203 29.248 40.9723 29.56C40.6243 29.872 40.4143 30.292 40.3423 30.82L38.0743 30.64C38.1223 30.052 38.2603 29.536 38.4883 29.092C38.7283 28.636 39.0343 28.258 39.4063 27.958C39.7783 27.658 40.2103 27.43 40.7023 27.274C41.1943 27.118 41.7283 27.04 42.3043 27.04C42.8803 27.04 43.4143 27.118 43.9063 27.274C44.4103 27.418 44.8483 27.64 45.2203 27.94C45.5923 28.228 45.8863 28.6 46.1023 29.056C46.3183 29.512 46.4263 30.046 46.4263 30.658C46.4263 31.462 46.2403 32.158 45.8683 32.746C45.5083 33.322 45.0403 33.874 44.4643 34.402L40.5223 38.056H46.4263V40H37.8943V37.714ZM48.8887 38.74C48.8887 38.356 49.0267 38.026 49.3027 37.75C49.5907 37.474 49.9327 37.336 50.3287 37.336C50.7127 37.336 51.0487 37.468 51.3367 37.732C51.6247 37.996 51.7687 38.32 51.7687 38.704C51.7687 39.088 51.6247 39.418 51.3367 39.694C51.0607 39.97 50.7247 40.108 50.3287 40.108C50.1367 40.108 49.9507 40.072 49.7707 40C49.6027 39.928 49.4527 39.832 49.3207 39.712C49.1887 39.592 49.0807 39.448 48.9967 39.28C48.9247 39.112 48.8887 38.932 48.8887 38.74ZM66.345 29.992C66.105 29.644 65.781 29.392 65.373 29.236C64.977 29.068 64.557 28.984 64.113 28.984C63.849 28.984 63.591 29.014 63.339 29.074C63.099 29.134 62.877 29.23 62.673 29.362C62.481 29.494 62.325 29.668 62.205 29.884C62.085 30.088 62.025 30.334 62.025 30.622C62.025 31.054 62.175 31.384 62.475 31.612C62.775 31.84 63.147 32.038 63.591 32.206C64.035 32.374 64.521 32.536 65.049 32.692C65.577 32.848 66.063 33.064 66.507 33.34C66.951 33.616 67.323 33.982 67.623 34.438C67.923 34.894 68.073 35.5 68.073 36.256C68.073 36.94 67.947 37.54 67.695 38.056C67.443 38.56 67.101 38.98 66.669 39.316C66.249 39.652 65.757 39.904 65.193 40.072C64.629 40.24 64.035 40.324 63.411 40.324C62.619 40.324 61.857 40.192 61.125 39.928C60.393 39.664 59.763 39.22 59.235 38.596L60.945 36.94C61.221 37.36 61.581 37.69 62.025 37.93C62.481 38.158 62.961 38.272 63.465 38.272C63.729 38.272 63.993 38.236 64.257 38.164C64.521 38.092 64.761 37.984 64.977 37.84C65.193 37.696 65.367 37.516 65.499 37.3C65.631 37.072 65.697 36.814 65.697 36.526C65.697 36.058 65.547 35.698 65.247 35.446C64.947 35.194 64.575 34.984 64.131 34.816C63.687 34.636 63.201 34.468 62.673 34.312C62.145 34.156 61.659 33.946 61.215 33.682C60.771 33.406 60.399 33.046 60.099 32.602C59.799 32.146 59.649 31.54 59.649 30.784C59.649 30.124 59.781 29.554 60.045 29.074C60.321 28.594 60.675 28.198 61.107 27.886C61.551 27.562 62.055 27.322 62.619 27.166C63.183 27.01 63.759 26.932 64.347 26.932C65.019 26.932 65.667 27.034 66.291 27.238C66.927 27.442 67.497 27.778 68.001 28.246L66.345 29.992ZM72.577 32.566H72.613C72.781 32.206 73.075 31.882 73.495 31.594C73.927 31.294 74.479 31.144 75.151 31.144C75.727 31.144 76.213 31.24 76.609 31.432C77.017 31.624 77.347 31.876 77.599 32.188C77.851 32.5 78.031 32.86 78.139 33.268C78.247 33.676 78.301 34.102 78.301 34.546V40H76.141V35.626C76.141 35.386 76.129 35.122 76.105 34.834C76.081 34.534 76.015 34.258 75.907 34.006C75.811 33.742 75.655 33.526 75.439 33.358C75.223 33.178 74.929 33.088 74.557 33.088C74.197 33.088 73.891 33.148 73.639 33.268C73.399 33.388 73.195 33.55 73.027 33.754C72.871 33.958 72.757 34.192 72.685 34.456C72.613 34.72 72.577 34.996 72.577 35.284V40H70.417V26.392H72.577V32.566ZM86.3329 38.812H86.2789C85.9669 39.304 85.5709 39.664 85.0909 39.892C84.6109 40.108 84.0829 40.216 83.5069 40.216C83.1109 40.216 82.7209 40.162 82.3369 40.054C81.9649 39.946 81.6289 39.784 81.3289 39.568C81.0409 39.352 80.8069 39.082 80.6269 38.758C80.4469 38.434 80.3569 38.056 80.3569 37.624C80.3569 37.156 80.4409 36.76 80.6089 36.436C80.7769 36.1 80.9989 35.824 81.2749 35.608C81.5629 35.38 81.8929 35.2 82.2649 35.068C82.6369 34.936 83.0209 34.84 83.4169 34.78C83.8249 34.708 84.2329 34.666 84.6409 34.654C85.0489 34.63 85.4329 34.618 85.7929 34.618H86.3329V34.384C86.3329 33.844 86.1469 33.442 85.7749 33.178C85.4029 32.902 84.9289 32.764 84.3529 32.764C83.8969 32.764 83.4709 32.848 83.0749 33.016C82.6789 33.172 82.3369 33.388 82.0489 33.664L80.9149 32.53C81.3949 32.038 81.9529 31.684 82.5889 31.468C83.2369 31.252 83.9029 31.144 84.5869 31.144C85.1989 31.144 85.7149 31.216 86.1349 31.36C86.5549 31.492 86.9029 31.666 87.1789 31.882C87.4549 32.098 87.6649 32.35 87.8089 32.638C87.9649 32.914 88.0729 33.196 88.1329 33.484C88.2049 33.772 88.2469 34.054 88.2589 34.33C88.2709 34.594 88.2769 34.828 88.2769 35.032V40H86.3329V38.812ZM86.2069 36.13H85.7569C85.4569 36.13 85.1209 36.142 84.7489 36.166C84.3769 36.19 84.0229 36.25 83.6869 36.346C83.3629 36.43 83.0869 36.562 82.8589 36.742C82.6309 36.91 82.5169 37.15 82.5169 37.462C82.5169 37.666 82.5589 37.84 82.6429 37.984C82.7389 38.116 82.8589 38.23 83.0029 38.326C83.1469 38.422 83.3089 38.494 83.4889 38.542C83.6689 38.578 83.8489 38.596 84.0289 38.596C84.7729 38.596 85.3189 38.422 85.6669 38.074C86.0269 37.714 86.2069 37.228 86.2069 36.616V36.13ZM90.7809 31.36H92.9409V32.728H92.9769C93.2169 32.224 93.5589 31.834 94.0029 31.558C94.4469 31.282 94.9569 31.144 95.5329 31.144C95.6649 31.144 95.7909 31.156 95.9109 31.18C96.0429 31.204 96.1749 31.234 96.3069 31.27V33.358C96.1269 33.31 95.9469 33.274 95.7669 33.25C95.5989 33.214 95.4309 33.196 95.2629 33.196C94.7589 33.196 94.3509 33.292 94.0389 33.484C93.7389 33.664 93.5049 33.874 93.3369 34.114C93.1809 34.354 93.0729 34.594 93.0129 34.834C92.9649 35.074 92.9409 35.254 92.9409 35.374V40H90.7809V31.36ZM99.3686 36.436C99.4406 37.084 99.6926 37.588 100.125 37.948C100.557 38.308 101.079 38.488 101.691 38.488C102.231 38.488 102.681 38.38 103.041 38.164C103.413 37.936 103.737 37.654 104.013 37.318L105.561 38.488C105.057 39.112 104.493 39.556 103.869 39.82C103.245 40.084 102.591 40.216 101.907 40.216C101.259 40.216 100.647 40.108 100.071 39.892C99.4946 39.676 98.9966 39.37 98.5766 38.974C98.1566 38.578 97.8206 38.104 97.5686 37.552C97.3286 36.988 97.2086 36.364 97.2086 35.68C97.2086 34.996 97.3286 34.378 97.5686 33.826C97.8206 33.262 98.1566 32.782 98.5766 32.386C98.9966 31.99 99.4946 31.684 100.071 31.468C100.647 31.252 101.259 31.144 101.907 31.144C102.507 31.144 103.053 31.252 103.545 31.468C104.049 31.672 104.475 31.972 104.823 32.368C105.183 32.764 105.459 33.256 105.651 33.844C105.855 34.42 105.957 35.086 105.957 35.842V36.436H99.3686ZM103.797 34.816C103.785 34.18 103.587 33.682 103.203 33.322C102.819 32.95 102.285 32.764 101.601 32.764C100.953 32.764 100.437 32.95 100.053 33.322C99.6806 33.694 99.4526 34.192 99.3686 34.816H103.797Z" fill="black" fill-opacity="0.2"/>
        <path d="M26.72 33.628C26.72 32.62 26.798 31.762 26.954 31.054C27.122 30.334 27.338 29.734 27.602 29.254C27.866 28.762 28.16 28.372 28.484 28.084C28.82 27.784 29.156 27.562 29.492 27.418C29.84 27.262 30.17 27.16 30.482 27.112C30.806 27.064 31.088 27.04 31.328 27.04C31.568 27.04 31.844 27.064 32.156 27.112C32.48 27.16 32.81 27.262 33.146 27.418C33.494 27.562 33.83 27.784 34.154 28.084C34.49 28.372 34.79 28.762 35.054 29.254C35.318 29.734 35.528 30.334 35.684 31.054C35.852 31.762 35.936 32.62 35.936 33.628C35.936 34.636 35.852 35.5 35.684 36.22C35.528 36.928 35.318 37.528 35.054 38.02C34.79 38.5 34.49 38.89 34.154 39.19C33.83 39.478 33.494 39.7 33.146 39.856C32.81 40 32.48 40.096 32.156 40.144C31.844 40.192 31.568 40.216 31.328 40.216C31.088 40.216 30.806 40.192 30.482 40.144C30.17 40.096 29.84 40 29.492 39.856C29.156 39.7 28.82 39.478 28.484 39.19C28.16 38.89 27.866 38.5 27.602 38.02C27.338 37.528 27.122 36.928 26.954 36.22C26.798 35.5 26.72 34.636 26.72 33.628ZM28.88 33.628C28.88 34.024 28.904 34.486 28.952 35.014C29.012 35.53 29.126 36.022 29.294 36.49C29.462 36.958 29.708 37.354 30.032 37.678C30.356 38.002 30.788 38.164 31.328 38.164C31.868 38.164 32.3 38.002 32.624 37.678C32.948 37.354 33.194 36.958 33.362 36.49C33.53 36.022 33.638 35.53 33.686 35.014C33.746 34.486 33.776 34.024 33.776 33.628C33.776 33.232 33.746 32.776 33.686 32.26C33.638 31.732 33.53 31.234 33.362 30.766C33.194 30.298 32.948 29.902 32.624 29.578C32.3 29.254 31.868 29.092 31.328 29.092C30.788 29.092 30.356 29.254 30.032 29.578C29.708 29.902 29.462 30.298 29.294 30.766C29.126 31.234 29.012 31.732 28.952 32.26C28.904 32.776 28.88 33.232 28.88 33.628ZM37.8943 37.714L42.8443 32.926C42.9883 32.782 43.1383 32.632 43.2943 32.476C43.4503 32.308 43.5883 32.134 43.7083 31.954C43.8403 31.774 43.9483 31.588 44.0323 31.396C44.1163 31.192 44.1583 30.982 44.1583 30.766C44.1583 30.502 44.1043 30.268 43.9963 30.064C43.9003 29.86 43.7683 29.686 43.6003 29.542C43.4323 29.398 43.2343 29.29 43.0063 29.218C42.7903 29.134 42.5563 29.092 42.3043 29.092C41.7643 29.092 41.3203 29.248 40.9723 29.56C40.6243 29.872 40.4143 30.292 40.3423 30.82L38.0743 30.64C38.1223 30.052 38.2603 29.536 38.4883 29.092C38.7283 28.636 39.0343 28.258 39.4063 27.958C39.7783 27.658 40.2103 27.43 40.7023 27.274C41.1943 27.118 41.7283 27.04 42.3043 27.04C42.8803 27.04 43.4143 27.118 43.9063 27.274C44.4103 27.418 44.8483 27.64 45.2203 27.94C45.5923 28.228 45.8863 28.6 46.1023 29.056C46.3183 29.512 46.4263 30.046 46.4263 30.658C46.4263 31.462 46.2403 32.158 45.8683 32.746C45.5083 33.322 45.0403 33.874 44.4643 34.402L40.5223 38.056H46.4263V40H37.8943V37.714ZM48.8887 38.74C48.8887 38.356 49.0267 38.026 49.3027 37.75C49.5907 37.474 49.9327 37.336 50.3287 37.336C50.7127 37.336 51.0487 37.468 51.3367 37.732C51.6247 37.996 51.7687 38.32 51.7687 38.704C51.7687 39.088 51.6247 39.418 51.3367 39.694C51.0607 39.97 50.7247 40.108 50.3287 40.108C50.1367 40.108 49.9507 40.072 49.7707 40C49.6027 39.928 49.4527 39.832 49.3207 39.712C49.1887 39.592 49.0807 39.448 48.9967 39.28C48.9247 39.112 48.8887 38.932 48.8887 38.74ZM66.345 29.992C66.105 29.644 65.781 29.392 65.373 29.236C64.977 29.068 64.557 28.984 64.113 28.984C63.849 28.984 63.591 29.014 63.339 29.074C63.099 29.134 62.877 29.23 62.673 29.362C62.481 29.494 62.325 29.668 62.205 29.884C62.085 30.088 62.025 30.334 62.025 30.622C62.025 31.054 62.175 31.384 62.475 31.612C62.775 31.84 63.147 32.038 63.591 32.206C64.035 32.374 64.521 32.536 65.049 32.692C65.577 32.848 66.063 33.064 66.507 33.34C66.951 33.616 67.323 33.982 67.623 34.438C67.923 34.894 68.073 35.5 68.073 36.256C68.073 36.94 67.947 37.54 67.695 38.056C67.443 38.56 67.101 38.98 66.669 39.316C66.249 39.652 65.757 39.904 65.193 40.072C64.629 40.24 64.035 40.324 63.411 40.324C62.619 40.324 61.857 40.192 61.125 39.928C60.393 39.664 59.763 39.22 59.235 38.596L60.945 36.94C61.221 37.36 61.581 37.69 62.025 37.93C62.481 38.158 62.961 38.272 63.465 38.272C63.729 38.272 63.993 38.236 64.257 38.164C64.521 38.092 64.761 37.984 64.977 37.84C65.193 37.696 65.367 37.516 65.499 37.3C65.631 37.072 65.697 36.814 65.697 36.526C65.697 36.058 65.547 35.698 65.247 35.446C64.947 35.194 64.575 34.984 64.131 34.816C63.687 34.636 63.201 34.468 62.673 34.312C62.145 34.156 61.659 33.946 61.215 33.682C60.771 33.406 60.399 33.046 60.099 32.602C59.799 32.146 59.649 31.54 59.649 30.784C59.649 30.124 59.781 29.554 60.045 29.074C60.321 28.594 60.675 28.198 61.107 27.886C61.551 27.562 62.055 27.322 62.619 27.166C63.183 27.01 63.759 26.932 64.347 26.932C65.019 26.932 65.667 27.034 66.291 27.238C66.927 27.442 67.497 27.778 68.001 28.246L66.345 29.992ZM72.577 32.566H72.613C72.781 32.206 73.075 31.882 73.495 31.594C73.927 31.294 74.479 31.144 75.151 31.144C75.727 31.144 76.213 31.24 76.609 31.432C77.017 31.624 77.347 31.876 77.599 32.188C77.851 32.5 78.031 32.86 78.139 33.268C78.247 33.676 78.301 34.102 78.301 34.546V40H76.141V35.626C76.141 35.386 76.129 35.122 76.105 34.834C76.081 34.534 76.015 34.258 75.907 34.006C75.811 33.742 75.655 33.526 75.439 33.358C75.223 33.178 74.929 33.088 74.557 33.088C74.197 33.088 73.891 33.148 73.639 33.268C73.399 33.388 73.195 33.55 73.027 33.754C72.871 33.958 72.757 34.192 72.685 34.456C72.613 34.72 72.577 34.996 72.577 35.284V40H70.417V26.392H72.577V32.566ZM86.3329 38.812H86.2789C85.9669 39.304 85.5709 39.664 85.0909 39.892C84.6109 40.108 84.0829 40.216 83.5069 40.216C83.1109 40.216 82.7209 40.162 82.3369 40.054C81.9649 39.946 81.6289 39.784 81.3289 39.568C81.0409 39.352 80.8069 39.082 80.6269 38.758C80.4469 38.434 80.3569 38.056 80.3569 37.624C80.3569 37.156 80.4409 36.76 80.6089 36.436C80.7769 36.1 80.9989 35.824 81.2749 35.608C81.5629 35.38 81.8929 35.2 82.2649 35.068C82.6369 34.936 83.0209 34.84 83.4169 34.78C83.8249 34.708 84.2329 34.666 84.6409 34.654C85.0489 34.63 85.4329 34.618 85.7929 34.618H86.3329V34.384C86.3329 33.844 86.1469 33.442 85.7749 33.178C85.4029 32.902 84.9289 32.764 84.3529 32.764C83.8969 32.764 83.4709 32.848 83.0749 33.016C82.6789 33.172 82.3369 33.388 82.0489 33.664L80.9149 32.53C81.3949 32.038 81.9529 31.684 82.5889 31.468C83.2369 31.252 83.9029 31.144 84.5869 31.144C85.1989 31.144 85.7149 31.216 86.1349 31.36C86.5549 31.492 86.9029 31.666 87.1789 31.882C87.4549 32.098 87.6649 32.35 87.8089 32.638C87.9649 32.914 88.0729 33.196 88.1329 33.484C88.2049 33.772 88.2469 34.054 88.2589 34.33C88.2709 34.594 88.2769 34.828 88.2769 35.032V40H86.3329V38.812ZM86.2069 36.13H85.7569C85.4569 36.13 85.1209 36.142 84.7489 36.166C84.3769 36.19 84.0229 36.25 83.6869 36.346C83.3629 36.43 83.0869 36.562 82.8589 36.742C82.6309 36.91 82.5169 37.15 82.5169 37.462C82.5169 37.666 82.5589 37.84 82.6429 37.984C82.7389 38.116 82.8589 38.23 83.0029 38.326C83.1469 38.422 83.3089 38.494 83.4889 38.542C83.6689 38.578 83.8489 38.596 84.0289 38.596C84.7729 38.596 85.3189 38.422 85.6669 38.074C86.0269 37.714 86.2069 37.228 86.2069 36.616V36.13ZM90.7809 31.36H92.9409V32.728H92.9769C93.2169 32.224 93.5589 31.834 94.0029 31.558C94.4469 31.282 94.9569 31.144 95.5329 31.144C95.6649 31.144 95.7909 31.156 95.9109 31.18C96.0429 31.204 96.1749 31.234 96.3069 31.27V33.358C96.1269 33.31 95.9469 33.274 95.7669 33.25C95.5989 33.214 95.4309 33.196 95.2629 33.196C94.7589 33.196 94.3509 33.292 94.0389 33.484C93.7389 33.664 93.5049 33.874 93.3369 34.114C93.1809 34.354 93.0729 34.594 93.0129 34.834C92.9649 35.074 92.9409 35.254 92.9409 35.374V40H90.7809V31.36ZM99.3686 36.436C99.4406 37.084 99.6926 37.588 100.125 37.948C100.557 38.308 101.079 38.488 101.691 38.488C102.231 38.488 102.681 38.38 103.041 38.164C103.413 37.936 103.737 37.654 104.013 37.318L105.561 38.488C105.057 39.112 104.493 39.556 103.869 39.82C103.245 40.084 102.591 40.216 101.907 40.216C101.259 40.216 100.647 40.108 100.071 39.892C99.4946 39.676 98.9966 39.37 98.5766 38.974C98.1566 38.578 97.8206 38.104 97.5686 37.552C97.3286 36.988 97.2086 36.364 97.2086 35.68C97.2086 34.996 97.3286 34.378 97.5686 33.826C97.8206 33.262 98.1566 32.782 98.5766 32.386C98.9966 31.99 99.4946 31.684 100.071 31.468C100.647 31.252 101.259 31.144 101.907 31.144C102.507 31.144 103.053 31.252 103.545 31.468C104.049 31.672 104.475 31.972 104.823 32.368C105.183 32.764 105.459 33.256 105.651 33.844C105.855 34.42 105.957 35.086 105.957 35.842V36.436H99.3686ZM103.797 34.816C103.785 34.18 103.587 33.682 103.203 33.322C102.819 32.95 102.285 32.764 101.601 32.764C100.953 32.764 100.437 32.95 100.053 33.322C99.6806 33.694 99.4526 34.192 99.3686 34.816H103.797Z" fill="black" fill-opacity="0.2"/>
        <rect x="26" y="56" width="252" height="12" rx="6" fill="#EDF9E8"/>
        <rect x="26" y="83" width="216" height="12" rx="6" fill="#EDF9E8"/>
        <path d="M31 113C29.897 113 29 113.897 29 115V129C29 130.103 29.897 131 31 131H37.6211H40.4141H45C46.103 131 47 130.103 47 129V115C47 113.897 46.103 113 45 113H31ZM31 115H45L45.002 129H40.4141V125.035H42.7793L43.1309 122.311H40.4297V120.574C40.4297 119.786 40.6493 119.254 41.7793 119.254H43.207V116.822C42.512 116.751 41.8142 116.717 41.1152 116.719C39.0412 116.719 37.6211 117.985 37.6211 120.309V122.314H35.2773V125.039H37.6211V129H31V115Z" fill="#7E7E7E"/>
        <path d="M74 113C71.243 113 69 115.243 69 118V126C69 128.757 71.243 131 74 131H82C84.757 131 87 128.757 87 126V118C87 115.243 84.757 113 82 113H74ZM74 115H82C83.654 115 85 116.346 85 118V126C85 127.654 83.654 129 82 129H74C72.346 129 71 127.654 71 126V118C71 116.346 72.346 115 74 115ZM83 116C82.7348 116 82.4804 116.105 82.2929 116.293C82.1054 116.48 82 116.735 82 117C82 117.265 82.1054 117.52 82.2929 117.707C82.4804 117.895 82.7348 118 83 118C83.2652 118 83.5196 117.895 83.7071 117.707C83.8946 117.52 84 117.265 84 117C84 116.735 83.8946 116.48 83.7071 116.293C83.5196 116.105 83.2652 116 83 116ZM78 117C75.243 117 73 119.243 73 122C73 124.757 75.243 127 78 127C80.757 127 83 124.757 83 122C83 119.243 80.757 117 78 117ZM78 119C79.654 119 81 120.346 81 122C81 123.654 79.654 125 78 125C76.346 125 75 123.654 75 122C75 120.346 76.346 119 78 119Z" fill="#7E7E7E"/>
        <path d="M111 113C109.895 113 109 113.895 109 115V129C109 130.105 109.895 131 111 131H125C126.105 131 127 130.105 127 129V115C127 113.895 126.105 113 125 113H111ZM111 115H125V129H111V115ZM113.779 116.316C112.922 116.316 112.408 116.832 112.408 117.518C112.408 118.204 112.922 118.717 113.693 118.717C114.55 118.717 115.064 118.204 115.064 117.518C115.064 116.832 114.55 116.316 113.779 116.316ZM112.477 120V127H115V120H112.477ZM117.082 120V127H119.605V123.174C119.605 122.035 120.418 121.871 120.662 121.871C120.906 121.871 121.559 122.116 121.559 123.174V127H124V123.174C124 120.977 123.024 120 121.803 120C120.582 120 119.93 120.407 119.605 120.977V120H117.082Z" fill="#7E7E7E"/>
        <path d="M148.367 113L155.463 123.141L148.74 131H151.381L156.645 124.83L160.961 131H167.871L160.449 120.375L166.74 113H164.141L159.271 118.688L155.299 113H148.367ZM152.207 115H154.256L164.033 129H162.002L152.207 115Z" fill="#7E7E7E"/>
    </g>
    <defs>
        <filter id="filter0_d_176_287" x="0" y="0" width="312" height="160" filterUnits="userSpaceOnUse" color-interpolation-filters="sRGB">
            <feFlood flood-opacity="0" result="BackgroundImageFix"/>
            <feColorMatrix in="SourceAlpha" type="matrix" values="0 0 0 0 0 0 0 0 0 0 0 0 0 0 0 0 0 0 127 0" result="hardAlpha"/>
            <feOffset dy="6"/>
            <feGaussianBlur stdDeviation="5"/>
            <feComposite in2="hardAlpha" operator="out"/>
            <feColorMatrix type="matrix" values="0 0 0 0 0 0 0 0 0 0 0 0 0 0 0 0 0 0 0.05 0"/>
            <feBlend mode="normal" in2="BackgroundImageFix" result="effect1_dropShadow_176_287"/>
            <feBlend mode="normal" in="SourceGraphic" in2="effect1_dropShadow_176_287" result="shape"/>
        </filter>
    </defs>
</svg>

